/* XPM */
static char *rcp44764884164441760[] = {
/* columns rows colors chars-per-pixel */
"32 64 13 1 ",
"  c black",
". c #271E1E",
"X c #746060",
"o c #992A2A",
"O c #927C5A",
"+ c #D66276",
"@ c #B8937E",
"# c #D4B688",
"$ c #D89DA7",
"% c gray81",
"& c #FCEAE0",
"* c #FEFFFF",
"= c white",
/* pixels */
"==========           ===========",
"=========  . ..   ooo ==========",
"=======   ......  oooo  ========",
"======  ..  ...   oooooo =======",
"===== ...  ..... oooooooo ======",
"==== .   ... ..  o ooooooo =====",
"===...   .. ...  oo ooooooo ====",
"== .       ....  oooooo oooo ===",
"= .     ........ ooooooo oooo ==",
"=..    .......&&&& oooooo oooo =",
"=.    . ....&&&&&&& ooooo oooo =",
" .   ......&&&&&&&&&oo ooo oooo ",
"     .....&&&&&&&&&& oo oo.oooo ",
".  . ....&&&&&&&&&&&&oooooo ooo ",
". .  ....&&&&&&&&&&&&& oo o ooo ",
". .  . .&&&&&&&&&&&&&& oo o ooo ",
".   ..       &&&&&&             ",
". && .&&&&&&& &&&& &&&&&&&  &&  ",
". && .  ==&&&&&&&&&&&&==  & &&  ",
". && .&    =&&&&&&&&=    && &&  ",
". && .&=     &&&&&&     =&& &&  ",
".  & .&===.X=&&&&&&=X.===&& & o ",
".    .& ==.X=&&&&&&=X.== &&   o ",
".     && =.. &&&&&& ..= &&&  oo ",
".     &&&&&&& &&&& &&&&&&&   oo ",
".      &&&&&&&&&&&&&&&&&&    oo ",
"..       &&&&&&$$&&&&&&      oo ",
"..        &&&&$...&&&&       oo ",
"..      =  &&&&$$&&&&  =     oo ",
"..      ===   &&&&   ====    oo ",
"..     ==%== &    & ==%===   oo ",
"..    ==%%=== &&&&  ==%%==   o  ",
"..   ===% ====     === %===    =",
"=.        ============         =",
"==.   &&@ ============ @&&    ==",
"===   &&@ ============ @&&   ===",
"====  &&@ ============ @&&  ====",
"====  &&@ ============ @&&  ====",
"===== &&@  ==========  @&& =====",
"===== &&@ &          & @&& =====",
"===== &&@ &&&&& &&&&&& @&& =====",
"=====    @&&&&&&&&&&&&&    =====",
"======== @@&&&&&&&&&&&& ========",
"========                ========",
"======== O############O ========",
"======== O############O ========",
"======== O###O    ####O ========",
"======== O###OO  #####. ========",
"========= ####O  ##### =========",
"=========              =========",
"========= &&&&    &&&& =========",
"========= &&&&    &&&& =========",
"========= &&&&    &&&& =========",
"========= &&&&    &&&& =========",
"========= &&&&    &&&& =========",
"========= &&&&    &&&& =========",
"========= &&&&    &&&& =========",
"=========              =========",
"=========  $+      $+  =========",
"=========              =========",
"=========      ==      =========",
"==========    ====    ==========",
"================================",
"================================"
};
