/* XPM */
static const char *__down_0[] = {
/* columns rows colors chars-per-pixel */
"32 64 14 1 ",
"  c black",
". c #0B0808",
"X c #271E1E",
"o c #746060",
"O c #992A2A",
"+ c #927C5A",
"@ c #D66276",
"# c #B8937E",
"$ c #D4B688",
"% c #D89DA7",
"& c gray81",
"* c #FCEAE0",
"= c #FEFFFF",
"- c None",
/* pixels */
"----------           -----------",
"---------  X XX   OOO ----------",
"-------   XXXXXX  OOOO  --------",
"------  XX  XXX   OOOOOO -------",
"----- XXX  XXXXX OOOOOOOO ------",
"---- X   XXX XX  O OOOOOOO -----",
"---XXX   XX XXX  OO OOOOOOO ----",
"-- X       XXXX  OOOOOO OOOO ---",
"- X     XXXXXXXX OOOOOOO OOOO --",
"-XX    XXXXXXX**** OOOOOO OOOO -",
"-X    X XXXX******* OOOOO OOOO -",
" X   XXXXXX*********OO OOO OOOO ",
"     XXXXX********** OO OOXOOOO ",
"X  X XXXX************OOOOOO OOO ",
"X X  XXXX************* OO O OOO ",
"X X  X X************** OO O OOO ",
"X   XX       ******             ",
"X ** X******* **** *******  **  ",
"X ** X  ==************==  * **  ",
"X ** X*    =********=    ** **  ",
"X ** X*=     ******     =** **  ",
"X  * X*===Xo=******=oX===** * O ",
"X    X* ==Xo=******=oX== **   O ",
"X     ** =XX ****** XX= ***  OO ",
"X     ******* **** *******   OO ",
"X      ******************    OO ",
"XX       ******%%******      OO ",
"XX        ****%XXX****       OO ",
"XX      =  ****%%****  =     OO ",
"XX      ===   ****   ====    OO ",
"XX     ==&== *    * ==&===   OO ",
"XX    ==&&=== ****  ==&&==   O  ",
"XX   ===& ====     === &===    -",
"-X        ============         -",
"--X   **# ============ ***    --",
"---   **# =========== ***    ---",
"----  **# =========== ***   ----",
"----  .*# =========== ***   ----",
"-------.#  ========== ***  -----",
"--------. *           *** ------",
"--------- ***** ***** ** -------",
"-------- #***********    -------",
"-------- ##************ --------",
"--------                --------",
"-------- +$$$$$$$$$$$$+ --------",
"-------- +$$$$$$$$$$$$+ --------",
"-------- +$$$+    $$$$+ --------",
"-------- +$$$++  $$$$$X --------",
"--------- $$$$+  $$$$$ ---------",
"---------              ---------",
"--------- ****    **** ---------",
"--------- ****    **** ---------",
"--------- ****    **** ---------",
"--------- ****    ****.---------",
"--------- ****    ***.----------",
"--------- ****    ***.----------",
"--------- ****    ...-----------",
"---------        ...------------",
"---------  %@    ---------------",
"---------        ---------------",
"---------      -----------------",
"----------    ------------------",
"--------------------------------",
"--------------------------------"
};
