/* XPM */
static char *rcp62283340164456823[] = {
/* columns rows colors chars-per-pixel */
"32 64 12 1 ",
"  c black",
". c #020101",
"X c #271E1E",
"o c #746060",
"O c #992A2A",
"+ c #927C5A",
"@ c #D66276",
"# c #D4B688",
"$ c #D89DA7",
"% c #FCEAE0",
"& c #FEFFFF",
"* c white",
/* pixels */
"**********..............********",
"********.....OOOOOOOOOO..*******",
"*******.....OO.OOOOOOOOO...*****",
"******.XX...OO..OOOOOOOOOO..****",
"*****.XXX.O.OOO.OOOOOOOOOOO..***",
"****.XXXX.OO.OOO.OOOOOOOOOOO..**",
"***..XXXX.OOO.OOOOOOOOOOOOOO..**",
"***.XXXX.OOOOO.OOOOOOOOOOOOOO..*",
"**.XXXXX..OOOO..OOOOOOOOOOOOOO.*",
"**.XXXX.%.OOOOO.OOOOOOOOOOOOOOX.",
"*.XXXX.%%%.OOOOO.OOOOOOOOOOOOOO.",
"*.XXX.%%%%.OOOOOOOOOOOO.OOOOOOO.",
"*.X...%%%%%.OOOOOOOOOOO.OOOOOOO.",
"*.X.%%%%%%%..OOOOOOOOOO.OOOOOOO.",
"*.X.%%%%%%.%..OOOOOOOOO.OO.OOOO.",
"*.X.%%%%..%%%.OOOOOOOOO.OOO.OOO.",
"*.X.%%%.%%%%%%.OOOOOO.O.OOO.OOO.",
"*.XX.%.%%%%%**..OOOOO.O.OOO.OOO.",
"*.XX.%%%%%**....OOOOO.O.OOO.OOO.",
"*.XX.%%%%.....*OOOOO.OO..OO.OOO.",
"*.XX.%%%.oX****%OOOO.OO..OO.OOO.",
"*..X.%%%%oX****%OOOO.OO..OO.OOO.",
"*..X.%%%.XX***.%OOOO.OO..OO.OOO.",
"*....%%..****.%%OOOO.OO.OOO.OOO.",
"*...%%%%%%%%%%%%OOO..OO.OOO.OOO.",
"*...%%%%%%%%%%%%OOO.OOO.OOO.OOO.",
"*..X..%%%%%%%%%%OOO.OOO.OOO.OOO.",
"*..XXX.$$$%%%%%%OOO.OOO.OOOOOOO.",
"**.XX.X..%%%%%%%OO..OOO.OOOOOOO.",
"**..X.....%%%%%.OO.OOOO.OOOOOOO.",
"**..X..........*OO.OOO.OOOOOOOO.",
"**.XXX........**OO..OOOOOOOOOOO.",
"**.XXX.......***O.O.OOOOOOOOOOO.",
"**..XX......***.O...OOOOOOOOOO..",
"***.XX......***.OO.OOOOOOOOOO..*",
"***.X......****OO..OOOOOOOOOO..*",
"***.XX.....***.OO.OOOOOOOOO...**",
"***..X....****..O.OOOOOOOO...***",
"****.X......**.O.OOOOOOOO...****",
"****..X.....**...OOOOOO....*****",
"*****.XX........OOOOO.....******",
"******..XX..%..OO......*********",
"********....%.......************",
"***********X...%%%%.************",
"***********.##.%%%%.************",
"***********.##..%%..************",
"***********.###...+.************",
"************.#####+.************",
"************..####..************",
"************......%%************",
"************.%%%%.**************",
"************.%%%%.**************",
"************.%%%%.**************",
"************.%%%%.**************",
"************.%%%%.**************",
"***********%.%%%%.**************",
"************.%%%%.**************",
"************......**************",
"************..$@..**************",
"************......**************",
"************......**************",
"*************....***************",
"********************************",
"********************************"
};
