/* XPM */
static const char *__left_0[] = {
/* columns rows colors chars-per-pixel */
"32 64 11 1 ",
"  c #020101",
". c #271E1E",
"X c #746060",
"o c #992A2A",
"O c #927C5A",
"+ c #D66276",
"@ c #D4B688",
"# c #D89DA7",
"$ c #FCEAE0",
"% c #FEFFFF",
"& c None",
/* pixels */
"&&&&&&&&&&              &&&&&&&&",
"&&&&&&&&     oooooooooo  &&&&&&&",
"&&&&&&&     oo ooooooooo   &&&&&",
"&&&&&& ..   oo  oooooooooo  &&&&",
"&&&&& ... o ooo ooooooooooo  &&&",
"&&&& .... oo ooo ooooooooooo  &&",
"&&&  .... ooo oooooooooooooo  &&",
"&&& .... ooooo oooooooooooooo  &",
"&&  ....  oooo  oooooooooooooo &",
"&& .... $ ooooo oooooooooooooo  ",
"&  ... $$$ ooooo oooooooooooooo ",
"& ... $$$$ oooooooooooo ooooooo ",
"& .   $$$$$ ooooooooooo ooooooo ",
"& . $$$$$$$  oooooooooo ooooooo ",
"& . $$$$$$ $  ooooooooo oo oooo ",
"& . $$$$  $$$ ooooooooo ooo ooo ",
"& . $$$ $$$$$$ oooooo o ooo ooo ",
"& .. $ $$$$$%%  ooooo o ooo ooo ",
"& .. $$$$$$%    ooooo o ooo ooo ",
"& .. $$$$     %ooooo oo  oo ooo ",
"& .. $$$ X.%%%%$oooo oo  oo ooo ",
"&  . $$$$X.%%%%$oooo oo  oo ooo ",
"&  . $$$ ..%%% $oooo oo  oo ooo ",
"&    $$  %%%% $$oooo oo ooo ooo ",
"&   $$$$$$$$$$$$ooo  oo ooo ooo ",
"&   $$$$$$$$$$$$ooo ooo ooo ooo ",
"&  .  $$$$$$$$$$ooo ooo ooo ooo ",
"&  ... ###$$$$$$ooo ooo ooooooo ",
"&& .. .  $$$$$$$oo  ooo ooooooo ",
"&&  .     $$$$$ oo oooo ooooooo ",
"&&  .          %oo ooo oooooooo ",
"&& ...        %%oo  ooooooooooo ",
"&& ...       %%%o o ooooooooooo ",
"&&  ..      %%%     oooooooooo  ",
"&&& ..      %%% oo oooooooooo  &",
"&&& .      %%%%oo  oooooooooo  &",
"&&& ..     %%% oo ooooooooo   &&",
"&&&  .    %%%%  o oooooooo   &&&",
"&&&& .      %% o oooooooo   &&&&",
"&&&&  .     %%   oooooo    &&&&&",
"&&&&& ..        ooooo     &&&&&&",
"&&&&&&  ..  $  oo      $ &&&&&&&",
"&&&&&&&&    $       $$$$ &&&&&&&",
"&&&&&&&&&&&&         $$$ &&&&&&&",
"&&&&&&&&&&& @@@@@@O &    &&&&&&&",
"&&&&&&&&&&& @@@@@@O &&&&&&&&&&&&",
"&&&&&&&&&& @@@@@@@O  &&&&&&&&&&&",
"&&&&&&&&&& @@@@@@O   &&&&&&&&&&&",
"&&&&&&&&&  @@@@@@O   &&&&&&&&&&&",
"&&&&&&&&& $  @@@@     &&&&&&&&&&",
"&&&&&&&& $$$$  @   $$ &&&&&&&&&&",
"&&&&&&&  $$$$$$  $$$$ &&&&&&&&&&",
"&&&&&&& $$$$$$   $$$$$ &&&&&&&&&",
"&&&&&& $$$$$$$ & $$$$$ &&&&&&&&&",
"&&&&&& $$$$$$ &&& $$$$$ &&&&&&&&",
"&&&&& $$$$$$ &&&& $$$$  &&&&&&&&",
"&&&& $$$$$$$ &&&&& $$    &&&&&&&",
"&&&&  $$$$$ &&&&&&&   #  &&&&&&&",
"&&&    $$$ &&&&&&&&& +   &&&&&&&",
"&&& +   $ &&&&&&&&&&&    &&&&&&&",
"&&   #   &&&&&&&&&&&&&&&&&&&&&&&",
"&&      &&&&&&&&&&&&&&&&&&&&&&&&",
"&&&    &&&&&&&&&&&&&&&&&&&&&&&&&",
"&&&&&&&&&&&&&&&&&&&&&&&&&&&&&&&&"
};
