/* XPM */
static const char *__right_0[] = {
/* columns rows colors chars-per-pixel */
"32 64 17 1 ",
"  c black",
". c #020101",
"X c #130E0E",
"o c #271E1E",
"O c #494340",
"+ c #665D59",
"@ c #746060",
"# c #992A2A",
"$ c #927C5A",
"% c #D66276",
"& c #D4B688",
"* c #D89DA7",
"= c gray84",
"- c #FCEAE0",
"; c #FDEFE8",
": c #FEFFFF",
"> c None",
/* pixels */
">>>>>>>>>.XXXXXXXXXX...>>>>>>>>>",
">>>>>>>>.XooooooooooX....>>>>>>>",
">>>>>>.XXoooooooooXooX....>>>>>>",
">>>>>.XooooooooooXXooXX.##.>>>>>",
">>>>.XoooooooooooXoooXoX###.>>>>",
">>>.XoooooooooooXoooXooX####.>>>",
">>>.XooooooooooooooXoooX####..>>",
">>.XooooooooooooooXoooooX####.>>",
">>XooooooooooooooXXooooX.#####.>",
">.oooooooooooooooXoooooX-.####.>",
">XooooooooooooooXoooooX---.####.",
">XoooooooXooooooooooooX----.###.",
">XoooooooXoooooooooooX-----...#.",
">XoooooooXooooooooooX.-------.#.",
">XooooXooXoooooooooX.-.------.#.",
">XoooXoooXoooooooooX---..----.#.",
">XoooXoooXoXooooooX------.---.#.",
">XoooXoooXoXoooooX.::-----.-.##.",
">XoooXoooXoXoooooX...::-----.##.",
">XoooXooXXooXoooo--.....----.##.",
">XoooXooXXooXooo--;:::o@.---.##.",
">XoooXooXXooXooo--;:::o@----.#..",
">XoooXooXXooXooo--O:::oo.---.#..",
">XoooXoooXooXooo---.::::..--....",
">XoooXoooXooXXoo-------------...",
">XoooXoooXoooXoo-------------...",
">XoooXoooXoooXoo-----------..#..",
">XoooooooXoooXoo-------***.###..",
">XoooooooXoooXXo--------..#.##.>",
">XoooooooXooooXoo+-----.....#..>",
">XooooooooXoooXoo=..........#..>",
">XoooooooooooXXoo=:........###.>",
">XoooooooooooXoXo=::.......###.>",
">.XooooooooooX.XoX:::......##..>",
">>.XooooooooooXooX:::......##.>>",
">>.XooooooooooXXoo=:::......#.>>",
">>>.XXoooooooooXooX:::.....##.>>",
">>>>..XooooooooXoX.::::....#..>>",
">>>>>..XooooooooXo.::......#.>>>",
">>>>>>..XXooooooX..::.....#..>>>",
">>>>>>>...XXoooooX.......##.>>>>",
">>>>>>>>>>..XXXXooX.-..##..>>>>>",
">>>>>>>>>>>>>...XX..-....>>>>>>>",
">>>>>>>>>>>>>.----...o>>>>>>>>>>",
">>>>>>>>>>>>>.----.&&.>>>>>>>>>>",
">>>>>>>>>>>>>..--..&&.>>>>>>>>>>",
">>>>>>>>>>>>>.$...&&&.>>>>>>>>>>",
">>>>>>>>>>>>>.$&&&&&.>>>>>>>>>>>",
">>>>>>>>>>>>>..&&&&..>>>>>>>>>>>",
">>>>>>>>>>>>>--......>>>>>>>>>>>",
">>>>>>>>>>>>>>>.----.>>>>>>>>>>>",
">>>>>>>>>>>>>>>.----.>>>>>>>>>>>",
">>>>>>>>>>>>>>>.----.>>>>>>>>>>>",
">>>>>>>>>>>>>>>.----.>>>>>>>>>>>",
">>>>>>>>>>>>>>>.----.>>>>>>>>>>>",
">>>>>>>>>>>>>>>.----.->>>>>>>>>>",
">>>>>>>>>>>>>>>.----.>>>>>>>>>>>",
">>>>>>>>>>>>>>>......>>>>>>>>>>>",
">>>>>>>>>>>>>>>..%*..>>>>>>>>>>>",
">>>>>>>>>>>>>>>......>>>>>>>>>>>",
">>>>>>>>>>>>>>>......>>>>>>>>>>>",
">>>>>>>>>>>>>>>>....>>>>>>>>>>>>",
">>>>>>>>>>>>>>>>>>>>>>>>>>>>>>>>",
">>>>>>>>>>>>>>>>>>>>>>>>>>>>>>>>"
};
