/* XPM */
static const char *__right_1[] = {
/* columns rows colors chars-per-pixel */
"32 64 13 1 ",
"  c #020101",
". c #130E0E",
"X c #271E1E",
"o c #746060",
"O c #992A2A",
"+ c #927C5A",
"@ c #D66276",
"# c #D4B688",
"$ c #D89DA7",
"% c gray84",
"& c #FCEAE0",
"* c #FEFFFF",
"= c None",
/* pixels */
"========= ..........   =========",
"======== .XXXXXXXXXX.    =======",
"====== ..XXXXXXXXX.XX.    ======",
"===== .XXXXXXXXXX..XX.. OO =====",
"==== .XXXXXXXXXXX.XXX.X.OOO ====",
"=== .XXXXXXXXXXX.XXX.XX.OOOO ===",
"=== .XXXXXXXXXXXXXX.XXX.OOOO  ==",
"== .XXXXXXXXXXXXXX.XXXXX.OOOO ==",
"==.XXXXXXXXXXXXXX..XXXX. OOOO  =",
"= .XXXXXXXXXXXXXX.XXXXX.& OOOO =",
"=.XXXXXXXXXXXXXX.XXXXX.&&& OOO  ",
"=.XXXXXXX.XXXXXXXXXXXX.&&&& OOO ",
"=.XXXXXXX.XXXXXXXXXXX.&&&&&   O ",
"=.XXXXXXX.XXXXXXXXXX. &&&&&&& O ",
"=.XXXX.XX.XXXXXXXXX. & &&&&&& O ",
"=.XXX.XXX.XXXXXXXXX.&&&  &&&& O ",
"=.XXX.XXX.X.XXXXXX.&&&&&& &&& O ",
"=.XXX.XXX.X.XXXXX. **&&&&& & OO ",
"=.XXX.XXX.X.XXXXX.   **&&&&& OO ",
"=.XXX.XX..XX.XXXX&&     &&&& OO ",
"=.XXX.XX..XX.XXX&&&***Xo &&& OO ",
"=.XXX.XX..XX.XXX&&&***Xo&&&& O  ",
"=.XXX.XX..XX.XXX&& ***XX &&& O  ",
"=.XXX.XXX.XX.XXX&&& ****  &&    ",
"=.XXX.XXX.XX..XX&&&&&&&&&&&&&   ",
"=.XXX.XXX.XXX.XX&&&&&&&&&&&&&   ",
"=.XXX.XXX.XXX.XX&&&&&&&&&&&  O  ",
"=.XXXXXXX.XXX.XX&&&&&&&$$$ OOO  ",
"=.XXXXXXX.XXX..X&&&&&&&&  O OO =",
"=.XXXXXXX.XXXX.XX.&&&&&     O  =",
"=.XXXXXXXX.XXX.XX%          O  =",
"=.XXXXXXXXXXX..XX%*        OOO =",
"=.XXXXXXXXXXX.X.X%**       OOO =",
"= .XXXXXXXXXX.  . ***      OO  =",
"== .XXXXXXXXXX.XX ***      OO ==",
"== .XXXXXXXXXX. XX****      O ==",
"=== ..XXXXXXXXX.XX ***     OO ==",
"====  .XXXXXXXX.X  ****    O  ==",
"=====  .XXXXXXXX.X **      O ===",
"======  ..XXXXXX.  **     O  ===",
"=======   ..XXXXX.       OO ====",
"======== &  ....XX. &  OO  =====",
"======== &&&&   ..  &    =======",
"======== &&&         ===========",
"========    = +###### ==========",
"============= +###### ==========",
"============  +####### =========",
"============   +###### =========",
"============   +######  ========",
"===========     ####  & ========",
"=========== &&   #  &&&& =======",
"=========== &&&&  &&&&&&  ======",
"========== &&&&&   &&&&&& ======",
"========== &&&&& = &&&&&&& =====",
"========= &&&&& === &&&&&& =====",
"=========  &&&& ==== &&&&&& ====",
"========    && ===== &&&&&&& ===",
"========  $   ======= &&&&&  ===",
"========   @ ========= &&&    ==",
"========    =========== &   @ ==",
"========================   $   =",
"=========================      =",
"==========================    ==",
"================================"
};
