/* XPM */
static const char *__up_2[] = {
/* columns rows colors chars-per-pixel */
"32 64 10 1 ",
"  c black",
". c #271E1E",
"X c #992A2A",
"o c #927C5A",
"O c #D66276",
"+ c #B8937E",
"@ c #D4B688",
"# c #D89DA7",
"$ c #FCEAE0",
"% c None",
/* pixels */
"%%%%%%%%%%           %%%%%%%%%%%",
"%%%%%%%%%  . ..   XXX %%%%%%%%%%",
"%%%%%%%   ......  XXXX  %%%%%%%%",
"%%%%%%  ..  ...   XXXXXX %%%%%%%",
"%%%%% ...  ..... XXXXXXXX %%%%%%",
"%%%% .   ... ..  X XXXXXXX %%%%%",
"%%%...   .. ...  XX XXXXXXX %%%%",
"%% .      .....  XXXXXX XXXX %%%",
"% .     ........XXXXXXXX XXXX %%",
"%..    ........XXXXXXXXXX XXXX %",
"%.    . .......XXXXXXXXXX XXXX %",
" .   ..........XXXXXXXXXXX XXXX ",
"     ..........XXXXXXXXXXX.XXXX ",
".  . ..........XXXXXXXXXXXX XXX ",
". .  ..........XXXXXXXXXXXX XXX ",
". .  ..........XXXXXXXXXXXX XXX ",
".   ...........XXXXXXXXXXX      ",
". $$ ..........XXXXXXXXXXX  $$  ",
". $$ ..........XXXXXXXXXXXX $$  ",
". $$ ..........XXXXXXXXXXXX $$  ",
". $$ ..........XXXXXXXXXXXX $$  ",
".  $ ..........XXXXXXXXXXXX $ X ",
".    ..........XXXXXXXXXXXX   X ",
".    ..........XXXXXXXXXXXX  XX ",
".    ..........XXXXXXXXXXXX  XX ",
".    .........XXXXXXXXXXXXX  XX ",
"..    ........XXXXXXXXXXXXX  XX ",
"..   .........XXXXXXXXXXXXX  XX ",
"..   .........XXXXXXXXXXXXX  XX ",
"..   .........XXXXXXXXXXXXX  XX ",
"..   .........XXXXXXXXXXXXXX XX ",
"..   ..........XXXXXXXXXXXX  X  ",
"..   ..........XXXXXXXXXXXX    %",
"%.   ..........XXXXXXXXXXXX    %",
"%%.  ..........XXXXXXXXXXXX   %%",
"%%%  ..........XXXXXXXXXXX   %%%",
"%%%% ..........XXXXXXXXXXX  %%%%",
"%%%%  .........XXXXXXXXXX   %%%%",
"%%%%% .........XXXXXXXXX %%%%%%%",
"%%%%%% ........ XXXXXX  %%%%%%%%",
"%%%%%%%   ..... XXXXX  %%%%%%%%%",
"%%%%%%%              $$ %%%%%%%%",
"%%%%%%%% ++$$$$$$$$$$$$ %%%%%%%%",
"%%%%%%%%                %%%%%%%%",
"%%%%%%%% o@@@@@@@@@@@@o %%%%%%%%",
"%%%%%%%% o@@@@@@@@@@@@o %%%%%%%%",
"%%%%%%%% o@@@o    @@@@o %%%%%%%%",
"%%%%%%%% o@@@oo  @@@@@. %%%%%%%%",
"%%%%%%%%% @@@@o  @@@@@ %%%%%%%%%",
"%%%%%%%%%              %%%%%%%%%",
"%%%%%%%%% $$$$    $$$$ %%%%%%%%%",
"%%%%%%%%% $$$$    $$$$ %%%%%%%%%",
"%%%%%%%%% $$$$    $$$$ %%%%%%%%%",
"%%%%%%%%% $$$$    $$$$ %%%%%%%%%",
"%%%%%%%%%% $$$    $$$$ %%%%%%%%%",
"%%%%%%%%%% $$$    $$$$ %%%%%%%%%",
"%%%%%%%%%%%       $$$$ %%%%%%%%%",
"%%%%%%%%%%%%           %%%%%%%%%",
"%%%%%%%%%%%%%%%    #O  %%%%%%%%%",
"%%%%%%%%%%%%%%%        %%%%%%%%%",
"%%%%%%%%%%%%%%%%%      %%%%%%%%%",
"%%%%%%%%%%%%%%%%%%    %%%%%%%%%%",
"%%%%%%%%%%%%%%%%%%%%%%%%%%%%%%%%",
"%%%%%%%%%%%%%%%%%%%%%%%%%%%%%%%%"
};
