/* XPM */
static char *rcp25082476164434588[] = {
/* columns rows colors chars-per-pixel */
"32 64 11 1 ",
"  c black",
". c #0B0808",
"X c #271E1E",
"o c #992A2A",
"O c #927C5A",
"+ c #D66276",
"@ c #B8937E",
"# c #D4B688",
"$ c #D89DA7",
"% c #FCEAE0",
"& c white",
/* pixels */
"&&&&&&&&&&           &&&&&&&&&&&",
"&&&&&&&&&  X XX   ooo &&&&&&&&&&",
"&&&&&&&   XXXXXX  oooo  &&&&&&&&",
"&&&&&&  XX  XXX   oooooo &&&&&&&",
"&&&&& XXX  XXXXX oooooooo &&&&&&",
"&&&& X   XXX XX  o ooooooo &&&&&",
"&&&XXX   XX XXX  oo ooooooo &&&&",
"&& X       XXXX  oooooo oooo &&&",
"& X     XXXXXXXX ooooooo oooo &&",
"&XX    XXXXXXXXXooooooooo oooo &",
"&X    XXXXXXXXXXooooooooo oooo &",
" X   XXXXXXXXXXXoooooo ooo oooo ",
"     XXXXXXXXXXXooooooo ooXoooo ",
"X  X XXXXXXXXXXXooooooooooo ooo ",
"X X  XXXXXXXXXXXooooooooo o ooo ",
"X X  XXXXXXXXXXXooooooooo o ooo ",
"X   XXXXXXXXXXXXooooooooooo     ",
"X %% XXXXXXXXXXXooooooooooo %%  ",
"X %% XXXXXXXXXXXooooooooooo %%  ",
"X %% XXXXXXXXXXXooooooooooo %%  ",
"X %% XXXXXXXXXXXooooooooooo %%  ",
"X  % XXXXXXXXXXXooooooooooo % o ",
"X    XXXXXXXXXXXooooooooooo   o ",
"X    XXXXXXXXXXXooooooooooo  oo ",
"X    XXXXXXXXXXXooooooooooo  oo ",
"X    XXXXXXXXXXXXoooooooooo  oo ",
"XX   XXXXXXXXXXXXoooooooooo  oo ",
"XX   XXXXXXXXXXXXooooooooooo oo ",
"XX   XXXXXXXXXXXXooooooooooo oo ",
"XX   XXXXXXXXXXXXooooooooooo oo ",
"XX   XXXXXXXXXXXXooooooooooo oo ",
"XX   XXXXXXXXXXXoooooooooooo o  ",
"XX   XXXXXXXXXXXooooooooooo    &",
"&X   XXXXXXXXXXXooooooooooo    &",
"&&X  XXXXXXXXXXXoooooooooo    &&",
"&&&  XXXXXXXXXXXoooooooooo   &&&",
"&&&& XXXXXXXXXXXooooooooo   &&&&",
"&&&& XXXXXXXXXXXooooooooo   &&&&",
"&&&&&&XXXXXXXXXooooooooo   &&&&&",
"&&&&&& XXXXXXXX ooooooo % &&&&&&",
"&&&&&&& XXXXXXX oooooo % &&&&&&&",
"&&&&&&&& XX              &&&&&&&",
"&&&&&&&& @@%%%%%%%%%%%% &&&&&&&&",
"&&&&&&&&                &&&&&&&&",
"&&&&&&&& O############O &&&&&&&&",
"&&&&&&&& O############O &&&&&&&&",
"&&&&&&&& O###O    ####O &&&&&&&&",
"&&&&&&&& O###OO  #####X &&&&&&&&",
"&&&&&&&&& ####O  ##### &&&&&&&&&",
"&&&&&&&&&              &&&&&&&&&",
"&&&&&&&&& %%%%    %%%% &&&&&&&&&",
"&&&&&&&&& %%%%    %%%% &&&&&&&&&",
"&&&&&&&&& %%%%    %%%% &&&&&&&&&",
"&&&&&&&&& %%%%    %%%%.&&&&&&&&&",
"&&&&&&&&& %%%%    %%%.&&&&&&&&&&",
"&&&&&&&&& %%%%    %%%.&&&&&&&&&&",
"&&&&&&&&& %%%%    ...&&&&&&&&&&&",
"&&&&&&&&&        ...&&&&&&&&&&&&",
"&&&&&&&&&  $+    &&&&&&&&&&&&&&&",
"&&&&&&&&&        &&&&&&&&&&&&&&&",
"&&&&&&&&&      &&&&&&&&&&&&&&&&&",
"&&&&&&&&&&    &&&&&&&&&&&&&&&&&&",
"&&&&&&&&&&&&&&&&&&&&&&&&&&&&&&&&",
"&&&&&&&&&&&&&&&&&&&&&&&&&&&&&&&&"
};
