/* XPM */
static const char *__up_1[] = {
/* columns rows colors chars-per-pixel */
"32 64 10 1 ",
"  c black",
". c #271E1E",
"X c #992A2A",
"o c #927C5A",
"O c #D66276",
"+ c #B8937E",
"@ c #D4B688",
"# c #D89DA7",
"$ c #FCEAE0",
"% c None",
/* pixels */
"%%%%%%%%%%           %%%%%%%%%%%",
"%%%%%%%%%  . ..   XXX %%%%%%%%%%",
"%%%%%%%   ......  XXXX  %%%%%%%%",
"%%%%%%  ..  ...   XXXXXX %%%%%%%",
"%%%%% ...  ..... XXXXXXXX %%%%%%",
"%%%% .   ... ..  X XXXXXXX %%%%%",
"%%%...   ......  XX XXXXXXX %%%%",
"%% .     ......  XXXXXX XXXX %%%",
"% .     ........XXXXXXXX XXXX %%",
"%..    .........XXXXXXXXX XXXX %",
"%.    . ........XXXXXXXXX XXXX %",
" .   ...........XXXXXX XXX XXXX ",
"     ...........XXXXXXX XX.XXXX ",
".  . ...........XXXXXXXXXXX XXX ",
". .  ...........XXXXXXXXX X XXX ",
". .  ...........XXXXXXXXX X XXX ",
".   ............XXXXXXXXXX      ",
". $$ ...........XXXXXXXXXX  $$  ",
". $$ ...........XXXXXXXXXXX $$  ",
". $$ ...........XXXXXXXXXXX $$  ",
". $$ ...........XXXXXXXXXXX $$  ",
".  $ ...........XXXXXXXXXXX $ X ",
".    ...........XXXXXXXXXXX   X ",
".    ...........XXXXXXXXXXX  XX ",
".    ...........XXXXXXXXXXX  XX ",
".    ...........XXXXXXXXXXX  XX ",
"..   ...........XXXXXXXXXXX  XX ",
"..   ...........XXXXXXXXXX   XX ",
"..   ...........XXXXXXXXXX   XX ",
"..   ...........XXXXXXXXXXX  XX ",
"..   ...........XXXXXXXXXXX  XX ",
"..   ...........XXXXXXXXXXX  X  ",
"..   ...........XXXXXXXXXXX    %",
"%.   ...........XXXXXXXXXXX    %",
"%%.  ...........XXXXXXXXXXX   %%",
"%%%  ...........XXXXXXXXXX   %%%",
"%%%%  ..........XXXXXXXXXX  %%%%",
"%%%%  ..........XXXXXXXXX   %%%%",
"%%%%% ..........XXXXXXXX $ %%%%%",
"%%%%%  ........ XXXXXXX $$ %%%%%",
"%%%%% $  ...... XXXXX  +$$ %%%%%",
"%%%%%                $$    %%%%%",
"%%%%%%%% ++$$$$$$$$$$$$ %%%%%%%%",
"%%%%%%%%                %%%%%%%%",
"%%%%%%%% o@@@@@@@@@@@@o %%%%%%%%",
"%%%%%%%% o@@@@@@@@@@@@o %%%%%%%%",
"%%%%%%%% o@@@o    @@@@o %%%%%%%%",
"%%%%%%%% o@@@oo  @@@@@. %%%%%%%%",
"%%%%%%%%% @@@@o  @@@@@ %%%%%%%%%",
"%%%%%%%%%              %%%%%%%%%",
"%%%%%%%%% $$$$    $$$$ %%%%%%%%%",
"%%%%%%%%% $$$$    $$$$ %%%%%%%%%",
"%%%%%%%%% $$$$    $$$$ %%%%%%%%%",
"%%%%%%%%% $$$$    $$$$ %%%%%%%%%",
"%%%%%%%%% $$$$    $$$$ %%%%%%%%%",
"%%%%%%%%% $$$$    $$$$ %%%%%%%%%",
"%%%%%%%%% $$$$    $$$$ %%%%%%%%%",
"%%%%%%%%%              %%%%%%%%%",
"%%%%%%%%%  #O      #O  %%%%%%%%%",
"%%%%%%%%%              %%%%%%%%%",
"%%%%%%%%%      %%      %%%%%%%%%",
"%%%%%%%%%%    %%%%    %%%%%%%%%%",
"%%%%%%%%%%%%%%%%%%%%%%%%%%%%%%%%",
"%%%%%%%%%%%%%%%%%%%%%%%%%%%%%%%%"
};
