/* XPM */
static const char *c1_1[] = {
/* columns rows colors chars-per-pixel */
"64 64 12 1 ",
"  c black",
". c #201818",
"X c #271E1D",
"o c #271E1E",
"O c #765C4C",
"+ c #7D6464",
"@ c #BE896E",
"# c #918E8E",
"$ c #FFB891",
"% c gray81",
"& c #FEFFFF",
"* c None",
/* pixels */
"********************      o  o      ****************************",
"********************          o     ****************************",
"********************   o         o    **************************",
"********************       oo  o  o o **************************",
"**********************              o **************************",
"**********************             o  **************************",
"**********************  $$$$$$$$$$ o  **************************",
"**********************   $$$$      oo **************************",
"**********************    $$     $  o **************************",
"********************** &oO$$Oo&& $  o **************************",
"********************** &oo$$oo& $$  o **************************",
"**********************   $$$$  $$   o **************************",
"**********************  $$$$$$    $$ o**************************",
"**********************            $$  **************************",
"********************%%       $            o  *******************",
"*********************%    $$$$     %%oo       ******************",
"****************     o              ##ooooo o  *****************",
"**************   oooooo          #..oooooo  o  o****************",
"*************    ooooo##        #ooooooooo  oo   ***************",
"*************  o  ooooooo      o#ooooooooo  oo   ***************",
"************   o  ooooooooo  ooooooooooooo  ooo   **************",
"************ o o  oooooooooooooooooooooooo   oo  o**************",
"************   o   oooooooooooooooooooooo    ooo  o*************",
"***********    o   ooooooooooooo oooooooo    ooo   *************",
"***********    oo   ooooooooooooo ooooooo     oo    ************",
"***********    oo    oooooooooo o ooooooo     ooo o ************",
"***********    oo    oooooooooo o ooooooo     ooo   ************",
"***********    ooo    ooooooooo o ooooooo      oo    ***********",
"***********    ooo  *  ooooooooo  ooooooo *    ooo   ***********",
"***********o   ooo  *o  oooooooo  ooooooo **    oo    **********",
"************   ooo  **  oooooooo  ooooooo **    oo    **********",
"************   ooo  ***   oooooo o oooooo ***   oo    **********",
"************   ooo  ***   ooooooo  oooooo ****   oo   **********",
"*************  ooo  ****  ooooooo  oooooo ****   ooo   *********",
"*************  ooo  ****   oooooo  ooooo  *****   oo   *********",
"*************  ooo  *****   oooooo ooooo  *****   ooo  *********",
"*************  ooo  **        oooo ooo    ***** $$ ooo $********",
"**************  oo  **                    ***** $$ ooo $********",
"**************  ooo     oooo           ooo        ..... ********",
"*************   ooo    ooooooo     o oooooo             ********",
"**********  .       ooooooooooo   o oooooooo    $$$$    ********",
"********  $$@       oooooooooooo    oooooooo   $$$$$    ********",
"******* $$$$$     $  oooooooooooo   oooooooo  $$$$$$$$ o  ******",
"****** $$$$$$     $$ oooooooo+oooo oooooo+oo  $$$$$$$$ o  ******",
"***** $$$$$ $ $$$$$$$o ooooo+++ooo  oooo+++o  $$$$$$$ oo  ******",
"***** $$$$  $ $$$$$$$  oooooo++ooo  oooooooo  $$$$$   oo  ******",
"***** $$  o  $$$$$$$$$ ooooooooooo  oooooooo  $$$$$  ooo  ******",
"***** $$ oo $$$$$$$$$$ ooooooooooo  oooooooo  $$$$  oooo  ******",
"***** $ ooo  $$$$$$$$$ ooooooooooo  oooooooo       ooooo  ******",
"*****   ooooo $$$$$$$$ ooooooooooo  oooooooo      oooooo  ******",
"******  oooooo           oooooooo ** ooooooo     ooooo+o  ******",
"******  oooooooo          oooooo  **  ooooo      ooo+++o  ******",
"******  oooooooooooo            ******         ooo+++   ********",
"******  o++oooooooooooo         ******   ooooooooo++    ********",
"********   +++oooooooooooooooo    ****    oooooo++  ************",
"********     ++++oooooooooooooo   ****    oooooo++  ************",
"************   ++++ooooooooooo    ****     ooooo  **************",
"************     +o+++oooooo o    ****     ooooo  **************",
"****************          oo      ****       o  ****************",
"****************          o       ****       o  ****************",
"**********************    o       ****        o   **************",
"**********************    o       ****        o   **************",
"**********************  oo      ********      oo  **************",
"**********************  oo      ********       o  **************"
};
