/* XPM */
static const char *c1_1[] = {
/* columns rows colors chars-per-pixel */
"64 64 234 2 ",
"   c #010102",
".  c #0B0003",
"X  c #040309",
"o  c #0B030B",
"O  c #070A0A",
"+  c #14030A",
"@  c #0D0D10",
"#  c #1C0913",
"$  c #141415",
"%  c #161519",
"&  c #1B151B",
"*  c #1B1A1D",
"=  c #23040C",
"-  c #2B0815",
";  c #350D1D",
":  c #24161C",
">  c #1C211F",
",  c #1C1B21",
"<  c #3E0920",
"1  c #291922",
"2  c #381828",
"3  c #1E2022",
"4  c #38252C",
"5  c #470B28",
"6  c #4A1329",
"7  c #55162F",
"8  c #491C32",
"9  c #531A32",
"0  c #67193B",
"q  c #472734",
"w  c #502F3D",
"e  c #4E3A43",
"r  c #5B3646",
"t  c #722B4A",
"y  c #72304D",
"u  c #52414A",
"i  c #694957",
"p  c #77465C",
"a  c #7C4D62",
"s  c #79656D",
"d  c #8D103F",
"f  c #96194D",
"g  c #AF1C56",
"h  c #962955",
"j  c #883157",
"k  c #A7255B",
"l  c #B4225E",
"z  c #BC1D64",
"x  c #9E3360",
"c  c #BB2363",
"v  c #B92866",
"b  c #A83764",
"n  c #B7366C",
"m  c #A33F70",
"M  c #BB3972",
"N  c #C51C62",
"B  c #C32669",
"V  c #C52769",
"C  c #C32B6C",
"Z  c #C4326D",
"A  c #C52D71",
"S  c #CB2E73",
"D  c #D02F76",
"F  c #C43374",
"G  c #CC3275",
"H  c #C33B76",
"J  c #C83A77",
"K  c #CC3C7B",
"L  c #D3367A",
"P  c #D33B7E",
"I  c #D8387B",
"U  c #864964",
"Y  c #954667",
"T  c #86556A",
"R  c #A9426D",
"E  c #A94A73",
"W  c #B84778",
"Q  c #BB4B7B",
"!  c #B25077",
"~  c #8E6E7D",
"^  c #97637A",
"/  c #C8457C",
"(  c #D7417E",
")  c #D43E81",
"_  c #D93D82",
"`  c #BF4B81",
"'  c #987986",
"]  c #B36D8D",
"[  c #CE4582",
"{  c #C94D83",
"}  c #D44483",
"|  c #DA4385",
" . c #D54A85",
".. c #D74A89",
"X. c #DB4C8C",
"o. c #CA5889",
"O. c #D4568A",
"+. c #DB528E",
"@. c #DF4890",
"#. c #DD5491",
"$. c #D45D93",
"%. c #DB5A93",
"&. c #E24B8C",
"*. c #E1538F",
"=. c #E34D90",
"-. c #E45494",
";. c #EA5796",
":. c #E35A96",
">. c #E45C9A",
",. c #EA5D9B",
"<. c #C7618D",
"1. c #D0678F",
"2. c #CA6895",
"3. c #D96699",
"4. c #C8779C",
"5. c #D7759E",
"6. c #E4629C",
"7. c #EA629C",
"8. c #E4699E",
"9. c #DA77A3",
"0. c #DA75A9",
"q. c #E667A1",
"w. c #EA66A1",
"e. c #E56CA3",
"r. c #EB6CA4",
"t. c #EB6EA9",
"y. c #E274A3",
"u. c #EA71A6",
"i. c #EC73A9",
"p. c #E57AAA",
"a. c #EB7BAD",
"s. c #F074AB",
"d. c #F376AB",
"f. c #EE7EB1",
"g. c #908389",
"h. c #AF869A",
"j. c #B691A1",
"k. c #BDA4B0",
"l. c #D583A5",
"z. c #D786A8",
"x. c #DC84AC",
"c. c #DA8DAE",
"v. c #CE93AB",
"b. c #C994AC",
"n. c #DA8BB3",
"m. c #D394B5",
"M. c #DC94B3",
"N. c #D39BB4",
"B. c #DD9AB6",
"V. c #DD9CB9",
"C. c #E587AE",
"Z. c #E490AF",
"A. c #EC83B2",
"S. c #E488B2",
"D. c #EC89B5",
"F. c #EC8CB9",
"G. c #F287B8",
"H. c #E295B6",
"J. c #E894B6",
"K. c #E298B6",
"L. c #ED93BB",
"P. c #E49BBB",
"I. c #E99EBD",
"U. c #F294BC",
"Y. c #F098BD",
"T. c #D6A6BA",
"R. c #DDA3BC",
"E. c #DAAABE",
"W. c #E4A2BE",
"Q. c #EAA1BF",
"!. c #E6A8BF",
"~. c #EA9CC1",
"^. c #F596C3",
"/. c #DDABC1",
"(. c #DAB8C7",
"). c #E6A5C2",
"_. c #EDA4C3",
"`. c #E4ABC4",
"'. c #ECAAC6",
"]. c #E6A9C9",
"[. c #EDADC9",
"{. c #F1A4C3",
"}. c #F2A4C3",
"|. c #F3A4C3",
" X c #F2A3C5",
".X c #F2A4C4",
"XX c #F4A5C5",
"oX c #F1A9C6",
"OX c #F3A5C9",
"+X c #F2AAC9",
"@X c #F4AACA",
"#X c #F2ADCA",
"$X c #F4ACCB",
"%X c #F6ADCD",
"&X c #F9AECD",
"*X c #E3B6C9",
"=X c #E6B4CA",
"-X c #ECB3CC",
";X c #EDB9CE",
":X c #F3B2CD",
">X c #F9B0CE",
",X c #F0B8CF",
"<X c #F6ABD1",
"1X c #ECBCD2",
"2X c #E9B9D4",
"3X c #F4B5D1",
"4X c #F9B7D7",
"5X c #F3BBD3",
"6X c #FFBAE5",
"7X c #DEC5D0",
"8X c #EEC3D6",
"9X c #E8C7D6",
"0X c #ECCCDA",
"qX c #F2C2D6",
"wX c #F3C5D9",
"eX c #FDC3DC",
"rX c #F2CBDC",
"tX c #EDD0DC",
"yX c #F2D1DE",
"uX c #FACBE6",
"iX c #EED4E0",
"pX c #EEDAE3",
"aX c #F3D5E2",
"sX c #F2DBE5",
"dX c #FBD7E9",
"fX c #FFCBF2",
"gX c #FBD9F3",
"hX c #FDDBFA",
"jX c #F8E2EC",
"kX c #FEE5F2",
"lX c #FEE3FC",
"zX c #FEECFD",
"xX c #FFF4FF",
"cX c #FFFCFF",
/* pixels */
".X%X.XP._..X_. XM._.+X}.}..X$X_.Q.+X+XM..X%X_._..X_.H.%XOX%XM._.XX}.#X%XH.M.+X%X.XM..X%X}.}..X+X&X+X@X&XM.@X%X_.M..X%XI.%X@X#XM.",
".X%XM.@X'.I._._._..X%X@X.X}.#XM.%XK.%X_._.H._._.M._._.P._.@X_.}.}.}.%XH..X_._.%X.X_.}.%X.X}.}.%XH.%XQ.&X>X.XM..X_.P.@X}.Q.%X%X_.",
"}..X}..X.X}.}.}..X}..X}..X}..X}..X}.}.}.}.}..X.X_.}.}..X}..X.X}.}.}.}.}..X.X.X}.}.}.}. X}.}.}.}.}.}.}._.}.}.}.}.}..X}.}..X}.}..X",
"}.:X#XP.'..X_._.M._.$X}.}.}.%X_._.@X+XB. X+X}._.'._.P.%XOX#XM.}.}.}.%X#XM.M.#X'._.M..X%X}..X}.$X@X_..X>XM._.#X XM.}.:X}.:X.X#XH.",
"}.:XH..X_.I._..X}.}.%X}.}.}.%XM.%XM.+XI._.H._.+XM..X}.I.'.@X X}.}.}.%XH._._._.%X.X_.}.%X}.}.}.$XM.%XI.%X&X_.M.oX_.P.#X}._.%X%X.X",
"}..XXX}..X.X.X.XXX.XXX}.}.}.'.}..X.X.X X_.XX_. X.X.X.X X.X.X}.}.}.}.XX}..X_..X}..XXX}.XX.X.X}.}.}..X}.oX}.}.}.}.}..XXX}..XXXXXXX",
"}.%X%XK._.@XQ. XM.Q.+X}.}.}.#X.X_.+X@XM..X@X_._..XQ.M.%X_.+XM._.}.}.%X%XM.M.+X+X.XM._.%X}.}.}.@X@X.X.X&XM..X+X_.M.}.%X.X&X_.%XM.",
"}.%XM.}.oXI._..X_.Q.%X}.}.}.#XM.%XK.@XP._.M._.'.M.+X.XI._.%X_.}.}.}.%XK._..X_.%X.X_.}.%X X}.}.&XH.%XP.&X%X_.M.+X_.K.+X_.I.@X%X_.",
"}..X}.}.}..X_.}..X}..X}.}.}..X}._..XXX.X}.}.}.}.}..X.X.X}..X}.}.}.}.}.}..X.X}.}.}..X}..XXX}.}._.}..X}..X}..X_.}.}.}..X_..X.X.X.X",
"}.#X@XP._..X.X}.M.~.%X}.}.}.#X%X_.+X@XM._.%X.X_..X_.K.@X%X%XM.}.}.}.#X%Xc.M.+X@X.XM..X@X}.}.}.%X@XoX@X&XM..X+X_.M..X&X.X%X_.@XM.",
"}.%XM.}..X_._..X.X.X%X.X}.}.#XM.+XH.+XI..XH._._.M._..X_.oX%X}.}.}.}.%XM._.}.Q.#X.X+X.X#XXX}.}.%XK.%XI.&X>X_.M.oX_.P.+X}._.@X$X}.",
"}..XXX.X.X.X.X.X.X.X.X}.}.}.}.}.}..X}.}..X}._.}.}.}..X}.}.XX}.}.}.}.}.}.}.}.oXoX$X#X:X#X'.+XoXoXoX+XoX.X_.}..X.X.X}..X.X.X.X.X.X",
"}.%X#XI._._.'._.M.Q.%X.X.X.X#XoX_.+X@XM.@X+X_._._._.P.%X.X#XH.}.}.}.%X%XP.P.[.:X[.E.:X5X:X:X:X5X5X:X5X3XV.'.'.oXK.'.%X}.%X.X%XK.",
"}.%XM..X.X_._. X_.}.%X}.}.}.#XM.#XM.@X_._.B.'.'.N.'.oX_._.@X.X}.}._.:XV.-X-X-X-X`.-X[.1X5X5X5XwX(.rX2XqXeX#XM.oX_.K.@X}..X@X%X_.",
"}. X}.}.}..X}.}.}._. X}.}.@X'.oX_.oXoX+X[.:X:X3X3X3X#XoX.XXX.X}.@X+X:X5XqX1X=XR.X     X :X5XqX8XdXaXrXwXqX:XoX_. X}. X.XXX}. X}.",
"}.%X>XP.P._.%X_.H..X%X}..XoX5X3X3X-X3XR.5X8XwX*X9XrX1X5X).#XK.oX:X5XuXaX(.E./., / dX<.l.  -Xj.r U 2 * 0X2X;X[..XK._.%X}.#X_.$XK.",
"}.>XH..X_.oX@X_..X_.%XoX[.:X8XT.qX`.wX8X0X(.k.    , rXqX:X:X%X:X3XrXaXw   (.@ M f _ r.L.1..   t { C.J.* 8XwXW.'.'._.oX_.@X@X%XOX",
"}.XX.X}..X}.}.}..X@X@X[.:X1X*XwXwXrXrXrXX iXaXsXsXaXe wX:X+X+X3XrXkX+ sX0X=XX z ].L r.A.w.  M 6.S..X:XJ.  qX5X:X#X+X+X.X}._.}.XX",
"}.#X#XK.P._.:X[.V.:X3X:X3X8XkXaXtXaXu 7XiXiXaX9XiX$ rXwX-X:XR.5XrXs dXdX(.N.% F J v %.f.w.-.=.f.OX3X+XC.X ;X1X5XE.1X5X:X:X_.#XK.",
"}.$XM.}._.'.5X:XwX5XwX5XqXwXaX9XjX  sXiXtX(.aX0X  aXwX1X1X3X;X5XrX  kX0X0X;Xq M K B } u.,.:.>.a.p.U.A.A.$ qX/.8X1X1XwX5X:X:X:X.X",
"}.}.oXoX:X3X5X1X5XqXqXqXqXwXrXs g.jXpXyXsX  : rXrXqX-X[.:X-X-X5X8XrXyX.   ~ `.o =Xc L :.>.>.>.w.>.#.uXO.E.,X'       8X5X5X3X'.@X",
"}.:X3XR.`.-X5X(.X   ; .   i rXiX: jXjX(.8X9X0X(.-X[.K./.~ E.V.5XqXqXrX8XE.E.=X: k l S >.>.;.>.,.#.zXlX,   Y 5.a.4.s.l.. 5X-X3XB.",
".X:XW.-X`.uX3 5.9.xX2XzXx.6.* (.kX7X0X8X1X(.1X=Xv.* 8 O.7.8.y .   1X5Xi     * * * n.c X.=.-.X... .y.% W cXJ.m._.oX-XgX9.T 5X3X[.",
"+X:X-X-X  2.].S.U.I.U.U.wXl.*.  1 qX-X5X    eX'.X A ].2.6.r.y.dXO.    g hXhXlXdX3.X / S ) | ) &.  d D >.G.+X:X%X+XL.A.^.  _.#X[.",
"%XqX5X  { M.S.F.x.L.^.F.A.a.4X$ ;X& * o.q.M.. : cX[ ..q.u.D.y.p.-XcX: H F $.~.3X'.uX- y G   0 1.% - #.a.9.C.C.y.$.:.i.q.2 P.,XR.",
":X5XN.6 4.y.L.L.L.a.a.r.i.a.A.U -XN.y ..i.0.xX. 0. .X.6.A.^.U.D.D.zXeXo [ 8.G.Y.I.V.H.8 - n.X.D.lX^ / r.r.%.F S C A #.>.] '.-X#X",
":X;Xi { 4Xi.f.r.>.-.#.>.r.a.u.E P.X uXI ,.a.M.y 9XS | -.r.i.a.F.A.A.p.; -.-.-.-.w.A./.xX  A | a.n.a.< :._ V y c H S L } U K.'.#X",
":X5Xk.W N.3.r.X.J A 8 n r.i.e.2 _.# J K ..3.F.'.X O._ >...+.M ,.i.A.xXl.- } O.:.#.3.A.kX9.( L i.A.u.2 8.n   : G v V [ b & V.3XP.",
":X3XB.. R X.X.} } [ I.  ,.:./ X T.h } #.} [ a.C.. $ _ 6.w.1   xXw.a.G.zX   .o.& / :.a.W.cX  S #.X.D./ r.2.J.    c B ] 9X5X`.3X$X",
"#X[.).h.k c . 1.,.n.q h ;.P   X   G._ >.j G.3.A.5.  H :.7.Y L.  :.a.f.9.  +.O.M.  ].a.G.5.  B C S X / ,.7.s.u.xXX t . :X`.-X[.+X",
"+X:X:XB.N.@ > <X:.:.* u.-.X.6X3.& M.:.3.= x -.y.9.> 6Xe.>.o.M.  lXi.A.$.  #.E b.3X{ i.G.s.  0 , , * / r.+.}  .8.y V.[.[.1X`.3XI.",
"}.%XB.).W.W.# H 6.,.:.) &.,.a.6.uXo 6.e.@ o ^.y.e.! ! r.t.o.W.: cXr.u.M   #.l.w ).t r.f.r.  n E { & / r.- ^ f.H . W.5X`.1X5X5X'.",
"}.oXoX-X-X[.V.W ,.,._ c m.&.r.s.3.+.t :.  U.5 w.i.zX  ,.,.n ~   2Xq.=.c X >.hX  Q./ w.r.w.  ^.G 3.p n ,.9 M.U   '.  m.- q ;X5X:X",
"}.%X3X`.`.R.].+ %.7.Y     W 9.A.a.4X, [ # E Q %.6.%.  r.%.G.: 5 7.:.+.fX. #.A.# 2 hXw.i.x.  ^.X.a.fX` i.< H.M.P.+ 6Xw.^.a ;XwX-X",
"}.:XW.[.R.u & @ $.6.$.] J.  ].3.u.Q * #.X.} :.>.#.:.6 6.r.r.X lX>.| [ n Q >.r.$ j >.7.8.{   2.#.q.xXy r.w 1 .     } i.r.`., 5X5X",
".X#X[.'.o f 2X5.7.>.].  T E 3.w.,.8.  | L G G &.X._ <. .>.>.3.;.X.S lX  ,.>.,.9 8.7.:.| 0 T ! ..t.xX= ;.OXG.hX4.>.w.i.u.<.o '.-X",
"+X5X5XV.5 C >.6.:.6.<XX j $.i.r.:.1X* Z ~.R   t ) } hXY %.r.+.| G C Z 2 %.:.fXi.r.%...F.  T E 6.f.zX1 >.+.+.%.6.6.r.A.r.q.x T.`.",
"+X5XN.  W K #.8.6.,.u.H.7.w.w.P O.t { O o v.P.< C } v w r.6.) S B c * K >.6.i.r.w.[ H 1 K.r ! >.>.4X9 | ..#.} X.#.:.r.X. .{ h.-X",
"oX-X`.  4Xv I -.,.,.7.7.>.X.P L l . V : !.X `.  C C z W _ L A B C X A &.=.=.&.&.P v h a W.@ ~.P @.n k V S S S D G G C c ] = P.-X",
"oX:X-X  k v | ..+.-.q.| P G K M * [ 0 T.=X(.N.  b s.. ) M } v n X   / | F S }  .1.- r *X`.  6X} X.Y G K v v v B c f gXk H X `.`.",
"+X:XR.B.+ W J L G L ..A C lXM X J v * `.=X/.X 3XX ] # # / { X T Z.. W C c c F./ % h.X : T.4 l v F * Q H F J l c l c M 0 , W.`.'.",
"oX[.[.W.+ h N B B V V 4XB 5         V.j.  p ).< p.^.b.7.. _.P.W.`.`.+   7 +     i =X8X0XaX5XX 6   x.C.^ +           ^ l.M._.'.'.",
"}.:X:X).M.# % l 3.k W     Z.Q.`.-XN.1 E 3.<XX %.S. XA.i.O -X`.8XwX  ' ).M.H.W.5X8X0XyXaX0X4 `.).I.P.).I.c.z.4.c.c.c.W.P.[.W.:X'.",
"}.%XV.).)._.m.s     R.c.K.W.=XT.`.m.R { i.e.>.6.p.G.e.2., 5X8X0X+ rX0X*X`.`.8X9XrX0XyXaX  0X;X:XW.#X[.[.V.'.M.W.W.Q.[..X:X'.$X_.",
"}.XXoXoXoX'._.Q.W.W.W._.'.'.#X[.).c.l A =.r.7.7.r.7.+.xX+ ;XwX  aXaXyXrXrXrX0XrXyXaX(.  rX8X;X#XoXoX'.oXoX.X'.oXoX'..X_..X_.}.XX",
"}.:X%X_.W.P.:X`.'.'.:X'.oXoX:X#XW.z.# l C [ 6.6.3.q.*.y H.5X1XdX: aXdXaX9X9XaX' & e yXtXwX5X#X$X:X%X%X#XP.P.M._.W._.$X.X%XP.@X_.",
"}.$XK.Q._.:X).'.#X[.3X_..X.X#XB.'.z.[.h B c L +...+.+.N.+X5X2XwXrXkXu $ : j.kX0XaX9X8XqX3X#XoX%XQ.@X%X%XQ.+XK._._._.%X.X%X+X%X_.",
"}.XX.X.X}..X XXXXX}..X}.}.}.}..X_.P.x.h.b g V S L >.. J._.[.:X3XqXwXrXrXrXrXrXwXqX5X:X:X+X.X}..X.X}.}.XX.X}.XX.X}.}.XX}.}.}.XXXX",
"}.%X%XI.I.H.+X_._._.%X}.}.}.#X:X'.P._.l.9.o c c B : 9._.V.:X_.[.:X3XwX5X=X-X-X5X3X'.oX%X}.}..X%X%X#X%X@XI.I.K._.I._.%X}.%XP.%X_.",
"}.%XK.Q._.@X_._._._.&X.X}.}.#XH.%XK.#XK.Z.2.p.o m D.H.'.%X%X_..X@XoX-X'.'._.:X).%X_._..X}.}.}.@XI.%X+X%X_.oXK._.I.Q.%X}.+X.X#X~.",
"}..X}.}..X}..X}.}.}.}.}.}.}.}..X}..X_._.I.H.c.x.  H.~._._.}..X}.}.}.}..X}.}..X}..X.X}.}.}.}.}..X.X}..X.X}..X}..X}.}.}.}.}.}..X.X",
"}.%X&XI.I.M.@X_.I. X&X}.}.}.#X%X+XI.#XI._.K.Q.P.W.[._.#XM.#X_.}.}.}.:X&XQ.I._.+X@X_._.%X}.}..X+X@X%X.X%XI.I.M._._._.%X.X%XP.%X_.",
"}.+XH._._.%X_._._..X%X_.}.}.#XK.%XP.:XQ._.M.#X).W.$X'.%X%X:X_.}.}.}.#XP._._.>X_.+X_..X+X}.}.}.%XQ.%X+X%X_.+XK..X_._.>X.X%X_.'._.",
"}.}.}..X}.}._.}..X}.}.}.}.}.}.}.}.}..X.X}..XXX+X+X_.}.}.}..X.X}.}.}.}.}.}.}.}..X}..X}.}.}.}.}.}.}..X.X}.}.}.}.}.}.}.}.}.}.}.}.}.",
"}.#X&XI._.M.&X_._..X&X}.}.}.#X&X+XP.@XQ._.K. X_.I.#X X+XH.#X_.}.}.}.%X&XI.I._.&X@X_.}.+X}.}.}.%X%X%X@X%X_.Q.H._._._.%X.X%XH.%X_.",
"}.%XK.I._.@X_._._._.&X}.}.}.#XM.%XP.:X_._.K._._.I.&X.X>X$X@X_.}.}.}.@X_._.P.%X_.@X_.}.@X_.}..X%X_.%X@X#XI.+XK._._._.%X_.%X_.%X_.",
"}.XX}.}.}..X}..X}..X.X}.}.}.}..X.X_.}.}.}.}..X}._.}.}.}..X}.XX}.}.}.}..X}.}..X}.}.}.}..X}.}.}.}..X.X}.}.}.}.}.}..X}. X}.}..X}.XX",
"}.%X&X_._.H.%X_._.}.%X}.}.}.%X#X#XI.:X_._.B..X_._.%X}.%XM.#X_.}.}.}.:X>XQ._..X>X+X}..X%X}.}.}.#X@X%X%X%X_.Q.B._._._.%X.X%XP.#X.X",
"}.:XI.I.Q.&XP._._..X>XI.}.}.&XP.%XI.&XI._.I.}.I.~.%X_.&X@X@X_.}.}.}.@XQ.I.I.&XW.+XI..X+X_.}..X>X_.%X@X%XI.@XP..XI._.%X}.%XOX+XI.",
"}.XXXX.X.X.X.XXX X}..X}.}.}.}.}.XX}.XX X}.}..X}.}..X}.}.}.}.}.}.}.}.XX.X.X.X}..X}. X.XXX}.}.}.XX.XXX.XXX}..XXX.X.X.XXX}.XX}.}.}.",
"}.#X%X}._.M.%X_.oX.X%X}.}.}.%X%X+XP.@X+X_.K._._._.&X}.+XM.@X_.}.}.}.%X@X_._._.%X@XoX_.%X}.}..X%X%X%X%X%X_._.M..X_._.%X}.%XP.%X.X",
"}.#XQ._._.%XP._.I._.%X.X}.}.$XP.%XI.#XP..XI._.W.I.'..X>X:X%XI.}.}.}.%X_.Q.I.&XK.@XI._.#X}.}.}.%X_.%X%X%XK.+XI._._.}.%X_.%X_.@XQ.",
"}. X_..X}.}.}.}.}.}.}.}.}.}.}._..X}.}.}.}.}.}.}.}.}.}.}.}._._.}.}.}.}.}.}..X}.}.XX}.}.}.}.}.}._.}.}.}.}._.}._.}._.}.}._.}.}._. X",
"}.$X&X_._.c.&X_..X_.%X}.}.}.%XoX%XP.:X+X_.M._._.I.%X.X%XM.#X_.}.}.}.:X%X_..X_.+X@X_._.#X}.}..X%X+X@X@X+X_._.M._.+X_.%X}.%XK.&X.X"
};
