/* XPM */
static const char *c2_1[] = {
/* columns rows colors chars-per-pixel */
"64 64 146 2 ",
"   c #010101",
".  c #0C0101",
"X  c #050807",
"o  c #060508",
"O  c #0F040A",
"+  c #07090A",
"@  c #0B0B0C",
"#  c #0B0905",
"$  c #170000",
"%  c #180000",
"&  c #0D0E10",
"*  c #111112",
"=  c #161518",
"-  c #1B1A1C",
";  c #232323",
":  c #2B2D2C",
">  c #2F3231",
",  c #333434",
"<  c #363937",
"1  c #353739",
"2  c #373A39",
"3  c #3A3B3B",
"4  c #520000",
"5  c #640505",
"6  c #78090E",
"7  c #4B392A",
"8  c #3C403F",
"9  c #504839",
"0  c #3E4141",
"q  c #424243",
"w  c #454847",
"e  c #444648",
"r  c #464A48",
"t  c #4C4C4C",
"y  c #5A5A5B",
"u  c #535355",
"i  c #626465",
"p  c #777A79",
"a  c #7D7E7F",
"s  c #747876",
"d  c #900A07",
"f  c #A70D0E",
"g  c #A90B0A",
"h  c #B60202",
"j  c #B90101",
"k  c #B00806",
"l  c #BF0F0E",
"z  c #A10911",
"x  c #BB131D",
"c  c #BF1721",
"v  c #BE1D21",
"b  c #BF2122",
"n  c #C30000",
"m  c #C90002",
"M  c #C1191C",
"N  c #C2171C",
"B  c #C5292C",
"V  c #CA2D37",
"C  c #C6353D",
"Z  c #CB343C",
"A  c #C13B39",
"S  c #D23338",
"D  c #B33E44",
"F  c #CF2C4A",
"G  c #D02C4A",
"H  c #CB3442",
"J  c #CD3D46",
"K  c #B54246",
"L  c #AD6A4C",
"P  c #B06B4F",
"I  c #AD6C50",
"U  c #CB464B",
"Y  c #D14D4E",
"T  c #D6525B",
"R  c #D96A6F",
"E  c #D97275",
"W  c #E1787F",
"Q  c #BC876F",
"!  c #BD8871",
"~  c #BB9B77",
"^  c #C6A873",
"/  c #DF7F85",
"(  c #808080",
")  c #8B8B8C",
"_  c #9B9E9D",
"`  c #9C9FA1",
"'  c #A3A5A4",
"]  c #ABABAC",
"[  c #B4B5B4",
"{  c gray72",
"}  c #DE8990",
"|  c #E08383",
" . c #E58B8C",
".. c #E18F90",
"X. c #E6BF90",
"o. c #E5A8A7",
"O. c #ECA2A5",
"+. c #EFACB4",
"@. c #E7B9B8",
"#. c #EFB9BA",
"$. c #E9B1B5",
"%. c #BDC0BF",
"&. c #EDC48F",
"*. c #EFCC9B",
"=. c #F3C792",
"-. c #F1C892",
";. c #F2CD99",
":. c #F0D0A9",
">. c #E9BEC2",
",. c #BFC3C2",
"<. c #C5C7C6",
"1. c #CED0CF",
"2. c #D5D7D7",
"3. c #DBDBDC",
"4. c #EFC7C9",
"5. c #F1CFD0",
"6. c #EDD5D8",
"7. c #EDDCDA",
"8. c #F2DCDD",
"9. c #F0D3D2",
"0. c #F8DDE0",
"q. c #DCE1E1",
"w. c #E1E1E2",
"e. c #E9EBED",
"r. c #EEE3E1",
"t. c #F3E4E3",
"y. c #F0ECE7",
"u. c #F5E6E9",
"i. c #F3ECEC",
"p. c #F9E5EA",
"a. c #F2F1EF",
"s. c #EFF0F2",
"d. c #F5F4F4",
"f. c #F8FAF7",
"g. c #F6F5F8",
"h. c #F7FDFD",
"j. c #F8FDFE",
"k. c #F9FCFE",
"l. c #FAFEFE",
"z. c #FDFFFF",
"x. c #FCFFFE",
"c. c #FEFFFF",
"v. c #FDFFFF",
"b. c #FAF2F4",
"n. c None",
"m. c black",
/* pixels */
"n.n.n.n.n.n.n.n.n.n.n.n.n.n.n.n.n.n.n.n.n.n.n.n.n.n.n.n.n.n.n.n.n.n.n.n.n.n.n.n.n.n.n.n.n.n.n.n.n.n.n.n.n.n.n.n.n.n.n.n.n.n.n.n.",
"n.n.n.n.n.n.n.n.n.n.n.n.n.n.n.n.n.n.n.n.n.n.n.n.n.n.n.n.n.n.n.n.n.n.n.n.n.n.n.n.n.n.n.n.n.n.n.n.n.n.n.n.n.n.n.n.n.n.n.n.n.n.n.n.",
"n.n.n.n.n.n.n.n.n.n.n.n.n.n.n.n.n.n.n.n.n.n.n.n.n.n.n.n.n.n.n.n.n.n.n.n.n.n.n.n.n.n.n.n.n.n.n.n.n.n.n.n.n.n.n.n.n.n.n.n.n.n.n.n.",
"n.n.n.n.n.n.n.n.n.n.n.n.n.n.n.n.n.n.n.n.n.n.n.n.n.n.n.n.n.n.n.n.n.n.n.n.n.n.n.n.n.n.n.n.n.n.n.n.n.n.n.n.n.n.n.n.n.n.n.n.n.n.n.n.",
"n.n.n.n.n.n.n.n.n.n.n.n.n.n.n.n.n.n.n.n.n.n.n.n.n.n.n.n.n.n.n.n.n.n.n.n.n.n.n.n.n.n.n.n.n.n.n.n.n.n.n.n.n.n.n.n.n.n.n.n.n.n.n.n.",
"n.n.n.n.n.n.n.n.n.n.n.n.n.n.n.n.n.n.n.n.n.n.n.n.n.n.n.n.n.n.n.n.n.n.n.n.n.n.n.n.n.n.n.n.n.n.n.n.n.n.n.n.n.n.n.n.n.n.n.n.n.n.n.n.",
"n.n.n.n.n.n.n.n.n.n.n.n.n.n.n.n.n.n.n.n.n.n.n.n.n.n.n.n.n.n.n.n.n.n.n.n.n.n.n.n.n.n.n.n.n.n.n.n.n.n.n.n.n.n.n.n.n.n.n.n.n.n.n.n.",
"n.n.n.n.n.n.n.n.n.n.n.n.n.n.n.n.n.n.n.n.n.n.n.n.n.n.n.n.n.n.n.n.n.n.n.n.n.n.n.n.n.n.n.n.n.n.n.n.n.n.n.n.n.n.n.n.n.n.n.n.n.n.n.n.",
"z.z.z.z.z.z.z.z.z.z.z.z.z.z.z.z.z.z.z.z.z.z.z.z.z.z.z.z.z.z.z.z.z.z.z.z.z.z.z.z.z.z.z.z.z.z.z.z.z.z.z.z.z.z.z.z.z.z.z.z.z.z.z.z.",
"z.z.z.z.z.z.z.z.z.z.z.z.z.z.z.z.z.z.z.z.z.z.z.z.z.z.z.z.z.z.z.z.z.z.z.z.z.z.z.z.z.z.z.z.z.z.z.z.z.z.z.z.z.z.z.z.z.z.z.z.z.z.z.z.",
"z.z.z.z.z.z.z.z.z.z.z.z.z.z.z.z.z.z.z.z.z.z.z.z.z.z.z.z.j.j.z.z.z.z.z.z.z.z.z.z.z.z.z.z.z.z.z.z.z.z.z.z.z.z.z.z.z.z.z.z.z.z.z.z.",
"z.z.z.z.z.z.z.z.z.z.z.z.z.z.z.z.z.z.z.z.z.z.z.z.z.z.z.j.j.z.z.j.z.z.z.z.z.z.z.z.z.z.z.z.z.z.z.z.z.z.z.z.z.z.z.z.z.z.z.z.z.z.z.z.",
"z.z.z.z.z.z.z.z.z.z.z.z.z.z.z.z.z.z.z.z.z.z.z.z.j.z.z.j.j.z.z.j.z.z.z.z.z.z.z.z.z.z.z.z.z.z.z.z.z.z.z.z.z.z.z.z.z.z.z.z.z.z.z.z.",
"z.z.z.z.z.z.z.z.z.z.z.z.z.z.z.z.z.z.z.z.z.z.z.j.j.z.j.z.j.j.j.j.z.z.z.z.z.z.z.z.z.z.z.z.z.z.z.z.z.z.z.z.z.z.z.z.z.z.z.z.z.z.z.z.",
"z.z.z.z.z.z.z.z.z.z.z.z.z.z.z.z.z.z.z.z.z.z.z.z.z.h.j.j.z.j.j.z.z.z.z.z.z.z.z.z.z.z.z.z.z.z.z.z.z.z.z.z.z.z.z.z.z.z.z.z.z.z.z.z.",
"z.z.z.z.z.z.z.z.z.z.z.z.z.z.z.z.z.z.z.z.z.z.z.z.z.j.j.j.j.j.z.z.z.z.z.z.z.z.z.z.z.z.z.z.z.z.z.z.z.z.z.z.z.z.z.z.z.z.z.z.z.z.z.z.",
"z.z.z.z.z.z.z.z.z.z.z.z.z.z.z.z.z.z.z.z.z.z.z.z.j.j.j.z.j.j.z.z.z.z.z.z.z.z.z.z.z.z.z.z.z.z.z.z.z.z.z.z.z.z.z.z.z.z.z.z.z.z.z.z.",
"z.z.z.z.z.z.z.z.z.z.z.z.z.z.z.z.z.z.z.z.z.z.z.j.j.j.j.j.j.z.z.z.z.z.j j j j j j j j j 8.z.z.z.z.z.z.z.z.z.z.z.z.z.z.z.z.z.z.z.z.",
"z.z.z.z.z.z.z.z.z.z.z.z.z.z.z.z.z.z.z.z.j.z.z.j.j.z.z.j.j.j.z.z.z.z.j     -.-.-.-.-.j z.z.z.z.z.z.z.z.z.z.z.z.z.z.z.z.z.z.z.z.z.",
"z.z.z.z.z.z.z.z.z.z.z.z.z.z.z.z.z.z.z.z.j.j.z.z.j.j.k.j.z.j.z.z.z.v         -.-.    j z.z.z.z.z.z.z.z.z.z.z.z.z.z.z.z.z.z.z.z.z.",
"z.z.z.z.z.z.z.z.z.z.z.z.z.z.z.z.z.z.z.z.j.j.j.j.z.j.j.j.z.j.z.z.z.j o L   =.-.      O.z.z.z.z.z.z.z.z.z.z.z.z.z.z.z.z.z.z.z.z.z.",
"z.z.z.z.z.z.z.z.z.z.z.z.z.z.z.z.z.z.z.z.z.z.j.j.j.z.z.z.j.z.z.z.o.d L I L -.      j z.z.z.z.z.z.z.z.z.z.z.z.z.z.z.z.z.z.z.z.z.z.",
"z.z.z.z.z.z.z.j T z.z.z.z.z.z.z.j j @.z.z.j.j.z.Z Z j j j 7.z.z.j       -.X.      j j j M z.z.z.z.z.z.j j z.z.z.j j z.z.z.z.z.z.",
"z.z.z.z.z.z.j   j c z.z.z.z.z.j j   j 9.j.j.j.Z           j 5.d.j -.-.-.-.-.            j V z.z.z.z.j   j z.z.j g   j z.z.z.z.z.",
"z.z.z.z.z.j   {   j W z.z.z.j j       j h.j.j 3 <           j j   -.-.-.-.-.    3.  3 p   n  .z.z.j     j z.j h       h z.z.z.z.",
"z.z.z.z.j   *       j t.z.j j   3 [ @   Z Z   @   o   o -     j       -.-.-.  ]     t   ,   j 4.j   8   j j h ;     ;   j z.z.z.",
"z.z.z.j           o   j j j o   < > 0 o 3 Z Z 3           o           ~ -.-.;.          )     j n   =   j j       o       j z.z.",
"z.z.t.  y       o o     j   +   J 3 r 8 8 j j .       j   @         L L &.  7   d.o           j n   s   j   o - j         j z.z.",
"z.z.u.  e.    j   1.    j       j D o 8 8 Z S .       j f ; s     L     -.      &   -.    @   j n 3 q.3 j   *   j j     j  .z.z.",
"z.z.u.  -     j         j       Z Z   @   h j .       j f o w 3 L L     -.      @     j   @   j H z.e 3 Z 3     j j j h } z.z.z.",
"z.z.u.    o           6 j   o   Z Z 3 3 3 j j .       j f o 0 3 3 3     -.      `   O j   q   j Z , @ q Z 3 3   4 4 4 4 4 #.z.z.",
"z.z.y.  y o         5 j j o     Z Z 3   3 j j . @ u   j f - ]   9 3 3 =.-.      @   j j   1 3 Z m 3 r 3 Z   3           j z.z.z.",
"z.z.i.      X   ;   j j j @ o 3 3     3   j j . =     j K 3 q 3 :.:.:.:.&.          j j     < Z Z 3.  3 Z   3         j z.z.z.z.",
"z.z.i.    o s.        j j   , 3 3 3       j j . ; @   j 2 3 3 3   q 3 *.    ^   s.  j j       Z Z 3 <   j 3         j u.z.z.z.z.",
"z.z.i.    o @     o *   j   3 3   * 0     j j . - )   j z   r 3 Z     -.-.-.-.  y   j j     : Z n   3   j       j j j j r.z.z.z.",
"z.z.i.    o   j     3 3 h   3 < C C 3 o   j j .       j f ,   o Z ! Q L -.-.        j j     , Z F i ,   j       h j     j t.z.z.",
"z.z.d.    +   j   ' q 3 Z 3 3.3 Z Z       j j .   o   j           @ L L -.  h   <.  j j r 3   Z G 0     j     ] $     -   j f.z.",
"z.z.j     =     w.      H 3 3 o g j   ;   % j           o         L     -.# j   [   h     3 ,.Z   _     j         3.@   o j d.z.",
"z.i.    @ @     ` 3 3 Z , 3 3 ' 3           &             z.  j           j   w.      2 3 < 3 3 < ( y     j     o       j +.z.z.",
"z.z.j     .       3 Z g.h < %.3 j j       j j           a   j   -.-.    j / .   e.    : 3 3 U j     o   j a.j         j Y z.z.z.",
"z.z.z.j       o   j j.j.j.j   j C B j   j | z.j   q *     j j     -.-.j  .z.l   2.  3 ,   H j.j.j     j j.z.z.j     j b z.z.z.z.",
"z.z.z.z.j j j j j z.z.z.j.6.Z R z.z.N j ..z.z.z.j j j j j >.j P       j z.z.z.v j Z H Z j j.z.z.z.j j z.z.z.z.z.j j E z.z.z.z.z.",
"z.z.z.z.z.z.z.z.z.z.z.z.z.z.z.z.z.z.z.z.z.z.z.z.z.z.z.z.z.A   o     j z.z.z.z.z.z.j.j.z.z.h.z.z.z.z.z.z.z.z.z.z.z.p.z.z.z.z.z.z.",
"z.z.z.z.z.z.z.z.z.z.z.z.z.z.z.z.z.z.z.z.z.z.z.z.z.z.z.z.z.j   I   h 0.z.z.z.z.z.z.z.j.j.j.j.z.z.z.z.z.z.z.z.z.z.z.z.z.z.z.z.z.z.",
"z.z.z.z.z.z.z.z.z.z.z.z.z.z.z.z.z.z.z.z.z.z.z.z.z.z.z.z.z.j   L   j z.z.z.z.z.j.j.j.j.j.j.z.z.z.z.z.z.z.z.z.z.z.z.z.z.z.z.z.z.z.",
"z.z.z.z.z.z.z.z.z.z.z.z.z.z.z.z.z.z.z.z.z.z.z.z.z.z.z.z.$.      j z.z.z.z.z.z.k.j.j.z.z.z.z.z.z.z.z.z.z.z.z.z.z.z.z.z.z.z.z.z.z.",
"z.z.z.z.z.z.z.z.z.z.z.z.z.z.z.z.z.z.z.z.z.z.z.z.z.z.z.z.j     j l.z.z.z.j.j.j.j.j.z.z.z.z.z.z.z.z.z.z.z.z.z.z.z.z.z.z.z.z.z.z.z.",
"z.z.z.z.z.z.z.z.z.z.z.z.z.z.z.z.z.z.z.z.z.z.z.z.z.z.z.z.h   j x z.z.z.j.j.z.j.j.j.j.z.z.z.z.z.z.z.z.z.z.z.z.z.z.z.z.z.z.z.z.z.z.",
"z.z.z.z.z.z.z.z.z.z.z.z.z.z.z.z.z.z.z.z.z.z.z.z.z.z.z.8.  # j z.z.z.j.j.j.j.z.z.j.j.j.z.z.z.z.z.z.z.z.z.z.z.z.z.z.z.z.z.z.z.z.z.",
"z.z.z.z.z.z.z.z.z.z.z.z.z.z.z.z.z.z.z.z.z.z.z.z.z.z.z.j   j z.z.z.z.j.j.j.j.j.j.z.z.j.z.z.z.z.z.z.z.z.z.z.z.z.z.z.z.z.z.z.z.z.z.",
"z.z.z.z.z.z.z.z.z.z.z.z.z.z.z.z.z.z.z.z.z.z.z.z.z.z.z.k j | z.z.z.z.z.j.z.z.j.j.j.j.z.z.z.z.z.z.z.z.z.z.z.z.z.z.z.z.z.z.z.z.z.z.",
"z.z.z.z.z.z.z.z.z.z.z.z.z.z.z.z.z.z.z.z.z.z.z.z.z.z.b.. j z.z.z.z.z.z.z.z.z.z.z.j.z.z.z.z.z.z.z.z.z.z.z.z.z.z.z.z.z.z.z.z.z.z.z.",
"z.z.z.z.z.z.z.z.z.z.z.z.z.z.z.z.z.z.z.z.z.z.z.z.z.z.j j z.z.z.z.z.z.z.z.z.z.z.z.z.z.z.z.z.z.z.z.z.z.z.z.z.z.z.z.z.z.z.z.z.z.z.z.",
"z.z.z.z.z.z.z.z.z.z.z.z.z.z.z.z.z.z.z.z.z.z.z.z.z.z.j.j.z.z.z.z.z.z.z.z.z.z.z.z.z.z.z.z.z.z.z.z.z.z.z.z.z.z.z.z.z.z.z.z.z.z.z.z.",
"z.z.z.z.z.z.z.z.z.z.z.z.z.z.z.z.z.z.z.z.z.z.z.z.z.z.z.z.z.z.z.z.z.z.z.z.z.z.z.z.z.z.z.z.z.z.z.z.z.z.z.z.z.z.z.z.z.z.z.z.z.z.z.z.",
"z.z.z.z.z.z.z.z.z.z.z.z.z.z.z.z.z.z.z.z.z.z.z.z.z.z.z.z.z.z.z.z.z.z.z.z.z.z.z.z.z.z.z.z.z.z.z.z.z.z.z.z.z.z.z.z.z.z.z.z.z.z.z.z.",
"z.z.z.z.z.z.z.z.z.z.z.z.z.z.z.z.z.z.z.z.z.z.z.z.z.z.z.z.z.z.z.z.z.z.z.z.z.z.z.z.z.z.z.z.z.z.z.z.z.z.z.z.z.z.z.z.z.z.z.z.z.z.z.z.",
"z.z.z.z.z.z.z.z.z.z.z.z.z.z.z.z.z.z.z.z.z.z.z.z.z.z.z.z.z.z.z.z.z.z.z.z.z.z.z.z.z.z.z.z.z.z.z.z.z.z.z.z.z.z.z.z.z.z.z.z.z.z.z.z.",
"z.z.z.z.z.z.z.z.z.z.z.z.z.z.z.z.z.z.z.z.z.z.z.z.z.z.z.z.z.z.z.z.z.z.z.z.z.z.z.z.z.z.z.z.z.z.z.z.z.z.z.z.z.z.z.z.z.z.z.z.z.z.z.z.",
"z.z.z.z.z.z.z.z.z.z.z.z.z.z.z.z.z.z.z.z.z.z.z.z.z.z.z.z.z.z.z.z.z.z.z.z.z.z.z.z.z.z.z.z.z.z.z.z.z.z.z.z.z.z.z.z.z.z.z.z.z.z.z.z.",
"n.n.n.n.n.n.n.n.n.n.n.n.n.n.n.n.n.n.n.n.n.n.n.n.n.n.n.n.n.n.n.n.n.n.n.n.n.n.n.n.n.n.n.n.n.n.n.n.n.n.n.n.n.n.n.n.n.n.n.n.n.n.n.n.",
"n.n.n.n.n.n.n.n.n.n.n.n.n.n.n.n.n.n.n.n.n.n.n.n.n.n.n.n.n.n.n.n.n.n.n.n.n.n.n.n.n.n.n.n.n.n.n.n.n.n.n.n.n.n.n.n.n.n.n.n.n.n.n.n.",
"n.n.n.n.n.n.n.n.n.n.n.n.n.n.n.n.n.n.n.n.n.n.n.n.n.n.n.n.n.n.n.n.n.n.n.n.n.n.n.n.n.n.n.n.n.n.n.n.n.n.n.n.n.n.n.n.n.n.n.n.n.n.n.n.",
"n.n.n.n.n.n.n.n.n.n.n.n.n.n.n.n.n.n.n.n.n.n.n.n.n.n.n.n.n.n.n.n.n.n.n.n.n.n.n.n.n.n.n.n.n.n.n.n.n.n.n.n.n.n.n.n.n.n.n.n.n.n.n.n."
};
