/* XPM */
static const char *c3_1[] = {
/* columns rows colors chars-per-pixel */
"64 64 72 1 ",
"  c black",
". c #020200",
"X c #0E0A01",
"o c #0F0B04",
"O c #342915",
"+ c #402E0D",
"@ c #4A350B",
"# c #433011",
"$ c #795716",
"% c #9D7102",
"& c #9E7204",
"* c #A27504",
"= c #A07308",
"- c #A17409",
"; c #A2750C",
": c #A3750D",
"> c #A57710",
", c #A67711",
"< c #A77814",
"1 c #A87916",
"2 c #AC7C17",
"3 c #A87918",
"4 c #A97A18",
"5 c #AB7B1A",
"6 c #AC7B1C",
"7 c #AD7C1F",
"8 c #AE7D20",
"9 c #AF7E23",
"0 c #B07F25",
"q c #B6830E",
"w c #B28028",
"e c #B28029",
"r c #B4832D",
"t c #B4832E",
"y c #B68732",
"u c #B68733",
"i c #B88A38",
"p c #B98B39",
"a c #BA8D3D",
"s c #BB8E3F",
"d c #BC8E3F",
"f c #BC9143",
"g c #BE9245",
"h c #BE9345",
"j c #BE9448",
"k c #B1935B",
"l c #C0964C",
"z c #C0984D",
"x c #C69B4F",
"c c #C39A52",
"v c #C29B53",
"b c #C49F58",
"n c #C59E59",
"m c #C7A25D",
"M c #C8A25F",
"N c #D8AA5B",
"B c #C9A563",
"V c #CAA766",
"C c #CBA866",
"Z c #CDAA69",
"A c #CDAA6B",
"S c #CEAB6C",
"D c #CEAB6D",
"F c #CFAC6F",
"G c #D3AF6C",
"H c #D0AD6F",
"J c #D1AE71",
"K c #D2AF72",
"L c #D2AF73",
"P c #D7B270",
"I c #D4B175",
"U c None",
/* pixels */
"UUUUUUUUUUUUUUUUUUUUUUUUUUUUUUUUUUUUUUUUUUUUUUUUUUUUUUUUUUUUUUUU",
"UUUUUUUUUUUUUUUUUUUUUUUUUUUUUUUUUUUUUUUUUUUUUUUUUUUUUUUUUUUUUUUU",
"UUUUUUUUUUUUUUUUUUUUUUUUUUUUUUUUUUUUUUUUUUUUUUUUUUUUUUUUUUUUUUUU",
"UUUUUUUUUUUUUUUUUUUUUUUUUUUUUUUUUUUUUUUUUUUUUUUUUUUUUUUUUUUUUUUU",
"UUUUUUUUUUUUUUUUUUUUUUUUUUUUUUUUUUUUUUUUUUUUUUUUUUUUUUUUUUUUUUUU",
"UUUUUUUUUUUUUUUUUUUUUUUUUUUUUUUUUUUUUUUUUUUUUUUUUUUUUUUUUUUUUUUU",
"UUUUUUUUUUUUUUUUUUUUUUUUUUUUUUUUUUUUUUUUUUUUUUUUUUUUUUUUUUUUUUUU",
"UUUUUUUUUUUUUUUUUUUUUUUUUUUUUUUUUUUUUUUUUUUUUUUUUUUUUUUUUUUUUUUU",
"UUUUUUUUUUUUUUUUUUUUUUUUUUUUUUUUUUUUUUUUUUUUUUUUUUUUUUUUUUUUUUUU",
"UUUUUUUUUUUUUUUUUUUUUUUUUUUUUUUUUUUUUUUUUUUUUUUUUUUUUUUUUUUUUUUU",
"UUUUUUUUUUUUUUUUUUUUUUUUUUUUUUUUUUUUUUUUUUUUUUUUUUUUUUUUUUUUUUUU",
"UUUUUUUUUUUUUUUUUUUUUUUUUUUUUUUUUUUUUUUUUUUUUUUUUUUUUUUUUUUUUUUU",
"UUUUUUUUUUUUUUUUUUUUUUUUUUUUUUUUUUUUUUUUUUUUUUUUUUUUUUUUUUUUUUUU",
"UUUUUUUUUUUUUUUUUUUUUUUUUUUUUUUUUUUUUUUUUUUUUUUUUUUUUUUUUUUUUUUU",
"UUUUUUUUUUUUUUUUUUUUUUUUUUUUUUUUUUUUUUUUUUUUUUUUUUUUUUUUUUUUUUUU",
"UUUUUUUUUUUUUUUUUUUUUUUUUUUUUUUUUUUUUUUUUUUUUUUUUUUUUUUUUUUUUUUU",
"UUUUUUUUUUUUUUUUUUUUUUUUUUUUUUUUUUUUUUUUUUUUUUUUUUUUUUUUUUUUUUUU",
"UUUUUUUUUUUUUUUUUUUUUUUUUUUUUUUUUUUUUUUUUUUUUUUUUUUUUUUUUUUUUUUU",
"UUUUUUUUUUUUUUUUUUUUUUUUUUUUUUUUUUUUUUUUUUUUUUUUUUUUUUUUUUUUUUUU",
"UUUUUUUUUUUUUUUUUUUUUUUUUUUUUUUUUUUUUUUUUUUUUUUUUUUUUUUUUUUUUUUU",
"                                                                ",
"                                                                ",
"                                                                ",
"    %% *-:      ryi  jzv mBCk HKI KFSP Mbv    yrw      :=&      ",
"    %%%&-:,1  9w#oiaf zvbm CZS KIKK SZV bvl aiyrw0965<,:X&%%    ",
"    %%%   ,1 79w   af zvb   ZS KIK   ZV bvlgai   +965<,   %%    ",
"    %%%   ,1 79w   af zvb   ZS KIK   ZV bvlgai   +965<:   %%    ",
"    %%%   ,1@79w   af zvb   ZS KIK   ZV bvlgai   +965<,   %%    ",
"    %%%  q,25$9w   af zvb   ZS KIK   ZV bvlgai   +  5<,         ",
"    %%%&- , 5 9w   af zvb   ZS KIK   ZV bvlgai       <,:        ",
"    %%%   ,1579w   af zvb   ZS KIK   ZV bvlgaiyrw0    ,:=&      ",
"    %%%   ,1 79wryiaf zvb   ZS KIK   ZV bvlgaiyrw0     :=&%     ",
"    %%%   ,1 79wry af zvb   ZS KIK   ZV bvlgai          =&%%    ",
"    %%%   ,1 79w   af zvb   ZS KIK   ZV bvxgai            %%%   ",
"    %%%   ,1 79w   af zvb   ZS KIK   ZV bN  ai      5<    %%%   ",
"    %%%   ,1 79w   af zvb   ZS KIK   ZV bvO di    965<    %%%   ",
"    %%%   ,1 79w   af zvb   ZS KIK   ZV bv gai   +965<    %%%   ",
"    %%%   ,1 79w   af zvb   ZS KIK   ZV bvlgai   +965<    %%%   ",
"    %%%& :,1 79w   af zvbmBCZS KIKKFSZV bvlgaiyrw096 <,:=&%%    ",
"      %&-:    9w   af zvbmBCH  KIKKFSZ  bv    yrw      :=&      ",
"                                                                ",
"                                                                ",
"                                                                ",
"UUUUUUUUUUUUUUUUUUUUUUUUUUUUUUUUUUUUUUUUUUUUUUUUUUUUUUUUUUUUUUUU",
"UUUUUUUUUUUUUUUUUUUUUUUUUUUUUUUUUUUUUUUUUUUUUUUUUUUUUUUUUUUUUUUU",
"UUUUUUUUUUUUUUUUUUUUUUUUUUUUUUUUUUUUUUUUUUUUUUUUUUUUUUUUUUUUUUUU",
"UUUUUUUUUUUUUUUUUUUUUUUUUUUUUUUUUUUUUUUUUUUUUUUUUUUUUUUUUUUUUUUU",
"UUUUUUUUUUUUUUUUUUUUUUUUUUUUUUUUUUUUUUUUUUUUUUUUUUUUUUUUUUUUUUUU",
"UUUUUUUUUUUUUUUUUUUUUUUUUUUUUUUUUUUUUUUUUUUUUUUUUUUUUUUUUUUUUUUU",
"UUUUUUUUUUUUUUUUUUUUUUUUUUUUUUUUUUUUUUUUUUUUUUUUUUUUUUUUUUUUUUUU",
"UUUUUUUUUUUUUUUUUUUUUUUUUUUUUUUUUUUUUUUUUUUUUUUUUUUUUUUUUUUUUUUU",
"UUUUUUUUUUUUUUUUUUUUUUUUUUUUUUUUUUUUUUUUUUUUUUUUUUUUUUUUUUUUUUUU",
"UUUUUUUUUUUUUUUUUUUUUUUUUUUUUUUUUUUUUUUUUUUUUUUUUUUUUUUUUUUUUUUU",
"UUUUUUUUUUUUUUUUUUUUUUUUUUUUUUUUUUUUUUUUUUUUUUUUUUUUUUUUUUUUUUUU",
"UUUUUUUUUUUUUUUUUUUUUUUUUUUUUUUUUUUUUUUUUUUUUUUUUUUUUUUUUUUUUUUU",
"UUUUUUUUUUUUUUUUUUUUUUUUUUUUUUUUUUUUUUUUUUUUUUUUUUUUUUUUUUUUUUUU",
"UUUUUUUUUUUUUUUUUUUUUUUUUUUUUUUUUUUUUUUUUUUUUUUUUUUUUUUUUUUUUUUU",
"UUUUUUUUUUUUUUUUUUUUUUUUUUUUUUUUUUUUUUUUUUUUUUUUUUUUUUUUUUUUUUUU",
"UUUUUUUUUUUUUUUUUUUUUUUUUUUUUUUUUUUUUUUUUUUUUUUUUUUUUUUUUUUUUUUU",
"UUUUUUUUUUUUUUUUUUUUUUUUUUUUUUUUUUUUUUUUUUUUUUUUUUUUUUUUUUUUUUUU",
"UUUUUUUUUUUUUUUUUUUUUUUUUUUUUUUUUUUUUUUUUUUUUUUUUUUUUUUUUUUUUUUU",
"UUUUUUUUUUUUUUUUUUUUUUUUUUUUUUUUUUUUUUUUUUUUUUUUUUUUUUUUUUUUUUUU",
"UUUUUUUUUUUUUUUUUUUUUUUUUUUUUUUUUUUUUUUUUUUUUUUUUUUUUUUUUUUUUUUU",
"UUUUUUUUUUUUUUUUUUUUUUUUUUUUUUUUUUUUUUUUUUUUUUUUUUUUUUUUUUUUUUUU"
};
