/* XPM */
static const char *c4_1[] = {
/* columns rows colors chars-per-pixel */
"64 64 118 2 ",
"   c #010101",
".  c #0B0102",
"X  c #020905",
"o  c #07030A",
"O  c #010F09",
"+  c #0A0A0A",
"@  c #130002",
"#  c #180202",
"$  c #15000D",
"%  c #141C17",
"&  c gray11",
"*  c #21000D",
"=  c #210C15",
"-  c #370C1D",
";  c #380A1C",
":  c #33121B",
">  c #222222",
",  c #282828",
"<  c #40041E",
"1  c #490929",
"2  c #4D172A",
"3  c #4A1B2E",
"4  c #59102F",
"5  c #591932",
"6  c #7D2D49",
"7  c #71354F",
"8  c #474644",
"9  c #4B4B4B",
"0  c #5D5D5D",
"q  c #656365",
"w  c #727272",
"e  c #843359",
"r  c #8C4762",
"t  c #945576",
"y  c #A65978",
"u  c #B3537E",
"i  c #D45B93",
"p  c #E25C93",
"a  c #E35E9A",
"s  c #EE5D9C",
"d  c #FA569E",
"f  c #F35C9D",
"g  c #C3648C",
"h  c #C76A8F",
"j  c #D1678F",
"k  c #CD6D9A",
"l  c #D66494",
"z  c #D06D95",
"x  c #DB659A",
"c  c #D46B9C",
"v  c #CB779E",
"b  c #C4799F",
"n  c #D8739F",
"m  c #D1799F",
"M  c #E3659A",
"N  c #EA629E",
"B  c #E36B9F",
"V  c #E8719F",
"C  c #F35CA1",
"Z  c #F95CA4",
"A  c #D875A4",
"S  c #D67AA4",
"D  c #DC7AA9",
"F  c #E265A0",
"G  c #EB64A3",
"H  c #E56AA3",
"J  c #EB6BA4",
"K  c #F564A3",
"L  c #FE61A3",
"P  c #E176A4",
"I  c #E778A7",
"U  c #EE74AA",
"Y  c #E07DAB",
"T  c #E97BAD",
"R  c gray52",
"E  c #8B8B8B",
"W  c #90948F",
"Q  c #979797",
"!  c gray60",
"~  c #AE8698",
"^  c #BA94A2",
"/  c gray63",
"(  c #AEA4A7",
")  c #A9BDBB",
"_  c #CF85A6",
"`  c #D989A9",
"'  c #E184AB",
"]  c #D1ACBB",
"[  c #C3BCBE",
"{  c #CAB9BE",
"}  c #DDA9C4",
"|  c #EEADD0",
" . c #FDB7D7",
".. c #CECECE",
"X. c #D3D3D3",
"o. c #DBDCDC",
"O. c #FDCCE6",
"+. c #F9D3ED",
"@. c #FEDBF7",
"#. c #E3E3E3",
"$. c #ECECEC",
"%. c #FFE1F5",
"&. c #FFE9F5",
"*. c #FFE6FA",
"=. c #E7FFFE",
"-. c #EEFEFC",
";. c #F4F4F4",
":. c #F7FBF5",
">. c #FFF4FD",
",. c #F5FFFD",
"<. c #F8F8F8",
"1. c #FAFCF8",
"2. c #FBFFFB",
"3. c #FFFDFB",
"4. c #FAFBFD",
"5. c #FFF9FF",
"6. c #FBFEFF",
"7. c white",
/* pixels */
"<.<.<.<.<.<.<.<.<.<.<.<.<.<.<.<.<.<.<.<.<.<.<.<.<.<.<.<.<.<.<.<.<.<.<.<.<.<.<.<.<.<.<.<.<.<.<.<.<.<.<.<.<.<.<.<.<.<.<.<.<.<.<.<.",
"<.<.<.<.<.<.<.<.<.<.<.<.<.<.<.<.<.<.<.<.<.<.<.<.<.<.<.<.<.<.<.<.<.<.<.<.<.<.<.<.<.<.<.<.<.<.<.<.<.<.<.<.<.<.<.<.<.<.<.<.<.<.<.<.",
"<.<.<.<.<.<.<.<.<.<.<.<.<.<.<.<.<.<.<.<.<.<.<.<.<.<.<.<.<.<.<.<.<.<.<.<.<.<.<.<.<.<.<.<.<.<.<.<.<.<.<.<.<.<.<.<.<.<.<.<.<.<.<.<.",
"<.<.<.<.<.<.<.<.<.<.<.<.<.<.<.<.<.<.<.<.<.<.<.<.<.<.<.<.<.<.<.<.<.<.<.<.<.<.<.<.<.<.<.<.<.<.<.<.<.<.<.<.<.<.<.<.<.<.<.<.<.<.<.<.",
"<.<.<.<.<.<.<.<.<.<.<.<.<.<.<.<.<.<.<.<.<.<.<.<.<.<.<.<.<.<.<.<.<.<.<.<.<.<.<.<.<.<.<.<.<.<.<.<.<.<.<.<.<.<.<.<.<.<.<.<.<.<.<.<.",
"<.<.<.<.<.<.<.<.<.<.<.<.<.<.<.<.<.<.<.<.<.<.<.<.<.<.<.<.<.<.<.<.<.<.<.<.<.<.<.<.<.<.<.<.<.<.<.<.<.<.<.<.<.<.<.<.<.<.<.<.<.<.<.<.",
"<.<.<.<.<.<.<.<.<.<.<.<.<.<.<.<.<.<.<.<.<.<.<.<.<.<.<.<.<.<.<.<.<.<.<.<.<.<.<.<.<.<.<.<.<.<.<.<.<.<.<.<.<.<.<.<.<.<.<.<.<.<.<.<.",
"<.<.<.<.<.<.<.<.<.<.<.<.<.<.<.<.<.<.<.<.<.<.<.<.<.<.<.<.<.<.<.<.<.<.<.<.<.<.<.<.<.<.<.<.<.<.<.<.<.<.<.<.<.<.<.<.<.<.<.<.<.<.<.<.",
"<.<.<.<.<.<.<.<.<.<.<.<.<.<.<.<.<.<.<.<.<.<.<.<.<.<.<.<.<.<.<.<.<.<.<.<.<.<.<.<.<.<.<.<.<.<.<.<.<.<.<.<.<.<.<.<.<.<.<.<.<.<.<.<.",
"<.<.<.<.<.<.<.<.<.<.<.<.<.<.<.<.<.<.<.<.<.<.<.<.<.<.<.<.<.<.<.<.<.<.<.<.<.<.<.<.<.<.<.<.<.<.<.<.<.<.<.<.<.<.<.<.<.<.<.<.<.<.<.<.",
"<.<.<.<.<.<.<.<.<.<.<.<.<.<.<.<.<.<.<.<.<.<.<.<.<.<.<.<.<.<.<.<.<.<.<.<.<.<.<.<.<.<.<.<.<.<.<.<.<.<.<.<.<.<.<.<.<.<.<.<.<.<.<.<.",
"<.<.<.<.<.<.<.<.<.<.<.<.<.<.<.<.<.<.<.<.<.<.<.<.<.<.<.<.<.<.<.<.<.<.<.<.<.<.<.<.<.<.<.<.<.<.<.<.<.<.<.<.<.<.<.<.<.<.<.<.<.<.<.<.",
"<.<.<.<.<.<.<.<.<.<.<.<.<.<.<.<.<.<.<.<.<.<.<.<.<.<.<.<.<.<.<.<.<.<.<.<.<.<.<.<.<.<.<.<.<.<.<.<.<.<.<.<.<.<.<.<.<.<.<.<.<.<.<.<.",
"<.<.<.<.<.<.<.<.<.<.<.<.<.<.<.<.<.<.<.<.<.<.<.<.<.<.<.<.<.<.<.<.<.<.<.<.<.<.<.<.<.<.<.<.<.<.<.<.<.<.<.<.<.<.<.<.<.<.<.<.<.<.<.<.",
"<.<.<.<.<.<.<.<.<.<.<.<.<.<.<.<.<.<.<.<.<.<.<.<.<.<.<.<.<.<.<.<.<.<.<.<.<.<.<.<.<.<.<.<.<.<.<.<.<.<.<.<.<.<.<.<.<.<.<.<.<.<.<.<.",
"<.<.<.<.<.<.<.<.<.<.<.<.<.<.<.<.<.<.<.<.<.<.<.<.<.<.<.<.<.<.<.<.<.<.<.<.<.<.<.<.<.<.<.<.<.<.<.<.<.<.<.<.<.<.<.<.<.<.<.<.<.<.<.<.",
"<.<.<.<.<.<.<.<.<.<.<.<.<.<.<.<.<.<.<.<.<.<.<.<.<.<.<.<.<.<.<.<.<.<.<.<.<.<.<.<.<.<.<.<.<.<.<.<.<.<.<.<.<.<.<.<.<.<.<.<.<.<.<.<.",
"<.<.<.<.<.<.<.<.<.<.<.<.<.<.<.<.<.<.<.<.<.<.<.<.<.<.<.<.<.<.<.<.<.<.<.<.<.<.<.<.<.<.<.<.<.<.<.<.<.<.<.<.;.<.<.<.<.<.<.<.<.<.<.<.",
"<.<.<.<.<.<.<.<.<.<.<.<.<.<.<.<.<.<.<.<.<.<.<.<.<.<.<.<.<.<.<.<.<.<.<.<.<.<.<.<.<.<.<.<.<.<.<.<.<.<.<.<.<.<.<.<.<.<.<.<.<.<.<.<.",
"<.<.<.<.<.<.<.<.<.<.<.<.<.<.<.<.<.<.<.<.<.<.<.<.<.<.<.<.<.<.<.<.<.<.<.<.<.<.<.<.<.<.<.<.<.<.<.<.<.;.;.;.<.<.<.<.<.<.<.<.<.<.<.<.",
"<.<.<.<.<.<.<.<.<.<.<.<.<.<.<.<.<.<.<.<.<.<.<.<.<.<.<.<.<.<.<.<.<.<.<.<.<.<.<.<.<.<.<.<.<.<.;.#.X.$.#.$.X.o.;.;.;.<.<.<.<.<.<.<.",
"<.<.<.<.<.<.<.<.<.<.<.<.<.<.<.;.<.<.<.<.<.<.<.<.<.<.<.<.<.<.<.<.<.;.;.;.o.X.$.$.$...;.7.7.7.7.7.7.7.7.7.7.7.7.7.X.<.<.<.<.<.<.<.",
"<.<.<.<.<.<.<.<.<.<.<.<.<.<.<.<.<.<.<.<.<.<.<.<.<.<.<.<.;.$.o.o.X.X.7.7.7.7.7.7.7.7.7.7.<.<.7.o.          0 7.7.7.;.<.<.<.<.<.<.",
"<.<.<.<.<.<.<.<.<.<.<.<.<.<.<.<.<.<.<.<.<.<.<.;.$.o.X.X.7.7.7.7.7.7.7.<.R             +                         7.7...<.<.<.<.<.",
"<.<.<.<.<.<.<.<.<.<.<.<.;.#.X.X.;.;.;.X.X.X.7.7.7.7.7.7.7.7.0                                                     7.7.;.<.<.<.<.",
"<.<.<.<.<.<.<.<.<.;.#.7.7.7.7.7.7.7.7.7.7.7.7.7.<.+                                 { 6.7.7.7.W 7.7.7.7.!         7.7.;.<.<.<.<.",
"<.<.<.<.<.<.<.<.;.o.7.7.<.$.            & 7.                      . . ) 6.5.6.7.(   >.7.7.4.2.  7.:.,.6.,.7.      X.7.$.<.<.<.<.",
"<.<.<.<.<.<.<.;.X.7.<.                                    & 7.7.7.X   7.5.6.2.7.7.  N O.,.] r y 6.<.K G x ^       <.7.$.<.<.<.<.",
"<.<.<.<.<.<.<.;.7.7.                                  . 5.6.7.3.7.5.@ 7.7.~ C 5.7.    >.7.    M 7.7.7.7.  .       7.7.;.<.<.<.<.",
"<.<.<.<.<.<.<.#.7.7.              +       X ,.7.7.    - 6.,.v M ,.6.5 7.7.  P 7.7.  4 3.7.    | 3.7.7.7.          <.7.X.;.<.<.<.",
"<.<.<.<.<.<.<.o.7.+     I 6.6.3.7.6.7.    h 7.7.7.    k 7.7.  a 3.7.N 7.7.  H 6.,.  c 5.7.    >.7.b N 2             7.7.<.<.<.<.",
"<.<.<.<.<.<.<.7.7.    X p 7.6.i g 7.7.    *.5.7.7.  o s 7.7.X M 5.6.c 7.7.  7.7.>.o.&.,.7.7.; 2.7.6.7.;.8           7.7.;.<.<.<.",
"<.<.<.<.<.<.;.7.7.      S 2.7.% &.6.m   @ ,.6.6.7.    n 7.7.  &.6.3.>.7.7.<.7.6.i 5.7.7.7.5.V 3.7.7.7.3.            7.7.;.<.<.<.",
"<.<.<.<.<.;.#.7.;.      >.7.5.3.>.,.7.  h 7.@.-.7.+ # >.7.7.q 7.-.u 7.7.5.7.>.j F N C G N A J G G G Z d .         + 7.7.;.<.<.<.",
"<.<.<.<.<.<.o.7.      $ 7.7.` K 6.7.7.  ,.7.6.7.6.  . ,.7.7.7.7. .H 2.3.7.D H                 o                     7.7.<.<.<.<.",
"<.<.<.<.<.<.7.7.      c 7.7.+ 3 -.6.2.t 7.=.7.7.>.[ U 6.,.7.6.B   L s a 7 .                                       7.7.X.<.<.<.<.",
"<.<.<.<.<.<.7.7.      _ 7.7.7.7.7.7.5.%.,.7.< *.7.3.} %.z l 1 #       .                 , 7./                   7.7.7.;.<.<.<.<.",
"<.<.<.<.<.;.7.7.      7.5.3.7.7.7.,.6 5.+.= X f 2.6.>.o J 6.                $.7.<.7.7.7.7.7.7.7.7.7.$.9 > w 7.7.7.7.$.<.<.<.<.<.",
"<.<.<.<.<.;.7.7.      H C G c Y x e : * .   X J 5.7.7.7.2.,.          Q 7.7.7.7.7.7.#.X.X.$.o.#.7.7.7.7.7.7.7.7.X.;.<.<.<.<.<.<.",
"<.<.<.<.<.<.7.7.                  .           O Z 5.7.7.5.'     ;.7.7.7.7.7...;.<.<.<.<.;.<.<.<.<.;.$.#.o.#.;.<.<.<.<.<.<.<.<.<.",
"<.<.<.<.<.;.$.7.7.                                T f G p       7.7.X.o.$.<.<.<.<.<.<.<.<.<.<.<.<.<.<.;.<.<.<.<.<.<.<.<.<.<.<.<.",
"<.<.<.<.<.<.;.7.7.7.7.E           7.7.7.7.q                   o.7.;.<.<.<.<.<.<.<.<.<.<.<.<.<.<.<.<.<.<.<.<.<.<.<.<.<.<.<.<.<.<.",
"<.<.<.<.<.<.<.;.X.7.7.7.7.7.7.7.7.7.7.7.7.7.;.              ;.7.7.$.<.<.<.<.<.<.<.<.<.<.<.<.<.<.<.<.<.<.<.<.<.<.<.<.<.<.<.<.<.<.",
"<.<.<.<.<.<.<.<.<.<.;.#.o.$.$.$.o.#.;.;.#.7.7.7.<.> +   <.7.7.7.o.<.<.<.<.<.<.<.<.<.<.<.<.<.<.<.<.<.<.<.<.<.<.<.<.<.<.<.<.<.<.<.",
"<.<.<.<.<.<.<.<.<.<.<.<.<.;.<.<.<.<.<.<.<.;.X.7.7.7.7.7.7.<.$.;.<.<.<.<.<.<.<.<.<.<.<.<.<.<.<.<.<.<.<.<.<.<.<.<.<.<.<.<.<.<.<.<.",
"<.<.<.<.<.<.<.<.<.<.<.<.<.<.<.<.<.<.<.<.<.<.<.<.$.o.X.X.#.;.<.<.<.<.<.<.<.<.<.<.<.<.<.<.<.<.<.<.<.<.<.<.<.<.<.<.<.<.<.<.<.<.<.<.",
"<.<.<.<.<.<.<.<.<.<.<.<.<.<.<.<.<.<.<.<.<.<.<.<.<.<.<.<.<.<.<.<.<.<.<.<.<.<.<.<.<.<.<.<.<.<.<.<.<.<.<.<.<.<.<.<.<.<.<.<.<.<.<.<.",
"<.<.<.<.<.<.<.<.<.<.<.<.<.<.<.<.<.<.<.<.<.<.<.<.<.<.<.<.<.<.<.<.<.<.<.<.<.<.<.<.<.<.<.<.<.<.<.<.<.<.<.<.<.<.<.<.<.<.<.<.<.<.<.<.",
"<.<.<.<.<.<.<.<.<.<.<.<.<.<.<.<.<.<.<.<.<.<.<.<.<.<.<.<.<.<.<.<.<.<.<.<.<.<.<.<.<.<.<.<.<.<.<.<.<.<.<.<.<.<.<.<.<.<.<.<.<.<.<.<.",
"<.<.<.<.<.<.<.<.<.<.<.<.<.<.<.<.<.<.<.<.<.<.<.<.<.<.<.<.<.<.<.<.<.<.<.<.<.<.<.<.<.<.<.<.<.<.<.<.<.<.<.<.<.<.<.<.<.<.<.<.<.<.<.<.",
"<.<.<.<.<.<.<.<.<.<.<.<.<.<.<.<.<.<.<.<.<.<.<.<.<.<.<.<.<.<.<.<.<.<.<.<.<.<.<.<.<.<.<.<.<.<.<.<.<.<.<.<.<.<.<.<.<.<.<.<.<.<.<.<.",
"<.<.<.<.<.<.<.<.<.<.<.<.<.<.<.<.<.<.<.<.<.<.<.<.<.<.<.<.<.<.<.<.<.<.<.<.<.<.<.<.<.<.<.<.<.<.<.<.<.<.<.<.<.<.<.<.<.<.<.<.<.<.<.<.",
"<.<.<.<.<.<.<.<.<.<.<.<.<.<.<.<.<.<.<.<.<.<.<.<.<.<.<.<.<.<.<.<.<.<.<.<.<.<.<.<.<.<.<.<.<.<.<.<.<.<.<.<.<.<.<.<.<.<.<.<.<.<.<.<.",
"<.<.<.<.<.<.<.<.<.<.<.<.<.<.<.<.<.<.<.<.<.<.<.<.<.<.<.<.<.<.<.<.<.<.<.<.<.<.<.<.<.<.<.<.<.<.<.<.<.<.<.<.<.<.<.<.<.<.<.<.<.<.<.<.",
"<.<.<.<.<.<.<.<.<.<.<.<.<.<.<.<.<.<.<.<.<.<.<.<.<.<.<.<.<.<.<.<.<.<.<.<.<.<.<.<.<.<.<.<.<.<.<.<.<.<.<.<.<.<.<.<.<.<.<.<.<.<.<.<.",
"<.<.<.<.<.<.<.<.<.<.<.<.<.<.<.<.<.<.<.<.<.<.<.<.<.<.<.<.<.<.<.<.<.<.<.<.<.<.<.<.<.<.<.<.<.<.<.<.<.<.<.<.<.<.<.<.<.<.<.<.<.<.<.<.",
"<.<.<.<.<.<.<.<.<.<.<.<.<.<.<.<.<.<.<.<.<.<.<.<.<.<.<.<.<.<.<.<.<.<.<.<.<.<.<.<.<.<.<.<.<.<.<.<.<.<.<.<.<.<.<.<.<.<.<.<.<.<.<.<.",
"<.<.<.<.<.<.<.<.<.<.<.<.<.<.<.<.<.<.<.<.<.<.<.<.<.<.<.<.<.<.<.<.<.<.<.<.<.<.<.<.<.<.<.<.<.<.<.<.<.<.<.<.<.<.<.<.<.<.<.<.<.<.<.<.",
"<.<.<.<.<.<.<.<.<.<.<.<.<.<.<.<.<.<.<.<.<.<.<.<.<.<.<.<.<.<.<.<.<.<.<.<.<.<.<.<.<.<.<.<.<.<.<.<.<.<.<.<.<.<.<.<.<.<.<.<.<.<.<.<.",
"<.<.<.<.<.<.<.<.<.<.<.<.<.<.<.<.<.<.<.<.<.<.<.<.<.<.<.<.<.<.<.<.<.<.<.<.<.<.<.<.<.<.<.<.<.<.<.<.<.<.<.<.<.<.<.<.<.<.<.<.<.<.<.<.",
"<.<.<.<.<.<.<.<.<.<.<.<.<.<.<.<.<.<.<.<.<.<.<.<.<.<.<.<.<.<.<.<.<.<.<.<.<.<.<.<.<.<.<.<.<.<.<.<.<.<.<.<.<.<.<.<.<.<.<.<.<.<.<.<.",
"<.<.<.<.<.<.<.<.<.<.<.<.<.<.<.<.<.<.<.<.<.<.<.<.<.<.<.<.<.<.<.<.<.<.<.<.<.<.<.<.<.<.<.<.<.<.<.<.<.<.<.<.<.<.<.<.<.<.<.<.<.<.<.<.",
"<.<.<.<.<.<.<.<.<.<.<.<.<.<.<.<.<.<.<.<.<.<.<.<.<.<.<.<.<.<.<.<.<.<.<.<.<.<.<.<.<.<.<.<.<.<.<.<.<.<.<.<.<.<.<.<.<.<.<.<.<.<.<.<.",
"<.<.<.<.<.<.<.<.<.<.<.<.<.<.<.<.<.<.<.<.<.<.<.<.<.<.<.<.<.<.<.<.<.<.<.<.<.<.<.<.<.<.<.<.<.<.<.<.<.<.<.<.<.<.<.<.<.<.<.<.<.<.<.<."
};
