/* XPM */
static char *rcp16003364155528386[] = {
/* columns rows colors chars-per-pixel */
"32 64 10 1 ",
"  c black",
". c #271E1E",
"X c #372222",
"o c #992A2A",
"O c #6BB564",
"+ c #A2EE9A",
"@ c gray81",
"# c #FCEAE0",
"$ c #FEFFFF",
"% c white",
/* pixels */
"%%%%%%%%%%           %%%%%%%%%%%",
"%%%%%%%%%  . .... ... %%%%%%%%%%",
"%%%%%%%   ....... . .   %%%%%%%%",
"%%%%%%  ..  ...   ...    %%%%%%%",
"%%%%% ...  .....X..  .    %%%%%%",
"%%%% .   ... oXoXo  .    . %%%%%",
"%%%...   .. ooXooXo ..      %%%%",
"%% .       ooXoooXoo ..      %%%",
"% .     . oooXoooXooo ..  .   %%",
"%..    . ooooXooooXooo ..  ..  %",
"%.    . oooooXooooXoooo.    .  %",
" .   .. oooooXooooXoooo. .  .. %",
"     .. oooooXooooXoooo. .. ..  ",
".  . .. oooooXooooXoooo. ...... ",
". .  .. ooo#ooooooXoooo....... .",
". .  .  ooo#ooooooXoo#o   . .. .",
".   .. #ooo#ooooooooo#o#     . .",
". ## .####o#oooo#oooo#####  ## .",
". ## .  %%############%%  # ## .",
". ## .#    %########%    ## ## .",
". ## .#%     ######     %## ## .",
".  # .#%%%O+%######%+O%%%## #  .",
".    .# %%O+%######%+O%% ##    .",
"      ## %OO ###### OO% ###    .",
"%     ####### #### ####### o   .",
"%    o ################## oo   .",
"%%   oo  ######oo######   oo   %",
"%%%  oo   ####o...####    oo  %%",
"%%%% oo %  ####oo####  %  oo %%%",
"%%%%% o %%%   ####   %%%% o %%%%",
"%%%%%  %%@%% #    # %%@%%% %%%%%",
"%%%%% %%@@%%% ####  %%@@%% %%%%%",
"%%%% %%%@ %%%%     %%% @%%% %%%%",
"%%%%      %%%%%%%%%%%%      %%%%",
"%%%%% ### %%%%%%%%%%%% ### %%%%%",
"%%%%% ### %%%%%%%%%%% ### %%%%%%",
"%%%%% ### %%%%%%%%%%% ### %%%%%%",
"%%%%%% ## %%%%%%%%%%% ### %%%%%%",
"%%%%%%% #  %%%%%%%%%% ### %%%%%%",
"%%%%%%%%  #           ### %%%%%%",
"%%%%%%%%% ##### ##### ## %%%%%%%",
"%%%%%%%% ############    %%%%%%%",
"%%%%%%%% ############## %%%%%%%%",
"%%%%%%%%                %%%%%%%%",
"%%%%%%%% .............. %%%%%%%%",
"%%%%%%%% .............. %%%%%%%%",
"%%%%%%%% .....    ..... %%%%%%%%",
"%%%%%%%% ......  ...... %%%%%%%%",
"%%%%%%%%% .....  ..... %%%%%%%%%",
"%%%%%%%%% .....  ..... %%%%%%%%%",
"%%%%%%%%% #####  #### %%%%%%%%%%",
"%%%%%%%%% #####  #### %%%%%%%%%%",
"%%%%%%%%% ####    ### %%%%%%%%%%",
"%%%%%%%%%             %%%%%%%%%%",
"%%%%%%%%%  ....  ... %%%%%%%%%%%",
"%%%%%%%%%  ....  ... %%%%%%%%%%%",
"%%%%%%%%%  ....     %%%%%%%%%%%%",
"%%%%%%%%%  ....  %%%%%%%%%%%%%%%",
"%%%%%%%%%  ....  %%%%%%%%%%%%%%%",
"%%%%%%%%%  ...   %%%%%%%%%%%%%%%",
"%%%%%%%%%        %%%%%%%%%%%%%%%",
"%%%%%%%%%%     %%%%%%%%%%%%%%%%%",
"%%%%%%%%%%%%%%%%%%%%%%%%%%%%%%%%",
"%%%%%%%%%%%%%%%%%%%%%%%%%%%%%%%%"
};
