/* XPM */
static const char *enemy[] = {
/* columns rows colors chars-per-pixel */
"64 64 42 1 ",
"  c #3F4853",
". c #707984",
"X c #717A85",
"o c #727B86",
"O c #727B87",
"+ c #747E89",
"@ c #767F8B",
"# c #7A838F",
"$ c #7A848F",
"% c #838D99",
"& c #87919D",
"* c #8B95A0",
"= c #909AA5",
"- c #969CA4",
"; c #9BA4AF",
": c #9DA6B0",
"> c #A0A9B4",
", c #A2ABB5",
"< c #A7ACB4",
"1 c #ACB4BE",
"2 c #AEB6BF",
"3 c #AEB6C0",
"4 c #AEB7C0",
"5 c #B1B9C2",
"6 c #B1B9C3",
"7 c #B2BAC3",
"8 c #B3BBC5",
"9 c #B4BCC5",
"0 c #B6BEC7",
"q c #C1C9D2",
"w c #C5CCD4",
"e c #C9CFD7",
"r c #C9D0D8",
"t c #D0D6DE",
"y c #D3DAE1",
"u c #D5DBE2",
"i c #D6DCE3",
"p c #D7DDE3",
"a c #D7DDE4",
"s c #D9DFE6",
"d c #DBE1E8",
"f c None",
/* pixels */
"ffffffffffffffffffffffffffff         fffffffffffffffffffffffffff",
"fffffffffffffffffffffffff   iiii99 fffffffffffffffffffffffffffff",
"fffffffffffffffffffffffff  iii99  ffffffffffffffffffffffffffffff",
"fffffffffffffffffffffff  iii999  fffffffffffffffffffffffffffffff",
"fffffffffffffffffffff   iii9999 ffffffffffffffffffffffffffffffff",
"ffffffffffffff ffffff iiii9999 ffff          iffffffffffffffffff",
"fffffffffffff  ffff  iiiii99999    iiiiiiii      fffffffffffffff",
"ffffffffffff 9 fff  iiiii99999  iiiiiiiiiiiiiiii  ffffffffffffff",
"fffffffffff  9 fff iiiiii999  iiiiiiiiiiiii99999   fffffffffffff",
"ffffffffff  99 ff  iiiii999 iiiiiiiiiiii999999  ffffffffffffffff",
"ffffffffff i99 ff iiiiii99iiiiiiiiiiii999999  -fffffffffffffffff",
"fffffffff ii99 f iisiiiiiiiiiiiiiiiiiiii99999    fffffffffffffff",
"fffffffff ii99 < iaiiiiiiiiiiiiiiiiiiiiiiiiiiiiii    fffffffffff",
"ffffffff  ii99   iiiiiiiiiiiiiiiiiiiiiiiiiiiiiiiiiii   fffffffff",
"ffffffff iii99   iiiiiiiii9996333689iiiiiiiiiiiiiiiii   ffffffff",
"ffffffff iii999 iiiiiiiu999999999999999uiiiiiiiiiiiiiii   ffffff",
"fffffff  iii999 9iiiiy9999999999i99999999yiiiiiiiiiiiiii  ffffff",
"fffffff  iii999  iiii9999999999ii999999999wiiiiiii9999iiii fffff",
"ff ffff  iii999i iii99999999i99ii99999999999iiiiiii9999999i ffff",
"f  ffff iiii999iiii999999999i99ii999999999999iiiiiii 9999999 fff",
"f   fff iiii99iiii9999999999i99i99999999999999iiiiii9 9  9    ff",
"f   fff iiiii9iii999999999999iii999999999999999iiiiii9  fif    f",
"f 9  ff iaiiiiiii999999999999iii9999999999999999iiiiii  ffffii f",
"f 99 ff iaiiiiii9999999999999iii99999999999999999iiiiii ffffffff",
"f i9    iiiiiiii9999999999999iii999999999999999999iiiiii  ffffff",
"f 999    iiiiii999999999999999i9999999999999999999iiiiiii ffffff",
"f i999   iiiii9999999999999999999999999999999999999iiiiiii fffff",
"f ii999  iiiii9999999999999999999999999999999999999iiiiiiii ffff",
"f ii9999  iii999999999999999   .@*69999999999999999iiiiiiii ffff",
"f iii9999 iii9ii99999999999  .....#699999999iii99999iiiiiiii fff",
"f iiii999 iii99iiiiii99999= .......&9999iiiiiii9i999iii9iiii fff",
"f  iiiii99 ii99999iiii9999 ...  ....6999iiiii9ii9999iii9iiii fff",
"ff iiiiii9iii999999iiii991 ..    .. >999iiii99999999iiii9iiii ff",
"ff  iiiiiiiii999iiiiii9991 ..    .. >999999iiii99999iiii9iiii ff",
"ff  iiiiiiiii99iiii9999999 ...  ... 699999999iii9999iiii99uii ff",
"fff  iiiiiiii9999999999999*....... %999999999999999iiiii99iii ff",
"fff   uiiiiii99999999999996$....  @3999999999999999iiiii 99ii if",
"fffff iiiiiii999999999999996&....%19999999999999999iiiii 99ii ff",
"iffff  iiiiiii9999999999999999:;6999999999999999999iiiii 99ii if",
"i ffii  iiiiii999999999999999999999999999999999999iiiiii 999i if",
"i        iiiiii9999999999999999i999999999999999939iiiiii   99 ff",
"f 999999 aiiiii9999999999999999ii9999999999999999iiiiiiii f i ff",
"ff  i9999  iiiii999999999999999ii9999999999999999iiiiiiii f i ff",
"ffi iii999 iiiii99999999999999iii99999999999999qiiiiiiiii ff  ff",
"ffff  iii99 iiiii9999999999999iiii9999999999999iiiii9iii fff  ff",
"fffff  iiiiiiiiiii999999999999iiii999999999999iiiiii9iii fff fff",
"fffffff  iiiiiiiiii99999999999ii9i99999999999yiiiii99iii fffffff",
"ffffffff  iiiiiiiiii9999999999ii9i9999999999iiiiii999ii ifffffff",
"ffffffffff   diiiiiii99999999iii9ii99999999iiiiiii999ii ffffffff",
"ffffffffffff   iiiiiiei999999ii999i999993riiiiiii9 9iii ffffffff",
"ffffff   ffffeu uiiiiiii9999999999i99999iiiiiiii9  9ii iffffffff",
"fffffff          uiiiiiiii999399999999iiiiiiiii99 99ii fffffffff",
"fffffff  99999999  iiiiiiiii9999999iiiiiiiiiiii9 999i ifffffffff",
"ffffffff  ii999999  iiiiiiiiiiiiiiiiiiiiiiiiiii f 99i ffffffffff",
"ffffffffff  iiii9999 iiiiiiiiiiiiiiiiiiiiiiii  f  9i iffffffffff",
"fffffffffff    iiiiiiiiiiiiiiiiiiiiiiiiiiiiii fff 9 ffffffffffff",
"ffffffffffffffi     iituiai999  9iiiiiiiiiii fff   fffffffffffff",
"ffffffffffffffffffi          999iiiiiiiiii  fff   ffffffffffffff",
"ffffffffffffffffffffffffff  999iiiiiiiiii ffffffffffffffffffffff",
"fffffffffffffffffffffffff 9999iiiiiiiii  fffffffffffffffffffffff",
"fffffffffffffffffffffff  999iiiiiiii   iffffffffffffffffffffffff",
"ffffffffffffffffffffffff            ffffffffffffffffffffffffffff",
"ffffffffffffffffffffffffffffffffffffffffffffffffffffffffffffffff",
"ffffffffffffffffffffffffffffffffffffffffffffffffffffffffffffffff"
};
