/* XPM */
static char *rcp69125968172252025[] = {
/* columns rows colors chars-per-pixel */
"64 64 106 2 ",
"   c #3F4853",
".  c #707984",
"X  c #717A85",
"o  c #727B86",
"O  c #727B87",
"+  c #747E89",
"@  c #767F8B",
"#  c #7A838F",
"$  c #7A848F",
"%  c #838D99",
"&  c #87919D",
"*  c #8B95A0",
"=  c #909AA5",
"-  c #9BA4AF",
";  c #9DA6B0",
":  c #A0A9B4",
">  c #A2ABB5",
",  c #ACB4BE",
"<  c #AEB6BF",
"1  c #AEB6C0",
"2  c #AEB7C0",
"3  c #B1B9C2",
"4  c #B1B9C3",
"5  c #B2BAC3",
"6  c #B7BBC0",
"7  c #B3BBC5",
"8  c #B4BCC5",
"9  c #B6BEC7",
"0  c #BABEC4",
"q  c #C1C9D2",
"w  c #C5CCD4",
"e  c #C9CFD7",
"r  c #C9D0D8",
"t  c #CCD1D9",
"y  c #D0D6DE",
"u  c #D3DAE1",
"i  c #D5DBE2",
"p  c #D6DCE3",
"a  c #D7DDE3",
"s  c #D7DDE4",
"d  c #DBDDE0",
"f  c #D8DEE4",
"g  c #D9DEE5",
"h  c #D9DFE5",
"j  c #D9DFE6",
"k  c #DCE1E7",
"l  c #DBE1E8",
"z  c #DDE2E8",
"x  c #DEE3E8",
"c  c #E0E5EA",
"v  c #E1E5EA",
"b  c #E2E6EB",
"n  c #E3E7EB",
"m  c #E3E7EC",
"M  c #E5E8ED",
"N  c #E6E9EE",
"B  c #E6EAEE",
"V  c #E7EAEE",
"C  c #E7EBEF",
"Z  c #EAECEF",
"A  c #E9ECF0",
"S  c #EAEDF0",
"D  c #EAEDF1",
"F  c #EBEEF1",
"G  c #ECEFF2",
"H  c #EDEFF2",
"J  c #EDF0F3",
"K  c #EEF0F3",
"L  c #EFF1F4",
"P  c #F0F2F5",
"I  c #F1F3F5",
"U  c #F3F3F4",
"Y  c #F1F3F6",
"T  c #F2F3F6",
"R  c #F2F4F6",
"E  c #F3F5F7",
"W  c #F4F5F7",
"Q  c #F4F6F7",
"!  c #F4F6F8",
"~  c #F5F6F8",
"^  c #F5F7F8",
"/  c #F6F7F8",
"(  c #F7F7F8",
")  c #F6F7F9",
"_  c #F6F8F9",
"`  c #F7F8F9",
"'  c #F7F8FA",
"]  c #F8F8F8",
"[  c #F8F9F9",
"{  c #F8F9FA",
"}  c #F9F9FA",
"|  c #F9FAFA",
" . c #F9FAFB",
".. c #FAFAFB",
"X. c #FAFBFB",
"o. c #FAFBFC",
"O. c #FBFBFC",
"+. c #FBFCFC",
"@. c gray99",
"#. c #FCFCFD",
"$. c #FCFDFD",
"%. c #FDFDFD",
"&. c #FDFDFE",
"*. c #FDFEFE",
"=. c #FEFEFE",
"-. c white",
/* pixels */
"-.-.-.-.-.-.-.-.-.-.-.-.-.-.-.-.-.-.-.-.-.-.-.-.-.-.-.-.                  -.-.-.-.-.-.-.-.-.-.-.-.-.-.-.-.-.-.-.-.-.-.-.-.-.-.-.",
"-.-.-.-.-.-.-.-.-.-.-.-.-.-.-.-.-.-.-.-.-.-.-.-.-.      p p p p 8 8   -.-.-.-.-.-.-.-.-.-.-.-.-.-.-.-.-.-.-.-.-.-.-.-.-.-.-.-.-.",
"-.-.-.-.-.-.-.-.-.-.-.-.-.-.-.-.-.-.-.-.-.-.-.-.-.    p p p 8 8     -.-.-.-.-.-.-.-.-.-.-.-.-.-.-.-.-.-.-.-.-.-.-.-.-.-.-.-.-.-.",
"-.-.-.-.-.-.-.-.-.-.-.-.-.-.-.-.-.-.-.-.-.-.-.    p p p 8 8 8     -.-.-.-.-.-.-.-.-.-.-.-.-.-.-.-.-.-.-.-.-.-.-.-.-.-.-.-.-.-.-.",
"-.-.-.-.-.-.-.-.-.-.-.-.-.-.-.-.-.-.-.-.-.      p p p 8 8 8 8   -.-.-.-.-.-.-.-.` -.-.-.-.o.-.-.-.-.-.-.-.-.-.-.-.-.-.-.-.-.-.-.",
"-.-.-.-.-.-.-.-.-.-.-.-.-.-.  -.-.-.-.-.-.  p p p p 8 8 8 8   -.-.-.-.                    x / -.-.-.-.-.-.-.-.-.-.-.-.-.-.-.-.-.",
"-.-.-.-.-.-.-.-.-.-.-.-.-.    F -.-.-.    p p p p p 8 8 8 8 8         p p p p p p p p             -.-.-.-.-.-.-.-.-.-.-.-.-.-.-.",
"-.-.-.-.-.-.-.-.-.-.-.-.  8   -.-.-.    p p p p p 8 8 8 8 8     p p p p p p p p p p p p p p p p     -.-.-.-.-.-.-.-.-.-.-.-.-.-.",
"-.-.-.-.-.-.-.-.-.-.-.    8   -.-.-.  p p p p p p 8 8 8     p p p p p p p p p p p p p 8 8 8 8 8       -.-.-.-.-.-.-.-.-.-.-.-.-.",
"-.-.-.-.-.-.-.-.-.-.    8 8   -.-.    p p p p p 8 8 8   p p p p p p p p p p p p 8 8 8 8 8 8     -.-./ -.-.-.-.-.-.-.-.-.-.-.-.-.",
"-.-.-.-.-.-.-.-.-.+.  p 8 8   -.-.  p p p p p p 8 8 p p p p p p p p p p p p 8 8 8 8 8 8     6 ] -.-.-.-.-.-.-.-.-.-.-.-.-.-.-.-.",
"-.-.-.-.-.-.-.-.-.  p p 8 8   ]   p p j p p p p p p p p p p p p p p p p p p p p 8 8 8 8 8         -.W -.-.-.-.-.-.-.-.-.-.-.-.-.",
"-.-.-.-.-.-.-.-.-.  p p 8 8   0   p s p p p p p p p p p p p p p p p p p p p p p p p p p p p p p p         -.-.-.-.-.-.-.-.-.-.-.",
"-.-.-.-.-.-.-.-.    p p 8 8       p p p p p p p p p p p p p p p p p p p p p p p p p p p p p p p p p p p       -.-.-.-.-.-.-.-.-.",
"-.-.-.-.-.-.-.-.  p p p 8 8       p p p p p p p p p 8 8 8 4 1 1 1 4 7 8 p p p p p p p p p p p p p p p p p       -.-.-.-.-.-.-.-.",
"-.-.-.-.-.-.-.o.  p p p 8 8 8   p p p p p p p i 8 8 8 8 8 8 8 8 8 8 8 8 8 8 8 i p p p p p p p p p p p p p p p       -.-.-.-.-.-.",
"-.-.-.-.-.-.-.    p p p 8 8 8   8 p p p p u 8 8 8 8 8 8 8 8 8 8 p 8 8 8 8 8 8 8 8 u p p p p p p p p p p p p p p     R -.-.-.-.-.",
"-.-.-.-.-.-.]     p p p 8 8 8     p p p p 8 8 8 8 8 8 8 8 8 8 p p 8 8 8 8 8 8 8 8 8 w p p p p p p p 8 8 8 8 p p p p   R -.-.-.-.",
"-.-.  -.-.-.o.    p p p 8 8 8 p   p p p 8 8 8 8 8 8 8 8 p 8 8 p p 8 8 8 8 8 8 8 8 8 8 8 p p p p p p p 8 8 8 8 8 8 8 p   -.-.-.-.",
"-.    -.-.-.R   p p p p 8 8 8 p p p p 8 8 8 8 8 8 8 8 8 p 8 8 p p 8 8 8 8 8 8 8 8 8 8 8 8 p p p p p p p   8 8 8 8 8 8 8   -.-.-.",
"-.      -.-.-.  p p p p 8 8 p p p p 8 8 8 8 8 8 8 8 8 8 p 8 8 p 8 8 8 8 8 8 8 8 8 8 8 8 8 8 p p p p p p 8   8     8         -.-.",
"-.      -.-.-.  p p p p p 8 p p p 8 8 8 8 8 8 8 8 8 8 8 8 p p p 8 8 8 8 8 8 8 8 8 8 8 8 8 8 8 p p p p p p 8     / F +.        -.",
"-.  8     -.-.  p s p p p p p p p 8 8 8 8 8 8 8 8 8 8 8 8 p p p 8 8 8 8 8 8 8 8 8 8 8 8 8 8 8 8 p p p p p p     -.-.-.-.F c   -.",
"-.  8 8   -.-.  p s p p p p p p 8 8 8 8 8 8 8 8 8 8 8 8 8 p p p 8 8 8 8 8 8 8 8 8 8 8 8 8 8 8 8 8 p p p p p p   -.-.-.-.-.-.-.-.",
"-.  p 8         p p p p p p p p 8 8 8 8 8 8 8 8 8 8 8 8 8 p p p 8 8 8 8 8 8 8 8 8 8 8 8 8 8 8 8 8 8 p p p p p p     -.-.-.-.-.-.",
"-.  8 8 8         p p p p p p 8 8 8 8 8 8 8 8 8 8 8 8 8 8 8 p 8 8 8 8 8 8 8 8 8 8 8 8 8 8 8 8 8 8 8 p p p p p p p   ] -.-.-.-.-.",
"-.  p 8 8 8       p p p p p 8 8 8 8 8 8 8 8 8 8 8 8 8 8 8 8 8 8 8 8 8 8 8 8 8 8 8 8 8 8 8 8 8 8 8 8 8 p p p p p p p   -.-.-.-.-.",
"-.  p p 8 8 8     p p p p p 8 8 8 8 8 8 8 8 8 8 8 8 8 8 8 8 8 8 8 8 8 8 8 8 8 8 8 8 8 8 8 8 8 8 8 8 8 p p p p p p p c   -.-.-.-.",
"-.  p p 8 8 8 8     p p p 8 8 8 8 8 8 8 8 8 8 8 8 8 8 8       . @ * 4 8 8 8 8 8 8 8 8 8 8 8 8 8 8 8 8 p p p p p p p p   -.-.-.-.",
"-.  p p p 8 8 8 8   p p p 8 p p 8 8 8 8 8 8 8 8 8 8 8     . . . . . # 4 8 8 8 8 8 8 8 8 p p p 8 8 8 8 8 p p p p p p p p   -.-.-.",
"-.  c p p p 8 8 8   p p p 8 8 p p p p p p 8 8 8 8 8 =   . . . . . . . & 8 8 8 8 p p p p p p p 8 p 8 8 8 p p p 8 p p p p   R -.-.",
"-.    p p p p p 8 8   p p 8 8 8 8 8 p p p p 8 8 8 8   . . .     . . . . 4 8 8 8 p p p p p 8 p p 8 8 8 8 p p p 8 p p p p   T -.-.",
"-.-.  j p p p p p 8 p p p 8 8 8 8 8 8 p p p p 8 8 ,   . .         . .   : 8 8 8 p p p p 8 8 8 8 8 8 8 8 p p p p 8 p p p j   -.-.",
"-.-.    p p p p p p p p p 8 8 8 p p p p p p 8 8 8 ,   . .         . .   : 8 8 8 8 8 8 p p p p 8 8 8 8 8 p p p p 8 p p p p   -.-.",
"-.-.    p p p p p p p p p 8 8 p p p p 8 8 8 8 8 8 8   . . .     . . .   4 8 8 8 8 8 8 8 8 p p p 8 8 8 8 p p p p 8 8 i p p   R -.",
"-.-.-.    p p p p p p p p 8 8 8 8 8 8 8 8 8 8 8 8 8 * . . . . . . .   % 8 8 8 8 8 8 8 8 8 8 8 8 8 8 8 p p p p p 8 8 p p p   H -.",
"-.-.-.      i p p p p p p 8 8 8 8 8 8 8 8 8 8 8 8 8 4 $ . . . .     @ 1 8 8 8 8 8 8 8 8 8 8 8 8 8 8 8 p p p p p   8 8 p p   B -.",
"] -.-.-.-.  p p p p p p p 8 8 8 8 8 8 8 8 8 8 8 8 8 8 4 & . . . . % , 8 8 8 8 8 8 8 8 8 8 8 8 8 8 8 8 p p p p p   8 8 p p   H -.",
"c W -.-.-.    p p p p p p p 8 8 8 8 8 8 8 8 8 8 8 8 8 8 8 8 ; - 4 8 8 8 8 8 8 8 8 8 8 8 8 8 8 8 8 8 8 p p p p p   8 8 p p   x -.",
"p   L J F B     p p p p p p 8 8 8 8 8 8 8 8 8 8 8 8 8 8 8 8 8 8 8 8 8 8 8 8 8 8 8 8 8 8 8 8 8 8 8 8 p p p p p p   8 8 8 p   x -.",
"B                 p p p p p p 8 8 8 8 8 8 8 8 8 8 8 8 8 8 8 8 p 8 8 8 8 8 8 8 8 8 8 8 8 8 8 8 8 1 8 p p p p p p       8 8   F -.",
"]   8 8 8 8 8 8   s p p p p p 8 8 8 8 8 8 8 8 8 8 8 8 8 8 8 8 p p 8 8 8 8 8 8 8 8 8 8 8 8 8 8 8 8 p p p p p p p p   `   j   ] -.",
"-.T     p 8 8 8 8     p p p p p 8 8 8 8 8 8 8 8 8 8 8 8 8 8 8 p p 8 8 8 8 8 8 8 8 8 8 8 8 8 8 8 8 p p p p p p p p   -.  k   +.-.",
"-.o.m   p p p 8 8 8   p p p p p 8 8 8 8 8 8 8 8 8 8 8 8 8 8 p p p 8 8 8 8 8 8 8 8 8 8 8 8 8 8 q p p p p p p p p p   -.-.    -.-.",
"-.-.] L     p p p 8 8   p p p p p 8 8 8 8 8 8 8 8 8 8 8 8 8 p p p p 8 8 8 8 8 8 8 8 8 8 8 8 8 p p p p p 8 p p p   ] -.-.    -.-.",
"-.-.-.-.R     p p p p p p p p p p p 8 8 8 8 8 8 8 8 8 8 8 8 p p p p 8 8 8 8 8 8 8 8 8 8 8 8 p p p p p p 8 p p p   R -.-.  -.-.-.",
"-.-.-.-.-.` H     p p p p p p p p p p 8 8 8 8 8 8 8 8 8 8 8 p p 8 p 8 8 8 8 8 8 8 8 8 8 8 u p p p p p 8 8 p p p   ` -.-.-.-.-.-.",
"-.-.-.-.-.-.-.-.    p p p p p p p p p p 8 8 8 8 8 8 8 8 8 8 p p 8 p 8 8 8 8 8 8 8 8 8 8 p p p p p p 8 8 8 p p   F -.-.-.-.-.-.-.",
"-.-.-.-.-.-.-.-.-.]       l p p p p p p p 8 8 8 8 8 8 8 8 p p p 8 p p 8 8 8 8 8 8 8 8 p p p p p p p 8 8 8 p p   / -.-.-.-.-.-.-.",
"-.-.-.-.-.-.-.-.-.-.-./       p p p p p p e p 8 8 8 8 8 8 p p 8 8 8 p 8 8 8 8 8 1 r p p p p p p p 8   8 p p p   -.-.-.-.-.-.-.-.",
"-.-.-.-.-.-.      +.o./ Z t i   i p p p p p p p 8 8 8 8 8 8 8 8 8 8 p 8 8 8 8 8 p p p p p p p p 8     8 p p   B -.-.-.-.-.-.-.-.",
"-.-.-.-.-.-.W                     i p p p p p p p p 8 8 8 1 8 8 8 8 8 8 8 8 p p p p p p p p p 8 8   8 8 p p   W -.-.-.-.-.-.-.-.",
"-.-.-.-.-.-.-.    8 8 8 8 8 8 8 8     p p p p p p p p p 8 8 8 8 8 8 8 p p p p p p p p p p p p 8   8 8 8 p   F o.-.-.-.-.-.-.-.-.",
"-.-.-.-.-.-.-.-.    p p 8 8 8 8 8 8     p p p p p p p p p p p p p p p p p p p p p p p p p p p   d   8 8 p   ` -.-.-.-.-.-.-.-.-.",
"-.-.-.-.-.-.-.-.-.`     p p p p 8 8 8 8   p p p p p p p p p p p p p p p p p p p p p p p p     ]     8 p   B -.-.-.-.-.-.-.-.-.-.",
"-.-.-.-.-.-.-.-.-.-.W         p p p p p p p p p p p p p p p p p p p p p p p p p p p p p p   T -.-.  8   L -.-.-.-.-.-.-.-.-.-.-.",
"-.-.-.-.-.-.-.-.-.-.-.-.` H c           p p y i p s p 8 8 8     8 p p p p p p p p p p p   ` -.-.      / -.-.-.-.-.-.-.-.-.-.-.-.",
"-.-.-.-.-.-.-.-.-.-.-.-.-.-.+.] / T F                     8 8 8 p p p p p p p p p p     -.-.-.      W -.-.-.-.-.-.-.-.-.-.-.-.-.",
"-.-.-.-.-.-.-.-.-.-.-.-.-.-.-.-.-.-.-.] ` -.-.-.-.-.    8 8 8 p p p p p p p p p j   J -.-.-.-.-.] ` -.-.-.-.-.-.-.-.-.-.-.-.-.-.",
"-.-.-.-.-.-.-.-.-.-.-.-.-.-.-.-.-.-.-.-.-.-.-.-.R   8 8 8 8 p p p p p p p p p     ] -.-.-.-.-.-.-.-.-.-.-.-.-.-.-.-.-.-.-.-.-.-.",
"-.-.-.-.-.-.-.-.-.-.-.-.-.-.-.-.-.-.-.-.-.-.-.    8 8 8 p p p p p p p p       F ] -.-.-.-.-.-.-.-.-.-.-.-.-.-.-.-.-.-.-.-.-.-.-.",
"-.-.-.-.-.-.-.-.-.-.-.-.-.-.-.-.-.-.-.-.-.-.-.-.                        / o.-.-.-.-.-.-.-.-.-.-.-.-.-.-.-.-.-.-.-.-.-.-.-.-.-.-.",
"-.-.-.-.-.-.-.-.-.-.-.-.-.-.-.-.-.-.-.-.-.-.-.-.-.-.-.-.-.` T / / ` ] -.-.-.-.-.-.-.-.-.-.-.-.-.-.-.-.-.-.-.-.-.-.-.-.-.-.-.-.-.",
"-.-.-.-.-.-.-.-.-.-.-.-.-.-.-.-.-.-.-.-.-.-.-.-.-.-.-.-.-.-.-.-.-.-.-.-.-.-.-.-.-.-.-.-.-.-.-.-.-.-.-.-.-.-.-.-.-.-.-.-.-.-.-.-."
};
