/* XPM */
static const char *exit[] = {
/* columns rows colors chars-per-pixel */
"64 64 130 2 ",
"   c #000003",
".  c #01020C",
"X  c #08090C",
"o  c #030411",
"O  c #040A13",
"+  c #0C0C17",
"@  c #0C0E1B",
"#  c #0B131A",
"$  c #121319",
"%  c #0E1520",
"&  c #141722",
"*  c #161A25",
"=  c #1A1B27",
"-  c #171F28",
";  c #191C28",
":  c #1D222B",
">  c #24242C",
",  c #23282C",
"<  c #212632",
"1  c #242A34",
"2  c #2B2D35",
"3  c #292D39",
"4  c #2D333C",
"5  c #30353F",
"6  c #2F3440",
"7  c #343741",
"8  c #343B44",
"9  c #393F4A",
"0  c #3D434C",
"q  c #434A53",
"w  c #474F5A",
"e  c #494F58",
"r  c #4D535C",
"t  c #53595F",
"y  c #4E5862",
"u  c #515660",
"i  c #535B64",
"p  c #555D68",
"a  c #5A5F69",
"s  c #586067",
"d  c #57616B",
"f  c #59626B",
"g  c #5D686C",
"h  c #5D6670",
"j  c #60656E",
"k  c #63696F",
"l  c #606770",
"z  c #646B74",
"x  c #696D77",
"c  c #6C727B",
"v  c #72767F",
"b  c #6E7880",
"n  c #727781",
"m  c #737A83",
"M  c #787D87",
"N  c #777F8A",
"B  c #7B838C",
"V  c #7B8590",
"C  c #80858E",
"Z  c #818690",
"A  c #848A94",
"S  c #888F97",
"D  c #888F9A",
"F  c #8A9297",
"G  c #8D959D",
"H  c #8F999F",
"J  c #91969F",
"K  c #939A9F",
"L  c #8F98A0",
"P  c #9197A1",
"I  c #939BA4",
"U  c #999EA6",
"Y  c #969EA8",
"T  c #999EA9",
"R  c #96A0A9",
"E  c #9BA2AB",
"W  c #9FA8AB",
"Q  c #9FA7B2",
"!  c #A1A6AD",
"~  c #A2A8AF",
"^  c #A0A7B1",
"/  c #A2A8B1",
"(  c #A3AAB4",
")  c #A4ABB4",
"_  c #A4ACB4",
"`  c #A8ADB5",
"'  c #A6ADB9",
"]  c #A9AEB8",
"[  c #ABB1B5",
"{  c #A8B0B9",
"}  c #ACB3BB",
"|  c #B4B9C2",
" . c #B2B9C4",
".. c #B9C2C8",
"X. c #BBC3CC",
"o. c #BEC6CC",
"O. c #C5C7CC",
"+. c #C8CBCC",
"@. c #C5CCD1",
"#. c #C9CED8",
"$. c #CAD2D6",
"%. c #CED1D9",
"&. c #CAD3DC",
"*. c #CDD2DC",
"=. c #CFD5DC",
"-. c #D0D3DB",
";. c #D2D7DD",
":. c #D3D9DE",
">. c #D6DDE3",
",. c #D9DDE4",
"<. c #D7DFE8",
"1. c #DCDEEB",
"2. c #DAE0E9",
"3. c #DEE3EB",
"4. c #E0E7ED",
"5. c #E1E8EC",
"6. c #E8E9EF",
"7. c #E4E7F2",
"8. c #E4EAF2",
"9. c #E5ECF1",
"0. c #EAEEF3",
"q. c #E8EEF5",
"w. c #EAF1F6",
"e. c #ECF1F8",
"r. c #EDF3FB",
"t. c #F0F3FA",
"y. c #F1F6FE",
"u. c #F4FBFF",
"i. c #FBFEFF",
"p. c white",
/* pixels */
"f f f f f f f f f f f f f f f f f f f f f f f f f f f f f f f f f f f f f f f f f f f f f f f f f f f f f f f f f f f f f f f f ",
"f f f f f f f f f f f f f f f f f f f f f f f f f f f f f f f f f f f f f f f f f f f f f f f f f f f f f f f f f f f f f f f f ",
"f f + + + + + + + + + + + + + + + + + + + + + + + + + + + + + + + + + + + + + o f f I I Y Y Y R h d f 6 & %.=.E P P Y f f f f f ",
"f f + + + + + + + + + + + + + + + + + + + + + + + + + + + + + + + + + + + + + + + + q 0 0 0 O + O O . o $ -.J I P P Y I f f f f ",
"f f + + + + + + + + + + + + + + + + + + + + + + + + + + + + + + + + + + + + + + + + ] { { { ' { { l L I I I I I P I I I f f f f ",
"f f + + + + + + + + + + + + + + + + + + + + + + + + + + + + + + + + + + + + + + + + I I I I I I Y r &.j B P I I I I I I f f f f ",
"f f + + + + + + + + + + + + + + + + + + + + + + + + + + + + + + + + + + + + f f + f I I I I I I I W O 1 * f I I P I Y I f f f f ",
"f f + + + + + + + + + + + + + + + + + + + + + + + + + + + + f f f f f f f f f f + + I I Y B x l f c # O & j : Y P I I I f f f f ",
"f f + + + + + + + + + + + + + + + + + + + + + + + + + + + + f I f I f I f f f f + + I I I Y   <.3._ P . =.G [ O I I Y Y I f f f ",
"f f + + + + + + + + + + + + + + + + + + + + + + + + + + + + f I f f f f f f f f + + I I I Y o E Y Y Y . H I K I m I Y I I I f f ",
"f f + + + + + + + + + + + + + + + + + + + + + + + + + + + + f P f f f f f f f f + + I I I E o l E Y P < I I P P P c P I I I f f ",
"f f + + + + + + + + + + + + + + + + + + + + + + + f f f + + f P f f f f f f f f + + I I I m P p.c I b I I I P I P I I I I I f f ",
"f f + + + + + + + + + + + + + + + + + + + f f f f f f f f + f Y f f f f f f f f + + I I I I I I P 4 L I I P P I I I I I I I f f ",
"f f + + + + + + + + + + + + + + + + + + f f Y Y f Y f f f + f E f f f f f f f f + + Y I I I I I I A I I I I I I I I I I I I f f ",
"f f + + + + + + + + + + + + + + + + + + f f Y Y f Y f f f + + Y f f f f f f f f f + Y I P P P I I q I I I I I I I I I I I i f f ",
"f f + + + + + + + + + + + + + + + + + + f f Y Y f Y f f f f + m f f f f f f f f f + I I I P P P Y I I I I I I P I I I I I f f f ",
"f f + + + + + + + + + + + + + + + f f + f f Y Y f Y f f f f +   f f f f f f f f f + I I I I Y Y x E I I I I Y I Y Y H c q q f f ",
"f f + + + + + + + + + f f f f f f f f + + f I Y f I f f f f + I f f f f f f f f f + I I Y I I T . P I P I Y I Y Y v . { / Y f f ",
"f f + + + + + + + + + I I f f f f f f + + f P I f Y f f f + + I f f f f f f f f f + I I I I F r . Y P P I Y I Y U c 2.I I I f f ",
"f f + + + + + + + + f q l E G f g g g f + f + f I f f f f + f 7 f f f f f f f f + + s I I I g . . i I I I I l 4 . O H I I I f f ",
"f f + + + + + + + + f i.p.f | f   f g f + + . f . f f f f f + p.p.f f f f f f f + +     . .   2 > r.I C 5   2.*.X.I I I I I f f ",
"f f f f + + + f f + f I I f I f P f f f + + p.f p.f f f f + + I I f Y f Y f f f + + t.3.q.4.8._ J I I I P 1 H I I I I I I I f f ",
"f f f f f f f f f + f Y Y f Y f Y f f f + f p.f p.f f f f + + I I f Y f Y f f f + f p.U Y I I I I Y I I c 1 P P I I I I I I f f ",
"f f I I Y I f f x + f Y Y f Y Y f f f + + f Y f Y f f f f + f I I f Y f Y f f f + + 1.T E Y I P I H Y n f . H P P I I I f f f f ",
"f f P I I I f f f + f P Y f P P f f f + + f Y f Y f f f f + + Y Y f Y f Y f f f f + @ @ @ @ @ @ @   o 8 Q % P P I I I f f f f f ",
"f f I f I I f f f + f Y Y Y f P f f f + f f Y f Y f f f f + + Y Y f Y f Y f f f + + @ @ @ @   @ @ T I I I o Y P I I I f f f f f ",
"f f I f I I f f f + f Y Y Y f I f f f + f f Y f Y f f f f + + Y Y f Y f Y f f f + + p.I I Y Y @ @  .I I I . Y P P P I I I f f f ",
"f f I f I P f f f + f Y Y Y f I f f f f + f Y f Y f f f f + + f Y f Y f I f f f + + Y Y Y Y I Y @ @ ( P I A Y P P P I I I f f f ",
"f f I I f P f f f + f Y Y Y f I f f f f + f Y f Y f f f f + + Y f f f f Y f f f + + I I I I I I Y @ @ Y P A W P P P I I I f f f ",
"f f I I f I f f f + f I Y Y f I f f f f + f Y f f f f f f + + Y f f Y f Y f f f + + P I I I I I I Y I @   @ P P I I I I I f f f ",
"f f I I f P f f f + f Y I Y f P f f f f + f Y f f f f f f + + I f f Y f Y f f f + + P I I I I I I I I H Y @ Y P I I I I I I f f ",
"f f I I f Y f f f + f P I I f P f f f f + f Y f f f f f f + + I f f Y f Y f f f + + P I I P P P P P P I I E   E I I I P P A f f ",
"f f I I f I f f f + f P I Y P f f f f f + f Y f f f f f f + + I f f Y f Y f f f + + P I P P P P I I I I I Y @ - P E / Y 8 p.f f ",
"f f I I f I f f f + f P I Y I f f f f f + f Y f f f f f f + + Y f f Y f f f f f + + I I P I I P I I P I P P @ A . 5 ` r...P f f ",
"f f I I f I f f f + f Y F E Y f f f f f + f Y f f I f f f + + Y f f f f f f f f + + I P I I I I I I I I I I c . ~ j ;.I I I f f ",
"f f I I f I f f f + f i ( } m f f f f f + f Y f f I f f f + + g f f f g f f f f + + I I I I I I I I I I I I x . 2 w.E Y P I f f ",
"f f I I f I f f f + f Y P P Y f f f f f + f Y f f I f f f + + : f f f & f f f f + + Y I I I I I P P P I I I z . A F Y P P P f f ",
"f f I I I f f f f + + Y P I Y f f f f f + f Y f f I f f f + + I f f I I f f f f + + Y I I I P P P P P I I I 4 z U Y P P P P f f ",
"f f I I I f f f f f f q x i   A f f f f + f I I I P f f f + + I f I I I f f f f + + I I P P P P P P I I I - G K P Y I I P P f f ",
"f f I I f I f f f f f + + ~ [ u.f f f f + f q I P P f f f + f I f I I f f f f f + + I I I P P P Y P P I f 4 H P P I I Y P f f f ",
"f f I I f I f f f f f + + r.r.6.$.f f + + f o 7 i f f f f + f I f P f f f f f f + + Y c a i i i g i A / z G I P P I I P f f f f ",
"f f P P f I f f f f + + 4.r.,.t x f f + f f . L W : f f f + f I P f f f f I f f f + + o O . .   . u J Y i P I I I I P P f f f f ",
"f f P P f P f f f f + + P I I I I f f + f + f Y P X f f f + f I P f f f f I f f f + * . +.8.3.P E Z 9 . . ) P I I I P Y f . f f ",
"f f I I f P f f f f +   I P f I I f f + + f f m I f f f f + f P P f f f f i f f + + O o.9.E P I I I Y Y Y f I I Y I P P w o f f ",
"f f f f f f f f f + + : W P f I Y f f + + f f     f f f f + + P I f f f f 0 f f + + u.O.g k m R _ ) ~ W P g P Y R B g f . o f f ",
"f f     f     f f + +   M m f f f f f + + f f I Y f f f f + + B f h f f o f f f + f J f P c q.w.r.u.v c x c         . . o = f f ",
"f f H P f I 3 . f + + I I I f f I f f + + f f I I f f f f + + < f f f f r.f f f + f H I I P I P I K I I I Y L H G x y.,.3.R f f ",
"f f P P I I < f f + + I I Y f f I f f + + f f f I f f f + + + o f o f f y.f f f + f I I I I I I I I I K P I I I Y e o.Y I I f f ",
"f f I I I I . f f + f I I I f f I f f f + f f f Y f f f O + +   f o f f u.f f + + f P I I I I I I I I I I I I I Y 9 H I I I f f ",
"f f I U I . . . f + f I I I f f f f f f + f f f Y f f f + + f P f E f = y.f f + + f I I I I I I I I I I I I I Y I S I I I I f f ",
"f f . I I I I I   + f I I I f f f f f f + f Y f W f f f + + f I f I f > y.f f + + f I I I I I I I I I I I I I I I Y I I I I f f ",
"f f I I I I I j f + f i I I f f f f f f + f y.f f f f f + + f Y Y T f : 5.f f + + f I I I I I I I I I I I I I I I I I I I g f f ",
"f f I I f y.y.y.i.+ + + 1 c f f f f f f + f I f f f f f + + f Y Y P . f 0.f f + + f Y Y Y Y I Y Y Y I f f f I g 0 7   q q q f f ",
"f f ; u.f I I f f f + + 3.: f f f f f f + f I f f f f f + + f Y P A o f 9.f f + + f d f g d g g g g g g f f f f o 4 I I I I f f ",
"f f . 5.I f I f f f + + I E f f f f f f + f I f f f f f + + f D i p o f f f f + + f E B V y g f f f f ; o f f f f I I I I I f f ",
"f f >.q I f I f f f + P P P f f f f f + + f I f f f f f o + f . o . . f f I f f + f I Y l 1 O #   * o + o . 3.f I I I I x : f f ",
"f f G f 9.f I f f + + I I I f f f f f + f f I f f f f f f + f i.p.p.! f f n f f + f : g E I P I T < o o .   ,.I I I f f f r.f f ",
"f f P f i f I f f + + Y Y Y f f f f f + f f Y f f f f f f + f P P P W f g o o 3 + + E Y Y Y I I E 3 D Y U 5 7.I I # w.f I f f f ",
"f f P f X f I f f + + Y Y I f Y f f f + f f Y f f f f f f + f P I I Y f g . Q r.+ + Y Y Y Y I I E 1 T E W . a D   t.:.H I I f f ",
"f f P f g I f f f + + Y I I f Y f f f + f f Y f Y f f f f + + I I Y Y f h O } f f + Y Y Y Y I I m , @.o.) r : + #.| K I I I f f ",
"f f P f c I f f f + + F I I f Y f f f + f f Y f Y f f f f f + Y E 4 ^ f 9 # 8.f f + Y Y Y Y I c X @.Y I I j m >.P I I I I I f f ",
"f f I I Y I I f f f + Y I I f Y f f f + + f Y f Y Y f f f f f E 1 m E f 1 W I f f + 3 N ' I c . 3.W H P I g E P I I I I I I f f ",
"f f f f f f f f f f f f f f f f f f f f f f f f f f f f f f f f f f f f f f f f f f f f f f f f f f f f f f f f f f f f f f f f ",
"f f f f f f f f f f f f f f f f f f f f f f f f f f f f f f f f f f f f f f f f f f f f f f f f f f f f f f f f f f f f f f f f "
};
