/* XPM */
static const char *f_stand[] = {
/* columns rows colors chars-per-pixel */
"64 64 3 1 ",
"  c black",
". c #FF0021",
"X c None",
/* pixels */
"XXXXXXXXXXXXXXXXXXXXXXXXXXXXXXXXXXXXXXXXXXXXXXXXXXXXXXXXXXXXXXXX",
"XXXXXXXXXXXXXXXXXXXXXXXXXXXXXXXXXXXXXXXXXXXXXXXXXXXXXXXXXXXXXXXX",
"XXXXXXXXXXXXXXXXXXXXXXXXXXXXXXXXXXXXXXXXXXXXXXXXXXXXXXXXXXXXXXXX",
"XXXXXXXXXXXXXXXXXXXXXXXXXXXXXXXXXXXXXXXXXXXXXXXXXXXXXXXXXXXXXXXX",
"XXXXXXXXXXXXXXXXXXXXXXXXXXXXXXXXXXXXXXXXXXXXXXXXXXXXXXXXXXXXXXXX",
"XXXXXXXXXXXXXXXXXXXXXXXXXXXXXXXXXXXXXXXXXXXXXXXXXXXXXXXXXXXXXXXX",
"XXXXXXXXXXXXXXXXXXXXXXXXXXXXXXXXXXXXXXXXXXXXXXXXXXXXXXXXXXXXXXXX",
"XXXXXXXXXXXXXXXXXXXXXXXXXXXXXXXXXXXXXXXXXXXXXXXXXXXXXXXXXXXXXXXX",
"XXXXXXXXXXXXXXXXXXXXXXX..........XXXXXXXXXXXXXXXXXXXXXXXXXXXXXXX",
"XXXXXXXXXXXXXXXXX.....................XXXXXXXXXXXXXXXXXXXXXXXXXX",
"XXXXXXXXXXXXXX............................XXXXXXXXXXXXXXXXXXXXXX",
"XXXXXXXXXXXX................................XXXXXXXXXXXXXXXXXXXX",
"XXXXXXXXXX.....................................XXXXXXXXXXXXXXXXX",
"XXXXXXXXX........................................XXXXXXXXXXXXXXX",
"XXXXXXX...........................................XXXXXXXXXXXXXX",
"XXXXXX..............................................XXXXXXXXXXXX",
"XXXXX................................................XXXXXXXXXXX",
"XXXX..................................................XXXXXXXXXX",
"XXX.....................................................XXXXXXXX",
"XXX....................   ...............................XXXXXXX",
"XX....................    ...............................XXXXXXX",
"X.........................................................XXXXXX",
"X.......................................   ................XXXXX",
"X.......................................   .................XXXX",
".........................................  .................XXXX",
".............................................................XXX",
"..............................................................XX",
"..............................................................XX",
"..............................................................XX",
"...............................................................X",
"...............................................................X",
"...............................................................X",
".................     .........................................X",
"..................    .........................................X",
"X..................    ........................................X",
"X..................    ........................................X",
"X...................    ....................    ...............X",
"XX...................      ...............      ...............X",
"XX....................           ... .          ...............X",
"XXX.....................                    .. ................X",
"XXXX......................               .....................XX",
"XXXX..........................   .............................XX",
"XXXXX.........................................................XX",
"XXXXXX.......................................................XXX",
"XXXXXXX.....................................................XXXX",
"XXXXXXXX....................................................XXXX",
"XXXXXXXXX..................................................XXXXX",
"XXXXXXXXXX................................................XXXXXX",
"XXXXXXXXXXXX.............................................XXXXXXX",
"XXXXXXXXXXXXX...........................................XXXXXXXX",
"XXXXXXXXXXXXXXX.......................................XXXXXXXXXX",
"XXXXXXXXXXXXXXXXX...................................XXXXXXXXXXXX",
"XXXXXXXXXXXXXXXXXXXX..............................XXXXXXXXXXXXXX",
"XXXXXXXXXXXXXXXXXXXXXX..........................XXXXXXXXXXXXXXXX",
"XXXXXXXXXXXXXXXXXXXXXXXXXX..................XXXXXXXXXXXXXXXXXXXX",
"XXXXXXXXXXXXXXXXXXXXXXXXXXXXXXXXXXXXXXXXXXXXXXXXXXXXXXXXXXXXXXXX",
"XXXXXXXXXXXXXXXXXXXXXXXXXXXXXXXXXXXXXXXXXXXXXXXXXXXXXXXXXXXXXXXX",
"XXXXXXXXXXXXXXXXXXXXXXXXXXXXXXXXXXXXXXXXXXXXXXXXXXXXXXXXXXXXXXXX",
"XXXXXXXXXXXXXXXXXXXXXXXXXXXXXXXXXXXXXXXXXXXXXXXXXXXXXXXXXXXXXXXX",
"XXXXXXXXXXXXXXXXXXXXXXXXXXXXXXXXXXXXXXXXXXXXXXXXXXXXXXXXXXXXXXXX",
"XXXXXXXXXXXXXXXXXXXXXXXXXXXXXXXXXXXXXXXXXXXXXXXXXXXXXXXXXXXXXXXX",
"XXXXXXXXXXXXXXXXXXXXXXXXXXXXXXXXXXXXXXXXXXXXXXXXXXXXXXXXXXXXXXXX",
"XXXXXXXXXXXXXXXXXXXXXXXXXXXXXXXXXXXXXXXXXXXXXXXXXXXXXXXXXXXXXXXX",
"XXXXXXXXXXXXXXXXXXXXXXXXXXXXXXXXXXXXXXXXXXXXXXXXXXXXXXXXXXXXXXXX"
};
