/* XPM */
static const char *floor[] = {
/* columns rows colors chars-per-pixel */
"64 64 160 2 ",
"   c #000003",
".  c #01020C",
"X  c #08090C",
"o  c #040311",
"O  c #090714",
"+  c #040A13",
"@  c #0B0C16",
"#  c #070C18",
"$  c #0C0E1B",
"%  c #0C131B",
"&  c #11131D",
"*  c #0F1620",
"=  c #131621",
"-  c #161A25",
";  c #1A1C26",
":  c #161D29",
">  c #1B1D2A",
",  c #1D222B",
"<  c #22232C",
"1  c #22282D",
"2  c #222631",
"3  c #242A33",
"4  c #292C35",
"5  c #292D39",
"6  c #2C323B",
"7  c #30353F",
"8  c #2F3440",
"9  c #333742",
"0  c #383745",
"q  c #343A44",
"w  c #393E47",
"e  c #373F49",
"r  c #3D444C",
"t  c #3E4650",
"y  c #41484F",
"u  c #404651",
"i  c #434B54",
"p  c #494C56",
"a  c #474F5A",
"s  c #494F58",
"d  c #4D545D",
"f  c #51545D",
"g  c #53595F",
"h  c #4E5862",
"j  c #515660",
"k  c #535B64",
"l  c #5A5F65",
"z  c #585F68",
"x  c #566266",
"c  c #586067",
"v  c #56616B",
"b  c #5B636D",
"n  c #5E696D",
"m  c #5D6570",
"M  c #5F6871",
"N  c #60656E",
"B  c #62696F",
"V  c #616770",
"C  c #636B74",
"Z  c #696D76",
"A  c #676F78",
"S  c #66747A",
"D  c #6C737C",
"F  c #72767F",
"G  c #6E7981",
"H  c #727781",
"J  c #737A83",
"K  c #787E87",
"L  c #777F89",
"P  c #7A7F8A",
"I  c #778089",
"U  c #7B838B",
"Y  c #7D8690",
"T  c #80858E",
"R  c #828690",
"E  c #848B94",
"W  c #888E97",
"Q  c #898F9A",
"!  c #879095",
"~  c #8A9297",
"^  c #879299",
"/  c #8C949C",
"(  c #8E989E",
")  c #91969E",
"_  c #929A9F",
"`  c #8F96A0",
"'  c #8F98A0",
"]  c #9197A1",
"[  c #939BA4",
"{  c #999EA6",
"}  c #969EA8",
"|  c #999FA9",
" . c #95A0A6",
".. c #96A0A9",
"X. c #99A1AA",
"o. c #9DA1AB",
"O. c #9AA2AC",
"+. c #9CA2AC",
"@. c #9CA4AD",
"#. c #9EA5AC",
"$. c #9FA8AB",
"%. c #9FA7B2",
"&. c #9EA8B0",
"*. c #A0A5AF",
"=. c #A1A6AE",
"-. c #A2A8AF",
";. c #A1A7B0",
":. c #A6ACB3",
">. c #A4ABB4",
",. c #A4ACB5",
"<. c #A8ADB5",
"1. c #A6ADB9",
"2. c #A9AEB8",
"3. c #AAB0B4",
"4. c #A8B0B9",
"5. c #ABB2BA",
"6. c #ABB3BA",
"7. c #ABB3BC",
"8. c #B2B8BE",
"9. c #B6B9C1",
"0. c #B4B9C3",
"q. c #B9BDC0",
"w. c #BDC4CB",
"e. c #BFC8CD",
"r. c #C1C3CE",
"t. c #C3C7CD",
"y. c #C3C9CE",
"u. c #C8CBCC",
"i. c #C4CCD2",
"p. c #CCCFD4",
"a. c #C9CED8",
"s. c #CFCFDC",
"d. c #CAD2D6",
"f. c #C8D3DB",
"g. c #CED1D9",
"h. c #CDD5DA",
"j. c #CAD3DC",
"k. c #CFD5DC",
"l. c #D0D3DB",
"z. c #D2D7DD",
"x. c #D3D9DE",
"c. c #D4D8E0",
"v. c #D7DEE3",
"b. c #D9DEE4",
"n. c #D7DFE8",
"m. c #DCDEEB",
"M. c #DBE1E5",
"N. c #DDE3EB",
"B. c #E1E5ED",
"V. c #E2E9ED",
"C. c #E8E9EF",
"Z. c #E3E7F1",
"A. c #E5ECF2",
"S. c #EAEDF4",
"D. c #EAF2F6",
"F. c #EDF3FB",
"G. c #F0F3FB",
"H. c #F1F6FD",
"J. c #F5FDFF",
"K. c #FEFFFF",
/* pixels */
"/ [ [ [ [ [ [ ` b P [ [ [ [ [ [ [ }   . o R q.[ [ [ [ [ [ E [ [ [ [ [ [ [ [ b . f.[ [ [ [ [ [ [ M v b j . Z V b k.[ [ [ [ O.l l ",
"k [ [ [ [ [ ( b b K [ [ [ [ [ [ [ [   o o X q.[ [ [ [ [ [ [ [ [ [ [ } } [ [ k . [ [ [ } } } } [ v v v d . c.h.6 } [ [ [ } } / l ",
"} [ [ [ [ [ b b b U [ [ [ [ [ [ } | 7 . s.. 9.[ [ [ [ [ [ [ [ [ [ [ } } [ ( b + } } [ [ } } } ..m v v 8 = g.k.O.[ [ } } } } [ l ",
"[ } } [ } b b b A :.[ [ [ } } b b N 5 X Z   r.[ [ [ [ [ [ [ [ [ D j t r [ [ b     < i r r r # $ + + . o & l.) [ [ [ } [ [ [ [ z ",
"[ [ } } [ b b b e b b [ b b z   b b b b ) @.w [ [ [ [ [ [ [ [ + Z ,.7.7.} % + G. .| <.5.5.5.1.5.5.V ` [ [ [ [ [ [ [ [ [ [ [ [ z ",
"[ ..b b b b b v 3 r b b & . b ;.[ _ [ [ [ [   % [ [ [ [ [ [ [ [ [ [ [ [ [ b % z.[ [ [ [ [ [ [ [ } d j.N U ] [ [ [ [ [ [ [ [ [ z ",
"m m b b b b b + z b b b b ] +.[ [ [ [ [ [ [   } } [ } [ [ 6 } [ [ [ } d b b , ..[ [ [ [ [ [ [ [ [ @.+ 3 - v [ [ [ [ } [ [ [ [ z ",
"b b b b b b . C b b @.[ [ ] ~ [ [ [ [ [ [ X.2 } } } } [ [ q / [ [ [ [ [ [ b # O.[ [ [ [ } U Z V b D % + = N , } [ [ [ [ [ [ [ z ",
"b b b b k > b b [ } [ [ [ [ 3 } [ [ [ [ [ [ C E [ [ [ [ o.b } [ [ [ [ [ [ b . [ [ [ [ [ [ }   n.N.,.[ . k./ 3.+ [ [ } } [ [ [ z ",
"v b b b > + b | [ } [ [ [ } < *.[ [ [ [ [ [ [ r [ [ [ [ 4 U [ [ [ [ [ [ [ b . [ [ [ [ [ [ } + O.} } } . ( [ _ [ J [ } [ [ [ [ z ",
"  m m 2 b b [ [ [ } [ [ [ ] J.E } [ [ [ [ [ } E 9 [ [ [ . | ( [ [ [ [ [ [ b D O.[ [ [ [ [ X.+ V O.} [ 2 [ [ [ [ [ D [ [ [ [ b z ",
"  . . o b [ [ [ [ } [ [ [ [ [ ~ [ [ [ [ [ [ } [ @.. v [ O B. .[ [ [ [ [ } b ~ ( [ [ [ [ [ J [ K.D [ G [ [ [ [ [ [ [ [ [ [ [ v z ",
"[ 9 o @ b [ [ [ [ [ [ [ [ [ [ [ [ [ [ [ [ [ [ [ } O.z b   > i.} [ [ [ [ @.[ [ [ [ [ [ [ [ [ [ [ [ 6 ( [ [ [ [ [ [ [ [ [ [ [ v z ",
"[ | 2 o b _ [ [ [ [ [ [ [ [ [ [ [ [ } [ [ [ [ [ } } [ [ [ k b O.[ [ [ } r [ [ } } } } [ [ [ [ [ [ E [ [ [ [ [ [ [ [ [ [ [ [ z z ",
"[ [ k $ b [ [ [ [ [ [ [ [ [ [ [ [ [ [ [ [ [ } } } } [ [ [ *.@ } [ [ [ @.v.~ [ [ } } } [ [ [ [ [ [ i [ [ [ [ [ [ [ [ [ [ [ k z z ",
"[ O.i 2 b [ [ [ [ [ [ [ [ [ [ [ [ [ } [ [ [ } } } } [ [ [ [ o J O.[ [ z } [ [ [ } [ [ [ [ [ [ [ } [ [ [ [ [ [ [ [ [ [ [ [ v o z ",
"O.n } b . [ [ [ [ [ [ [ [ [ [ [ [ [ } [ [ } } } } } [ [ } [ [   } [ } [ [ } } [ [ [ [ [ [ [ } } Z O.[ [ [ [ } [ } } ( D i i + o ",
"U [ [ O.. b [ [ [ [ [ [ [ [ [ [ [ [ } [ b b [ } } [ [ [ [ [ [ [ 5.[ [ [ [ } [ [ [ [ [ [ } [ [ | . [ [ [ [ } [ } } F . 5.>.} [ [ ",
"_ [ } [ 6 6 O.| [  .[ [ [ [ [ [ [ [ } b b ; [ [ [ } [ [ [ [ [ [ 6 ~ [ [ [ [ [ [ [ [ [ [ [ [ / d . } [ [ [ } [ } | D N.[ [ [ [ [ ",
"K.K.K.K.K.K.d u + $ @ i V O./ b b b b b b . [ } [ [ [ k v k j 9 4 v D C [ [ E z k x c [ [ [ b . . j [ [ [ [ V 6 . + ( [ [ [ [ [ ",
"K.[ [ [ [ [ [ [   J.K.J.K.K.9.%   b b   o o . . .   [ J.K.K.K.K.K.K.K.K.O       . +     . .   4 < F.[ T 7   N.g.w.[ [ [ [ [ [ [ ",
"[ [ [ } } [ [ [ ] M.[ [ [ [ [ [ ] < . $ K.K.K.K.K.K.K./ } [ [ [ [ [ } [ v $ $ >.>.. G.N.S.B.A.,.) [ [ [ ] 3 ( [ [ [ [ [ [ [ [ [ ",
"[ [ [ [ [ [ [ [ @.D [ } } } } [ } ) . K.K.K.K.K.K.K.} } } } [ [ [ [ } [ L $ $ / [ $ K.| } [ [ [ [ } [ [ D 3 [ [ [ [ [ [ [ [ [ v ",
"[ [ [ [ } [ } [ Z r [ } } } } [ } [ [ . K.K.} } } [ [ [ } [ [ [ } } } [ v $ @ / [ $ m.| O.} [ [ [ ( } H b . ( [ [ [ [ [ [ E v v ",
"[ [ [ [ [ [ [ } N...V [ } } [ [ [ [ [ @.. 3 } } } } [ [ [ [ [ [ } } } } v $ $ ^ } $ $ $ $ $ $ $ $   o q %.* [ [ [ [ [ [ j d v v ",
"[ [ [ [ [ [ } } } >.d } } } [ [ [ [ [ [ >.. } } } } [ [ [ [ } [ } } } } k + $ $ $ $ $ $ $ $   $ $ | [ [ [ + } [ [ [ [ [ } E z v ",
"[ [ [ [ [ [ } } } ( v } [ } [ [ [ [ [ [ } d } } } } } } } v v } } } } } v   K.K.K.K.K.[ [ } } $ $ 9.[ [ [ . } [ [ [ [ [ [ [ E v ",
"[ } [ [ [ [ } } } } % } [ [ [ [ [ [ [ [ } b } } } [ } [ | 6 v v } } } } v K.K.K.v.( } } } } [ } $ $ >.[ [ E } [ [ [ [ [ [ [ [ [ ",
"[ } [ [ [ [ [ [ [ [ r } } } [ [ [ [ [ } } v } } } } [ [ } } } } [ [ [ } d K.b.| [ [ [ [ [ [ [ [ } $ $ } [ E @.[ [ [ [ [ [ [ [ [ ",
"[ } [ [ [ [ [ [ [ [ , [ } } [ [ [ [ [ } Y 9 } } } } [ [ } [ } } [ [ } k r K.[ _ [ [ [ [ [ [ [ [ [ } [ $   $ [ [ [ [ [ [ [ [ [ [ ",
"[ } [ [ [ [ v v [ [ . } [ } [ [ [ [ [ } U . } } [ } [ [ [ } } [ [ [ [ } @ @ ' [ [ [ [ [ [ [ [ [ [ [ [ ( } $ } [ [ [ [ [ [ [ [ . ",
"[ } [ [ [ } . v [ [ ~ [ [ [ [ [ [ [ [ } U . } } [ } [ [ [ } } [ [ [ [ [ . @ [ [ [ [ [ [ [ [ [ [ [ [ [ [ [ O.  O.[ [ [ [ [ E v v ",
"[ } [ [ [ [ [ [ [ } [ [ [ } [ [ [ [ [ } J . } [ [ } } } } } } [ [ [ } b @ @ [ [ [ [ [ [ [ [ [ [ [ [ [ [ [ } $ : [ O.>.} q K.v v ",
"[ [ [ [ [ [ } O.[ [ [ [ [ } [ [ [ [ [ O.9 . } [ [ [ [ } } } } } } } [ v @ @ [ [ [ [ [ [ [ [ [ [ [ [ [ [ [ [ $ E . 7 <.F.w.[ [ v ",
"[ [ [ [ [ [ ] F.[ } [ } ~ O.} [ } ` E v . K.} [ [ [ } } } } } } } } [ v @ @ v [ [ [ [ [ [ _ [ [ [ [ [ [ [ [ D . *.N z.[ [ [ [ v ",
"[ [ [ [ [ [ [ } j i + k >.7.J % j b V 6 o K.} [ [ [ b b v b b b b b v v @ @ M J.[ [ [ [ [ [ [ [ [ [ [ [ [ [ Z . 4 D.O.} [ [ [ v ",
"[ [ [ [ [ [ } [ ` } | } [ [ } @.O.@.+.>.o K.} [ } [ b   - ; , , - = & - @ @ m +.[ [ [ [ [ [ [ [ [ [ [ [ [ [ C . E ~ } [ [ [ [ v ",
"[ [ [ [ [ [ [ [ [ [ [ } [ [ } i . @.E 2., / } [ [ [ [ [ [ [ } [ [ [ [ [ [ [ j [ [ [ [ [ [ _ [ [ [ [ [ [ [ [ 6 C | [ [ [ [ [ [ v ",
"[ [ [ [ [ [ [ [ [ [ [ i Z k   E H.A.[ } P : [ [ [ [ } [ [ [ [ [ [ [ [ [ [ [ # [ ) [ [ [ [ [ [ [ [ [ [ [ [ : / _ [ } [ [ [ [ v v ",
"[ [ [ [ [ [ [ [ [ [ | g + *.3.J.S.D.[ [ [ m i [ [ [ [ } [ [ [ [ [ [ [ [ [ [ O.. / [ [ [ [ [ [ [ } [ [ [ b 6 ( [ [ [ [ } [ v v . ",
"[ [ [ [ [ [ [ [ [ [ ( . J.F.D.C.d.O.[ [ [ z o 9 j v B [ [ [ [ [ [ [ [ [ [ [ } } . ( } D z k j j b j E >.C / [ [ [ [ [ [ v v @ o ",
"[ [ [ [ [ [ [ [ [ [ } . V.F.b.g Z [ [ [ } 5 . ` @., [ [ [ [ [ [ [ [ [ [ [ [ } } V w @ o + . .   . j ) } k ] [ [ [ [ [ [ v v o o ",
"[ [ [ [ [ [ [ [ [ [ L   [ [ [ [ [ } [ [  .b . } [ X / [ [ [ [ [ [ [ [ [ [ [ ..j v v - . u.A.N.[ O.R w . . >.[ [ [ [ [ [ z . o o ",
"d } [ [ [ [ [ [ [ [ G   [ [ [ [ [ } } E v z . J [ 9 Z [ [ [ [ [ [ [ [ [ [ k b v C & + w.A.+.[ [ [ [ } } } v [ [ } [ [ ] a o o o ",
"v v v v v v v Z D O.I , @.[ [ [ } [ V b V @         k } [ [ [ [ [ [ [ } v r . ; p.S.J.t.b B J ..,.>.-.@.[ b [ } } U b z . o o o ",
"              . . . o   K J J V 6 . [ p d [ [ [ } [ @ V @.O.[ U Z m k D o f S.h.e.[ ) ] [ D S.D.F.J.F D Z D         . . o ; z z ",
"[ _ ( ] [ [ 5 . [ [ [ [ [ [ [ . [ [ [ [ [ O.[ [ [ [ [   3 2 2 2 3 o   . F.S.{ _ [ [ ( [ ) [ [ [ [ _ [ [ [ } ' ( / Z H.b.N...v z ",
"[ [ [ [ [ [ 2 0 [ [ [ [ [ [ . [ [ [ [ [ Z A.[ [ [ [ [ [ o . . o X o . o H.F.y [ } _ _ [ [ [ [ [ [ [ [ _ [ [ [ [ } s e.} [ ' z z ",
"[ } [ [ [ [ . [ [ [ [ [ [ [ [ [ [ [ [ [ [ } [ [ } [ [ [ # w 9     o o > J.H.g } } [ [ [ [ [ [ [ [ [ [ [ [ [ [ [ } q ( [ [ [ z z ",
"} [ [ | [ . . . [ [ [ [ [ [ [ [ [ [ [ [ [ } [ [ } [ } i K.~ ~ [ ) o.o ; H.! [ [ [ [ [ [ [ [ [ [ [ } } [ [ [ [ } [ W [ [ [ [ z z ",
"[ [ . [ [ [ [ [     4 [ [ [ [ [ [ [ [ [ [ [ } [ @.>.b e.[ [ [ [ [ [ . < H.  @.[ [ [ [ [ [ [ [ [ }  .d [ [ [ [ [ [ } [ [ [ [ z z ",
"2.r [ [ [ [ [ N v q . k [ [ [ [ O.l 3   r B.H.J.w.i.  K._ [ [ } } | o , B...i.[ [ [ [ [ [ [ [ } [ :.h.[ [ [ [ [ [ [ [ [ [ b i z ",
". j [ [ [ H.H.H.J.J.K.@ 3 D [ [ j r B.V.C.S.[ [ [ [ 5.l [ [ [ } } ] . , S./ [ [ } } } } } } [ } } } [ [ [ [ [ b r 9   i i i i [ ",
"[ [ > J.t.[ [ [ [ [ 7.V.N., d W - N.S.S.[ [ [ [ [ [ [   ( [ } } [ E o > A.@.U d k v v v b v b b b n b b m r 2   o 6 [ [ [ [ [ [ ",
"[ / . V.[ [ [ [ [ [ [ [ [ o.Z.$ S.S.[ [ [ [ [ [ [ [ } Z -.[ ~ Q k z o ; t.[ @.[ [ [ O.U Y h m v v v v > o o . o.[ [ [ [ [ [ j , ",
"h.v.v.i [ [ [ [ } [ [ [ [ [ [ | = [ [ [ [ [ [ [ [ [ [ | o o o . o . . y.) [ [ [ [ [ [ } V 3 + %   - o @ o X N.| [ [ [ [ Z , F.F.",
"_ [ / i A.[ [ [ } [ } [ [ [ [ D 4 [ [ [ [ [ [ [ [ [ [ } U J.K.J.K.K.*.8.@ H ,.[ [ O., b O.[ [ [ | 2 o o .   b.[ [ [ 1 . w.F.F.F.",
"[ [ [ [ j [ [ [ [ [ } } } } b b C [ [ [ [ [ [ [ } [ [ [ M.[ [ _ [ [ @.} b o o 5 6 O.O.} } } [ [ +.5 Q } | 7 Z.[ g % D.i.F.F.[ [ ",
"[ [ [ } X [ [ [ [ [ } } } } b b v . [ [ [ } } } } [ [ [ H.( [ [ [ [ } ` b . %.F...[ } } } } [ [ +.3 | O.@.. z Q   H.x.( [ [ [ [ ",
"[ [ [ [ b [ [ [ [ [ } } } b b b b .   | [ [ } } } [   [ Z.[ [ [ [ } } v m + 5.D...[ } } } } [ [ K 1 i.e.>.d , @ a.9._ [ [ [ [ [ ",
"[ [ [ [ D [ [ [ [ [ } ~ * b b m r . @   [ [ } } } [ } [ ) [ } } O.6 ;.m w % Z...I :.} } } } [ D X i.[ [ [ N J v.[ [ [ [ [ [ [ v ",
"[ [ [ [ } [ [ [ [ [ } } +.b b b + G.S.| C 6 } } } } [ [ [ [ [ ..3 J O.m 3 @.[ } @.E 5 L 1.[ D . N.$.( [ [ b o.[ [ [ [ [ [ [ v v ",
"[ } } } } [ [ [ [ [ } [ b b b b   A.] } Q z . u : ( [ [ [ [ [ } } } ~ V   } } [ [ } [ X.~ v . J.{ [ [ [ [ b [ [ [ [ [ [ [ v v v ",
"} } } } [ j [ [ [ [ } [ b b b b   S.[ X.m m = o ) K [ O.&.G v z C D S b X ` } [ } } } [ X.j 9 [ [ [ [ [ [ b [ [ [ [ [ v v v v v "
};
