/* XPM */
static const char *floor[] = {
/* columns rows colors chars-per-pixel */
"64 64 59 1 ",
"  c #4C4547",
". c #4E4649",
"X c #4F484B",
"o c #51494C",
"O c #564E51",
"+ c #5E5354",
"@ c #605557",
"# c #615759",
"$ c #655B5D",
"% c #695E5E",
"& c #6B605F",
"* c #675D60",
"= c #695F60",
"- c #6D6262",
"; c #736767",
": c #746867",
"> c #746768",
", c #756969",
"< c #796C6D",
"1 c #7B706F",
"2 c #7C7372",
"3 c #827474",
"4 c #867877",
"5 c #877978",
"6 c #8D7F7C",
"7 c #8E807D",
"8 c #90827F",
"9 c #8F8180",
"0 c #918381",
"q c #928482",
"w c #938584",
"e c #948584",
"r c #978887",
"t c #918B8A",
"y c #968E8E",
"u c #9D918F",
"i c #979592",
"p c #999191",
"a c #9A9796",
"s c #9D9796",
"d c #9B9896",
"f c #9C9897",
"g c #9D9999",
"h c #9F9B9B",
"j c #9F9C9B",
"k c #A09A9A",
"l c #A59B99",
"z c #A09D9B",
"x c #A69C9B",
"c c #A19D9E",
"v c #A79F9E",
"b c #AA9F9E",
"n c #A4A09F",
"m c #A9A09E",
"M c #A7A1A2",
"N c #ABA1A0",
"B c #ACA2A0",
"V c #AFA5A4",
"C c #ADA8A7",
/* pixels */
"l6,$og:$7;,,,,,$7:,,,,,$V677776<34,,,,,<$6,,,,,,$6,,,,,:$8,,,,,:",
"x6,$og:$6;,,,,,$6:,,,,,$6-,,,,:%<4:,,,,,$6,g,;a,$6,,,,,,$6,,,,,:",
"6,,,,,,$7:,,,,,$6,,,,,,$8;z-,a<=<4:,,,,,$6;,:,:,$6,,,,,,$7,,,,,:",
",$$$$$$X6:,,,,,$7,,,,,,$8;,,,,,=<4:,,,,<$,$$$$$$.7,,,,,:$6,,,,,:",
"x667667,6:,,,,,$6,,,,,,$8;,,,,,=<5,,,,,,#x777776<7,,,,,,$6,,,,,:",
"6:,,,,,$6:,,,,,$6,g,,a,$8;,,,,,=<4,,,,,<$7;,,,,,$6,,,,,:$7:d,,g:",
"6,a::g,$6,,,,,,$6,,,,,,$0;,,,,,=<4,,,,,<$6,g::i,$6,,,,,,$6,,,,;;",
"6,,,,,,$6:,,,,,$,$$$$$$.q;:,,,,=<5,,,,,,$6,,,,,,$7,,,,,,$,$$$$$=",
"7,,,,,,$6:,,,,,$b677777;7;,,,,,=<4,,,,,,$6,,,,,,$6,,,,,,$x667677",
"7,,,,,:$6:,,,,,$7,:::::$8;:,,,,=<52f,-n<$6,,,,,,$6:,,,,,$7:::::;",
"7,,,,,:$7:,,,,,$6,d,,g:=0;,,,,,=<4<,,,<,$6,,,,,,$6,,,,,:$6,g:,a:",
"7,,,,,,$6:,,,,,$7,,,,,,*0;,,,,,=->$$$$$$ 6,,,,,,$6,,,,,:$7,,,,,:",
"6,,,,,:$6:,,,,,$6,,,,,,=0;,,,,,%5u677777,6,,,,,,$7,,,,,,$6,,,,,:",
"6,,,,,:$6:c,,i:$6,,,,,,$7;,,,,,-<4,,,::,$6,,,,,,$6,i,,c,$6,,,,,:",
"7,,,,,,$6:,,,:<$6,,,,,,*0;,,,,,=<52p,-c:$6,,,,,,$7,,,,,:$6,,,,,:",
"7,,,,,:$,$$$$$$X7,,,,,,*0;,,,,,=<5,,,,<<$6,,,,,,$,$$$$$$X7,,,,,:",
"7,,,,,:$b677777,7:,,,,,$0;,,,,,-<5,,,,,<$6,,,,,,$x677778,7,,,,,:",
"7,,,,,,$7<,,,,:$6:,,,,,*8;M-,s2=<5,,,,,<$6,,,,,,$7,,,,,,$6,,,,,:",
"7,,,,,:$6:a,,c<$6,,,,,,$0;,,,,,-<5,,,,,<$6,,,,,,$7,,,,,,$6,,,,,:",
"7,,,,,:$6:,,,<,$6,,,,,,=,$$$*==+-5,,,,,<$6,,,,,,$7,,,,,:$6,,,,,:",
"6,,,,,,$7:,,,,,$7,,,,,,$m666666235,,,,,<$6,,,,,,$7,,,,,:$6,,,,,:",
"7,a,,a,$7:,,,,,$6:,,,,,$0,,,,,,%<5,,,,,<$6;a,<d,$7,,,,,,$6,,,,,:",
"6,,,,:,$7:,,,,,$6:,,,,,*0;c;,s2=<5,,,,,<$6,;,:,,$7,,,,,:$6,,,,,:",
":$$$$$$X7:,,,,,$7:,,,,,$0;<,,<,%<5,,,,,<$;$$$$$$.7,,,,,:$6,,,,,:",
"N787070<6:,,,,,$7:,,,,,=0;,,,,,%<5,,,,,<+b700807<6,,,,,,$6,,,,,:",
"6;,,,,,$7:,,,,,$7:c,,a,$0;,,,,,%<5,,,,,,$4;;;;;,$7,,,,,,$6,z,,c:",
"6<z,,c,$7:,,,,,$6:-,,&;$0;,,,,,%<5,,,,,<$7,M:<c,$7,,,,,:$7:-,,-;",
"7,-:,;,$6:,,,,,$-###$$$.q;,,,,,%<5,,,,,<$7,-,,;,$7,,,,,,$;#@$#$+",
"7,,,,,:$7:,,,,,$Brqqqee<7;,,,,,%<5,,,,,<$7,,,,,,$7,,,,,,$Bqqqwee",
"7,,,,,:$7:,,,,,$7<,,,,,$7;,,,,,%<51a,-m<$7,,,,,,$7,,,,,:$7,,,,,<",
"7,,,,,:$6:,,,,,$6,p,:y,$0;,,,,,%<5,2,;2,$0:,,,,,$7,,,,,,$6,y,,t,",
"7,,,,,:$7:,,,,,$7,4,,5:$0;,,,,,%;,=====-o7,,,,,,$7,,,,,,$6,4,,2,",
"7,,,,,:$7:,,,,,$7,,,,,,$0;,,,,,%<5<<<<<2#7,,,,,,$7,,,,,:$6,,,,,,",
"6,,,,,:$7:2,,3,$7,,,,,,$0;,,,,,%3e555556;7,,,,,,$7<2,,2:$6,,,,,,",
"7,,,,,:$6:y,,p<$7,,,,,,$0;,,,,,%<4,2,,2<$7,,,,,,$7,p,,y:$6,,,,,,",
"7,,,,,:$9;,,,<,$7,,,,,,$0;,,,,,%<42s,>v<$7,,,,,,$7,,<<<<$7,,,,,,",
"7,,,,,:$-++++++.7,,,,,,$0;,,,,,%<4,,,,,<$7,,,,,,$-++@++@.6,,,,,,",
"7,,,,,:$bqq0000<7,,,,,,$0;;;,-;%<4,,,,,<$7,,,,,,$b000q0q<6,,,,,,",
"6,,,,,:$6:-,:;,$6,,,,,,#0;C-,v2%<4,,,,,,$7,,,,,,$6<;,,-,$7,,,,,,",
"6,,,,,:$7,j,,c<$7,,,,,,$r:,,,,,-<4,,,,,<$0,,,,,,$7,g,,z,$6,,,,,,",
"7,,,,,:$6,,,,,,$7,,,,,,$;#$$$$#O-4,,,,,<$7,,,,,,$7,,,,,,$7,,,,,,",
"7,;,,,,$7,,,,,,$7,,,,,,$b577776<34,,,,,<$7,:,,,,$7,,,,,,$7,,,,,,",
"6,a,,g,$7,,,,,,$7,,,,,,$8>,,,:,%<4,,,,,<$7:g,,d,$7,,,,,,$6,,,,,,",
"8,;;;,;$7,,,,,,$7,,,,,,$8>M;,k2-<4,,,,,<$7:;;,;,$7,,,,,,$7,,,,,,",
",$$$$=$X7,,,,,,$7,,,,,,$0,,,,,,%<4,,,,,<$,*$$$$=.7,,,,,,$6,,,,,,",
"l676667,6,,,,,,$7,,:,<:$0;,,,,,=<4,,,,,<#x666666>7,,,,,,$7,,,,,,",
"6,,,,,,$6,,,,,,$7,a,,d,$0:,,,,,%<4,,,,,<$7,<,,,:=7,,,,,,$7,g,,i,",
"7,f,,a,$6,,,,,,$7:,,,,,$0,,,,,,-<4,,,,,<$6;d,<g,$7,,,,,,$7,,,,,,",
"7,,,,,,$6,,,,,,$;$$$$$$.0;,,,,,%<4,,,,,<$6,,,,,,$7,,,,,,$;$$$$$-",
"7,,,,,,$7,,,,,,$b677777,7:,,,,,=<4,,,,,<$6,,,,,,$7,,,,,,$x676776",
"7,,,,,,$7,,,,,,$7,,,,,<$0;,,,,,=<42f,%c<$6,,,,,,$7,,,,,,$7,;:,;,",
"6,,,,,,$7,,,,,,$7,c<,a:$0:,,,,,%<5,,,,,<$6,,,,,,$7,,,,,,$7,a,,g,",
"6,,,,,,$6,,,,,,$6,,,,,,$0>,,,,,--;$$$$$= 6,,,,,,$7,,,,,,$7,,,,,,",
"7,,,,,,$7,,,,,,$6,,,,,,$0;,,,,,%5u676667:6,,,,,,$7,,,,,,$6:,,,,,",
"7,,,,,,$7,a,,g,$7,,,,,,$0;,,,,,=<4,<,,,<$6,,,,,,$7;c,,a,$7,,,,,,",
"7,,,,,,$6,,,,,,$7,,,,,,$0;,,,,,=<52p,-v<$6,,,,,,$7,,,,,,$6,,,,,,",
"7,,,,,,$;$$$$$$X6,,,,,,$0;,,,,,%<5,,,,,<$6,,,,,,$:=$$$$$X7,,,,,,",
"7,,,,,,$b777776,6,,,,,,$0,,,,,:-<5,,,,,<$6,,,,,,$l677778,6,,,,,,",
"7,,,,,,$6,,,,:,$6,,,,,,$0;j%,s2=<5,,,,,<$6,,,,,,$6,;,,,,$6,,,,,,",
"6,,,,,,$7:g,,a;$6,,,,,,$0,,,:,:%<5,,,,,<$6,,,,,,$7;a,,g,$7,,,,,,",
"7,,,,,,$7:,,,,,$6,,,,,,$,$$$$$$O-5,,,,,<$6,,,,,,$7,,,,,,$7,,,,,,",
"7,,,,,,$7:,,,,,$7,,,,,,$m666777135,,,,,<$6,,,,,,$7,,,,,,$7,,,,,,",
"7,g,,g;$7:,,,,,$7,,,,,,$6;,,,,,%<5,,,,,<$6,a,,a,$7,,,,,,$7,,,,,,",
"6,,,,,,=6:,,,,,$6,,,,,,$0,g-,s1=<5,,,,,<$6,,,,,,=7,,,,,,$7,,,,,,"
};
