/* XPM */
static const char *_[] = {
/* columns rows colors chars-per-pixel */
"64 64 156 2 ",
"   c #7A3F3F",
".  c #774143",
"X  c #76464D",
"o  c #7A444B",
"O  c #9E563F",
"+  c #803A46",
"@  c #814546",
"#  c #864A4A",
"$  c #8F4B4D",
"%  c #9C5643",
"&  c #945B44",
"*  c #9C5843",
"=  c #9D554B",
"-  c #9D584D",
";  c #9F5650",
":  c #9E5C52",
">  c #9B5D59",
",  c #A2554C",
"<  c #A25A4E",
"1  c #A25752",
"2  c #A15B52",
"3  c #A45A58",
"4  c #AA654E",
"5  c #B06E4F",
"6  c #AF734D",
"7  c #B4724C",
"8  c #BA764E",
"9  c #BC784D",
"0  c #AB6551",
"q  c #AE6955",
"w  c #AD6658",
"e  c #AB6E59",
"r  c #B36D54",
"t  c #AF7550",
"y  c #B47354",
"u  c #BD7654",
"i  c #BE7A56",
"p  c #B4725A",
"a  c #BC7559",
"s  c #B6785A",
"d  c #BF7A58",
"f  c #BF7760",
"g  c #B27860",
"h  c #BE7A62",
"j  c #C17757",
"k  c #C27A55",
"l  c #C87D53",
"z  c #C3775A",
"x  c #C27B5B",
"c  c #C87E5A",
"v  c #C37D61",
"b  c #BF805D",
"n  c #BB8C6C",
"m  c #BC8C73",
"M  c #BC9576",
"N  c #BE9579",
"B  c #CD8856",
"V  c #C8805C",
"C  c #D08758",
"Z  c #D68C5B",
"A  c #D88E5B",
"S  c #DF935F",
"D  c #E1935F",
"F  c #E39E5C",
"G  c #EC9E5D",
"H  c #EDA25E",
"J  c #F0A15D",
"K  c #C18064",
"L  c #CB8161",
"P  c #C78B6C",
"I  c #DD9361",
"U  c #DF9869",
"Y  c #C39372",
"T  c #C49778",
"R  c #CB9379",
"E  c #C2987C",
"W  c #D39571",
"Q  c #EA9D61",
"!  c #E7A566",
"~  c #EDA261",
"^  c #EEA260",
"/  c #EDA363",
"(  c #EDA561",
")  c #EAA565",
"_  c #EDA665",
"`  c #ECAA60",
"'  c #EEA865",
"]  c #E6A56B",
"[  c #ECA46A",
"{  c #EFA96B",
"}  c #F0A262",
"|  c #F1A564",
" . c #F1A566",
".. c #F1A767",
"X. c #F1A967",
"o. c #F0A96D",
"O. c #EFA770",
"+. c #ECAD75",
"@. c #F3A771",
"#. c #F1B073",
"$. c #BE9284",
"%. c #CEB89A",
"&. c #D5B59B",
"*. c #F2BB88",
"=. c #F3BC89",
"-. c #D5B4A2",
";. c #DAB4A3",
":. c #D6BFA6",
">. c #DABEA7",
",. c #DBBDAC",
"<. c #F5C99F",
"1. c #F6CD9F",
"2. c #FCD19F",
"3. c #CDCAAF",
"4. c #CDCCAE",
"5. c #D6C6AF",
"6. c #DEC3AB",
"7. c #DBC4AB",
"8. c #D1C9AF",
"9. c #CFC6B3",
"0. c #C7CBB3",
"q. c #CDC9B5",
"w. c #CFC9B5",
"e. c #CEC2BC",
"r. c #CCCDB9",
"t. c #D3C7B2",
"y. c #D1C6B4",
"u. c #DAC3B6",
"i. c #D1C8B3",
"p. c #D3CAB3",
"a. c #D5C3BB",
"s. c #D6C2BA",
"d. c #D2C4B9",
"f. c #D5C4BA",
"g. c #D7C2BE",
"h. c #D2C6BC",
"j. c #D2C9B9",
"k. c #D7CCBB",
"l. c #DBCDBB",
"z. c #D9CEBF",
"x. c #DDCCBF",
"c. c #D7D1B9",
"v. c #D9D1B8",
"b. c #FCC7A0",
"n. c #FEC7A0",
"m. c #F5C9A3",
"M. c #F5CCA1",
"N. c #FBCBA3",
"B. c #FCD0A5",
"V. c #ECC3B1",
"C. c #EEC8B2",
"Z. c #E2CBBF",
"A. c #FFCCB2",
"S. c #D7C2C1",
"D. c #E1CCC1",
"F. c #ECD6C6",
/* pixels */
"<.J d 2 o d.i 2 ^ i d d d d d 2 ^ i d z d d d 2 A.^ ^ ^ ^ ^ ^ B Z S k z d d d x , H i i z d d d < ( k d d d d i 2 ^ s z d d d i ",
"m.H d 2 o d.i 2 H i z d d d d 2 H i z d d d d 2 ( 8 k k k k i 4 l S i d d d d x = H j e.d i 0.d 2 ^ d z d d d d 2 H d d d d d i ",
"H d d d d d i : ^ i d d d d d 2 H i z d d d d : | u v.y d >.n 0 c S i d d d d x - ^ i d i k i d 2 ^ d d d d d d 2 ^ d d d d d i ",
"d 2 2 2 2 2 2 o ^ i d d d d d 2 ^ i d d d d d 2 | u d d d d d 0 c S i d d d d x 2 d 2 2 2 2 2 2 o } d d d d d i 2 ^ d d d d d i ",
"m.H H ^ H H ^ d H i d d d d d 2 H i d d d d d 2 | u d d d d d 0 c D d d d d d x - 1.^ ^ ^ ^ ^ H z ^ d d d d d d 2 H d d d d d i ",
"H i k i z z i - H i d d d d d 2 H i h.k d 9.i : | u d d d d d 0 c S d d d d d x , ^ i i d d d d : ^ d d d d d i 2 ^ d y.d d s.i ",
"H d w.i i d.d 2 ^ k d d d d d 2 H i d z d k d 2 | u d d d d d 0 c S d d d d d x - ^ d j.i k 3.d 2 ^ d d d d d d 2 H d d d d i i ",
"^ d z d d z i 2 H i d d d d d 2 i 2 2 2 2 2 2 o | u i d d d d 0 l D d d d d d x - H z z d d z d 2 ^ d d d d d d 2 i 2 2 2 2 2 2 ",
"^ d d d d d i 2 H i d d d d d 2 n.) ^ ^ ^ ^ ^ u _ u d d d d d 0 c S d d d d d x - ^ d d d d d d 2 ^ d d d d d d - m.H H ^ H ^ ^ ",
"^ d d d d d i 2 ^ i d d d d d 2 ) d i i i i i 2 | u i d d d d 0 c D m 6.d 7 l.x - ^ d d d d d i 2 ^ i d d d d d 2 ^ i i i i i i ",
"^ d d d d d i : ^ i d d d d d 2 H i i.k d j.i 3 | u d d d d d 0 c I d z d z f x - ^ d d d d d d 2 ^ d d d d d i 2 H d f.i d t.i ",
"^ d d d d d i : H i d d d d d 2 ^ i d d d d d 2 _ u d d d d d 0 q p 2 2 2 2 2 2 . ^ d d d d d d 2 ^ d d d d d i 2 ^ i d d d d i ",
"^ d d d d d i 2 H i d d d d d 2 H i d z d d d 2 | u d d d d d 4 R =.H ^ ^ ^ ^ ` j ^ d d d d d i 2 ^ d d d d d d 2 H d d d d d i ",
"^ d d d d d i 2 ^ i g.d d 3.i 2 H d d d d d d 2 _ u d d d d d 0 c S z k i i i x , ^ d d d d d d 2 ^ i 4.d d s.d 2 H d d d d d i ",
"^ d d d d d i 2 H i d d d i h 2 H d d d d d d 2 | u d d d d d 0 c I n :.k 5 z.i - ^ d d d d d d 2 ^ d d d d d i 2 H d d d d d i ",
"^ d d d d d i : i 2 2 2 2 2 2 o ^ i d d d d d 2 | u d d d d d 0 c I k d d z z v - ^ d d d d d i 2 d 2 2 2 2 2 2 o ^ i d d d d i ",
"^ d d d d d i : n.) ^ ^ ^ ^ ^ d ^ i d d d d d 2 | u d d d d d 0 c I d d d d d x - ^ d d d d d i : m.^ ^ ^ ^ ^ } z ^ i d d d d i ",
"^ d d d d d i 2 ) v i i i i i 2 H i d d d d d 2 | u Z.y d 6.m 0 c I d d d d d x - ^ d d d d d d 2 _ i i i i i d 2 H d d d d d i ",
"^ d d d d d i 2 H i i.d d g.h 2 H i d d d d d 2 | u i z d k d 0 c I d d d d d x - ^ d d d d d i 2 ^ d d d d d d 2 H d d d d d i ",
"^ d d d d d i 2 ^ i k d d z z 2 H d d d d d d 2 d 1 2 2 2 3 3 $ y I d d d d d x - ^ d d d d d i 2 ^ d d d d d i 2 ^ d d d d d i ",
"^ d d d d d i : ^ i d d d d i 2 ^ i d d d d d 2 B.G H H H H H Z Z I d d d d d x - ^ d d d d d d 2 ^ d d d d d i 2 H d d d d d i ",
"^ z y.d d 9.k 2 ^ i d d d d d 2 ^ i d d d d d 2 | k z z z z z 4 c I d d d d d x - ^ d w.d x y.d 2 ^ d d d d d d 2 H d d d d d i ",
"^ d d d d i d : ^ i d d d d d 2 H i d d d d d 2 _ u l.p z ,.n 4 c I d d d d d x - ^ k d d i d i 2 ^ d d d d d i 2 ^ d d d d d i ",
"u 2 2 2 2 2 < o ^ i d d d d d 2 ^ i d d d d d 2 | u z d d K z 4 c I d d d d d x : 9 2 < 2 2 < 2 o ^ d d d d d i 2 ^ i d d d d i ",
"N.) | ' | _ | x ^ i d d d d d 2 ^ i d d z d d 2 | u d d d d d 0 c I d d d d d x & N.' | | | | ' z ^ d d d d d d 2 H d d d d d i ",
"Q 9 j d j j k ; ^ i d d d d d 2 ^ i l.x z t.d 2 | u d d d d d 4 c I d d d d d d , F u u u u u d 1 ^ d d d d d i 2 H z l.d d k.i ",
"H x v.z d l.d 2 ^ i d d d d d 2 ^ i y k d t i 2 | u d d d d d 4 c I d d d d d x - _ x Z.i z l.d 2 ^ d d d d d i 2 ^ i y d d y i ",
"^ x y i d y k 2 ^ i d d d d d 2 8 = = = - ; = + | u d d d d d 0 c S d d d d d x - _ k e d z y d : ^ d d d d d d 2 8 = = = - - * ",
"^ x d d d d i : ^ i d d d d d 2 B.@.o.{ o.o.o.h ( u d d d d d 4 c I d d d d d x - _ d d d d d d : ^ d d d d d d 2 B.o.o.o.O.@.@.",
"^ x d d d d i : ^ i d d d d d 2 ] l k l l l l < _ u d d d d d 4 c I n ;.d e C.v - _ d d d d d d : ^ d d d d d i 2 ] l l l l l l ",
"^ d d d d d i 2 ^ i d d d d d 2 H i ;.j i &.d < | u d d d d d 0 c I d n d u m d - [ i d d d d d : ^ d d d d d d 2 H d -.z k %.d ",
"^ x d d d d i : ^ i d d d d d 2 ^ i T d d $.i - | u d d d d d 4 p k 0 0 0 0 0 q @ _ d d d d d d : ^ d d d d d d 2 ^ z E d d N d ",
"^ x d d d d i : ^ i d d d d d 2 ^ i z d i z d - | u d d d d d 4 h W c c c c c L - _ d d d d d d : ^ d d d d d i 2 ^ d z d d z d ",
"H d d d d d i 2 ^ i M d d Y z 2 ^ i d d d d d - | u d d d d d 0 P +.I I I I I U r _ d d d d d d : ^ z Y d d N i 2 ^ d d d d d d ",
"^ x d d d d i 2 ^ i &.d d ;.d 2 ^ i d d d d d - | u d d d d d 0 c I d n d i m v - _ d d d d d d : ^ d -.d k &.i 2 ^ d d d d d d ",
"^ x d d d d i : [ i d d d h d > ^ i d d d d d - | u d d d d d 4 c I n ,.d g V.v - _ d d d d d d : [ d d d h d h > ^ d d d d d d ",
"^ x d d d d i 2 y O % % % % %   ^ i d d d d d - | u d d d d d 4 c I d d d d d v - _ d d d d d d 2 y % % % * * %   ^ d d d d d d ",
"^ x d d d d i 2 2.| { ' ' ' { v ^ i d d d d d - | u y i d e u 4 c I d d d d d v - _ d d d d d d : B.{ [ X.X.X.o.v ^ d d d d d d ",
"H d d d d d i : H i 7 d i y d 2 ^ i d d d d d - | u F.r d C.m 0 c I d d d d d b - _ d d d d d d : H d y d k 7 d : ^ d d d d d d ",
"^ x d d d d i 2 ^ i k.i d l.k 2 ^ i d d d d d - #.k x x x x x w V I d d d d d v - _ d d d d d d : ^ k i.d d l.d 2 ^ d d d d d d ",
"^ x d d d d i 2 ^ i z d d z z 2 ^ i d d d d d - s = - - - - - # y I d d d d d v - _ d d d d d d : ^ d z d d z d 2 ^ d d d d d d ",
"^ d s d d d i 2 ^ i d d d d d 2 ^ i d d d d d - N.F ^ ^ ^ ^ ( B A I d d d d d v - _ d i d k d d 2 ^ d d d d d d 2 ^ d d d d d d ",
"H d w.d d y.d 2 ^ i d d d d d 2 ^ i d d d d d - | u x k d i d 4 c I d d d d d v - _ i s.d k w.d 2 ^ d d d d d d 2 ^ d d d d d d ",
"} d i i i a u 1 ^ i d d d d d 2 ^ i d d d d d - | u D.p d u.n 0 c I d d d d d x - _ i i i s i i : ^ d d d d d d 2 ^ d d d d d d ",
"d 2 2 2 2 3 2 o ^ i d d d d d 2 ^ i d d d d d - | u d d d d d 0 c I d d d d d v : i 3 : : 2 : 3 X ^ d d d d d d 2 ^ d d d d d d ",
"M.H ^ H H H ^ d ^ i d d d d d 2 ^ i k i d x i - | u d d d d d 0 c I d d d d d v - M.^ ) H H H ( u ^ d d d d d d 2 ^ d k d d k d ",
"^ d z d d k k 2 ^ i d d d d d 2 ^ i y.k d y.d - | u d d d d d 0 c I d d d d d x - ( k z d d k i 3 ^ d d d d d d 2 ^ d d.d d 3.d ",
"^ d y.d d t.z 2 ^ i d d d d d 2 ! i d d d d d - _ u d d d d d 0 c I d d d d d v - ^ i r.d j s.d 2 ^ d d d d d d 2 ^ d d d d d d ",
"^ d d d d d d 2 ^ i d d d d d 2 i < 2 2 2 2 2 o | u d d d d d 0 c I d d d d d v - ^ d z d d d d 2 ^ d d d d d d 2 i 2 2 2 : 2 3 ",
"^ d d d d d d 2 ^ i d d d d d 2 n.^ ^ ^ ^ ^ ^ i _ u d d d d d 0 c I d d d k d v - ^ d d d d d d 2 ^ d d d d d d - m.H ^ ^ ^ ^ H ",
"^ d d d d d d 2 ^ i d d d d d 2 H d d z d k d < | u d d d d d 0 c I n 7.d 7 v.v - ^ d d d d d d 2 ^ d d d d d d 2 H x i i d d d ",
"^ d d d d d d : ^ i d d d d d 2 H d S.z d w.i < | u d d d d d 4 c I d d d d z x , ^ d d d d d d : ^ d d d d d d 2 H i 8.d d u.d ",
"^ d d d d d d 2 ^ i d d d d d 2 H i d d d d d < | u d d d d d 0 q p 2 : 2 2 2 2 . ^ d d d d d d 2 ^ d d d d d d 2 ^ d d d d d d ",
"^ d d d d d d 2 ^ i d d d z d 2 H i z d d d d < | u d d d d d 0 R *.H ^ ^ ^ ^ ) u ^ d d d d d d 2 ^ d z d d d d 2 ^ i d d d d d ",
"^ d d d d d d 2 ^ i 5.d d s.d 2 ^ i d d d d d < | u d d d d d 0 l I z x d d k x , ^ d d d d d d 2 ^ d g.d d t.d 2 ^ i d d d d d ",
"^ d d d d d d 2 ) d d d d d d 2 ^ i d d d d d < | u d d d d d 0 c I m >.d r x.x - ^ d d d d d d 2 ^ d d d d d d 2 ^ i d d d d d ",
"^ d d d d d d 2 i 2 2 2 2 2 2 o H i d d d d d < | u d d d d d 0 c I z z d d d x - ^ d d d d d d 2 i 3 2 2 2 2 3 o ^ d d d d d d ",
"^ d d d d d d 2 n.( ^ ^ ^ ^ H d ^ i d d d d d < | u d d d d i 0 c I d d d d d x - ^ d d d d d d : m.^ ^ ^ ^ ^ } k ^ i d d d d d ",
"^ d d d d d d 2 H i i k k i d 2 ^ i d d d d d < | u c.6 d 7.n 0 c I d d d d d x - ^ d d d d d d 2 H d i k k i z 2 H d d d d d d ",
"^ d d d d d d 2 ^ i f.d d i.i 2 H i d d d d d < _ d d z i d i 4 c I d d d d d x - ^ d d d d d d : ^ i 8.d d f.d 2 ^ i d d d d d ",
"^ d d d d d d 2 ^ i d d d d d 2 H i d d d d d < d : 2 2 2 2 2 # y I d d d d d x - ^ d d d d d d 2 ^ d d d d d d 2 ^ i d d d d d ",
"^ d d d d d d : ^ i d d d d d 2 ^ i d d d d d < B.Q H H ^ ^ ^ C Z I d d d d d x - ^ d d d d d d : H d d d d d d 2 ^ i d d d d d ",
"^ d f.d d s.i 2 ^ i d d d d d 2 ^ i d d d d d < ) i z k d z d 0 c I d d d d d x - ^ i 9.d z 9.d 2 ^ d d d d d d 2 ^ i d d d d d ",
"H s d d d d d 2 ^ i d d d d d 2 H i d d d d d < | k i.y d >.n 0 c I d d d d d x - ^ d d d d d d 3 ^ d d d d d d 2 ^ i d d d d d "
};
