/* XPM */
static char *rcp21687040155538120[] = {
/* columns rows colors chars-per-pixel */
"32 64 9 1 ",
"  c #020101",
". c #271E1E",
"X c #992A2A",
"o c #6BB564",
"O c #A2EE9A",
"+ c #FBE9E0",
"@ c #FCEAE0",
"# c #FEFFFF",
"$ c white",
/* pixels */
"$$$$$$$$$$              $$$$$$$$",
"$$$$$$$$     .  ......   $$$$$$$",
"$$$$$$$       ...  .....   $$$$$",
"$$$$$$ XX X   .....  ....   $$$$",
"$$$$$  XX      ....    ....  $$$",
"$$$$  XX X     .....     ..   $$",
"$$$  XXX     ..  ....      .  $$",
"$$$ X XXX    .. . ....     ..  $",
"$$   XXXX.   ...  ..... ... .. $",
"$$ X XXXX.   ...  ....... . ... ",
"$  X XXXX    ....   ..... .. .. ",
"$ XX XXXX    ... .  ........ .. ",
"$ XX XX X    ... .  ........ .. ",
"$ X XX XX    ....   ........... ",
"$ X XX XX. @@ ...   .... ...... ",
"$ X XX XX @@@@ ...   ... ...... ",
"$$ X XXXX @@@@  ..   ... ...... ",
"$$ X XXX @@@$$       ... ...... ",
"$$$.   @@@$$   @@@   ... ...... ",
"$$$$ @@@@     $+@@   ...  ..... ",
"$$$$ @@@ Oo$$$$@@@   ...    . . ",
"$$$$ @@@@Oo$$$$@@@   ...     .  ",
"$$$$ @@@ oo$$$ @@@   ...     .  ",
"$$$  @@  $$$$ @@@@   ...   ..  $",
"$$$ @@@@@@@@@@@@@@  ...    .. $$",
"$$$ @@@@@@@@@@@@@@  ...    .. $$",
"$$$$  @@@@@@@@@@@@  ...   ..  $$",
"$$$$$$ XXX@@@@@@@@  ..   ... $$$",
"$$$$$$   @@@@@@@@@  ..  ...  $$$",
"$$$$$$$$$ @@@@@     ..  ..  $$$$",
"$$$$$$$$$$     $$   .. ..  $$$$$",
"$$$$$$$$$$$$  $$$  ....   $$$$$$",
"$$$$$$$$$$$$ $$$   ..   $$$$$$$$",
"$$$$$$$$$$$ $$$  ..   $$$$$$$$$$",
"$$$$$$$$$$  $$$     $$$$$$$$$$$$",
"$$$$$$$$$$ $$$$ $$$ $$$$$$$$$$$$",
"$$$$$$$$$  $$$$ $$$  $$$$$$$$$$$",
"$$$$$$$$$ $$$$$$ $$$ $$$$$$$$$$$",
"$$$$$$$$$   $$$$ $  @ $$$$$$$$$$",
"$$$$$$$$$$$ $$$$   @@  $$$$$$$$$",
"$$$$$$$$$$$$    @ @@@@@ $$$$$$$$",
"$$$$$$$$$$$ @@@@@@ @@@@@ $$$$$$$",
"$$$$$$$$$$$ @@@@@@@ @@@@ $$$$$$$",
"$$$$$$$$$$$$         @@@ $$$$$$$",
"$$$$$$$$$$$ ....... $    $$$$$$$",
"$$$$$$$$$$$ ....... $$$$$$$$$$$$",
"$$$$$$$$$$ ........  $$$$$$$$$$$",
"$$$$$$$$$$ .......   $$$$$$$$$$$",
"$$$$$$$$$  .......   $$$$$$$$$$$",
"$$$$$$$$$ @  ....     $$$$$$$$$$",
"$$$$$$$$ @@@@  .   @@ $$$$$$$$$$",
"$$$$$$$  @@@@@@  @@@@ $$$$$$$$$$",
"$$$$$$$ @@@@@@   @@@ . $$$$$$$$$",
"$$$$$$ . @@@@@ $ @@ ...$$$$$$$$$",
"$$$$$$ .. @@@ $$$  .... $$$$$$$$",
"$$$$$ ...  @ $$$$ ......$$$$$$$$",
"$$$$  ..... $$$$$$ ..... $$$$$$$",
"$$$$ .....  $$$$$$$ .....$$$$$$$",
"$$$ ...... $$$$$$$$$ ... $$$$$$$",
"$$$ ..... $$$$$$$$$$$    $$$$$$$",
"$$ ..... $$$$$$$$$$$$$$$$$$$$$$$",
"$$ .... $$$$$$$$$$$$$$$$$$$$$$$$",
"$$$    $$$$$$$$$$$$$$$$$$$$$$$$$",
"$$$$$$$$$$$$$$$$$$$$$$$$$$$$$$$$"
};
