/* XPM */
static const char *right_2[] = {
/* columns rows colors chars-per-pixel */
"32 64 9 1 ",
"  c #020101",
". c #271E1E",
"X c #992A2A",
"o c #6BB564",
"O c #A2EE9A",
"+ c #FBE9DF",
"@ c #FCEAE0",
"# c #FEFFFF",
"$ c None",
/* pixels */
"$$$$$$$$$              $$$$$$$$$",
"$$$$$$$$   ......  .     $$$$$$$",
"$$$$$$   .....  ...       $$$$$$",
"$$$$$   ....  .....   X XX $$$$$",
"$$$$  ....    ....      XX  $$$$",
"$$$   ..     .....     X XX  $$$",
"$$$  .      ....  ..     XXX  $$",
"$$  ..     .... . ..    XXX X $$",
"$$ .. ... .....  ...   .XXXX   $",
"$ ... . .......  ...   .XXXX X $",
"$ .. .. .....   ....    XXXX X  ",
"$ .. ........  . ...    XXXX XX ",
"$ .. ........  . ...    X XX XX ",
"$ ...........   ....    XX XX X ",
"$ ...... ....   ... @@ .XX XX X ",
"$ ...... ...   ... @@@@ XX XX X ",
"$ ...... ...   ..  @@@@ XXXX X $",
"$ ...... ...       ##@@@ XXX X $",
"$ ...... ...   @@@   ##@@@   .$$",
"$ .....  ...   @@+#     @@@@ $$$",
"$ . .    ...   @@@####oO @@@ $$$",
"$  .     ...   @@@####oO@@@@ $$$",
"$  .     ...   @@@ ###oo @@@ $$$",
"$$  ..   ...   @@@@ ####  @@  $$",
"$$$ ..    ...  @@@@@@@@@@@@@@ $$",
"$$$ ..    ...  @@@@@@@@@@@@@@ $$",
"$$$  ..   ...  @@@@@@@@@@@@  $$$",
"$$$$ ...   ..  @@@@@@@@XXX $$$$$",
"$$$$  ...  ..  @@@@@@@@@   $$$$$",
"$$$$$  ..  ..     @@@@@ $$$$$$$$",
"$$$$$$  .. ..   ##     $$$$$$$$$",
"$$$$$$$   ....  ###  $$$$$$$$$$$",
"$$$$$$$$$   ..   ### $$$$$$$$$$$",
"$$$$$$$$$$$   ..  ### $$$$$$$$$$",
"$$$$$$$$$$$$$     ###  $$$$$$$$$",
"$$$$$$$$$$$$$ ### #### $$$$$$$$$",
"$$$$$$$$$$$$$ #### ###  $$$$$$$$",
"$$$$$$$$$$$$$ #### #### $$$$$$$$",
"$$$$$$$$$$$$$  ##   #   $$$$$$$$",
"$$$$$$$$$$$$$     @@  $$$$$$$$$$",
"$$$$$$$$$$$$$ @ @@@@@ $$$$$$$$$$",
"$$$$$$$$$$$$$ @  @@@@@ $$$$$$$$$",
"$$$$$$$$$$$$$ @@ @@@@@ $$$$$$$$$",
"$$$$$$$$$$$$$     @@@@ $$$$$$$$$",
"$$$$$$$$$$$$$ ....  @  $$$$$$$$$",
"$$$$$$$$$$$$$ ......  $$$$$$$$$$",
"$$$$$$$$$$$$  .......  $$$$$$$$$",
"$$$$$$$$$$$$  ...... . $$$$$$$$$",
"$$$$$$$$$$$$  .....  .  $$$$$$$$",
"$$$$$$$$$$$  @@ ... .@@ $$$$$$$$",
"$$$$$$$$$$$ @@@@ .. @@@@ $$$$$$$",
"$$$$$$$$$$$ @@@@ .. @@@@  $$$$$$",
"$$$$$$$$$$ . @@@@  @@@@@@ $$$$$$",
"$$$$$$$$$$... @@@  @@@@@ . $$$$$",
"$$$$$$$$$ ....   $$ @@@ .. $$$$$",
"$$$$$$$$$...... $$$$ @  ... $$$$",
"$$$$$$$$ ..... $$$$$$ .....  $$$",
"$$$$$$$$ .... $$$$$$$  ..... $$$",
"$$$$$$$ .... $$$$$$$$$ ..... $$$",
"$$$$$$$ ... $$$$$$$$$$$      $$$",
"$$$$$$$ .. $$$$$$$$$$$$$$$$$$$$$",
"$$$$$$$$  $$$$$$$$$$$$$$$$$$$$$$",
"$$$$$$$$$$$$$$$$$$$$$$$$$$$$$$$$",
"$$$$$$$$$$$$$$$$$$$$$$$$$$$$$$$$"
};
