/* XPM */
static const char *up_0[] = {
/* columns rows colors chars-per-pixel */
"32 64 6 1 ",
"  c black",
". c #271E1E",
"X c gray81",
"o c #FCEAE0",
"O c #FEFFFF",
"+ c None",
/* pixels */
"++++++++++           +++++++++++",
"+++++++++             ++++++++++",
"+++++++                 ++++++++",
"++++++                   +++++++",
"+++++ .              .    ++++++",
"++++         ..     .    . +++++",
"+++...    ....  . . ..      ++++",
"++ .      .... ... .  .      +++",
"+ .     .............  .  .   ++",
"+..    . .............  .  ..  +",
"+.    . .......  .....      .  +",
" .   .  .......  ......  .  .. +",
"        ........  ......  . ..  ",
".  .    ... ..... ... ..   .... ",
". .   ..... ...... ..  ..   .. .",
". .    .... ...... ... ..   .. .",
".    ...... ...... ... ...  .. .",
". o  ..... ....... ...  ..   o .",
". o  ..... ........ ... ..   o .",
". o  ..... ........ ... .... o .",
". o  ..... ............  ... o .",
".    ..... ............  ...   .",
".    ..... ............  ...   .",
"     ..... ............  ...   .",
"+    ...... ........ ..  ....   ",
"+     ..... ........ ..  ....  +",
"++    ..... ... .... ..  ...   +",
"+++    .... ... .... ... ...  ++",
"++++ ...... ... .... ... ... +++",
"+++++ . .... .. .... ... .. ++++",
"+++++     .                +++++",
"+++++ OOXXOOOOOOOOOOOOXXOO +++++",
"++++ OOOX OOOOOOOOOOOO XOOO ++++",
"++++      OOOOOOOOOOOO      ++++",
"+++++ ooo OOOOOOOOOOOO ooo +++++",
"+++++ ooo OOOOOOOOOOO ooo ++++++",
"+++++ ooo OOOOOOOOOOO ooo ++++++",
"++++++ oo OOOOOOOOOOO ooo ++++++",
"+++++++ o  OOOOOOOOOO ooo ++++++",
"++++++++  o           ooo ++++++",
"+++++++++ ooooooooooo oo +++++++",
"++++++++ oooooooooooo    +++++++",
"++++++++                ++++++++",
"++++++++  ............  ++++++++",
"++++++++ .............. ++++++++",
"++++++++ .............. ++++++++",
"++++++++ .....    ..... ++++++++",
"++++++++ ......  ...... ++++++++",
"+++++++++ .....  ..... +++++++++",
"+++++++++ .....  ..... +++++++++",
"+++++++++ ooooo  oooo ++++++++++",
"+++++++++ ooooo  oooo ++++++++++",
"+++++++++ oooo    ooo ++++++++++",
"+++++++++             ++++++++++",
"+++++++++  ....  ... +++++++++++",
"+++++++++  ....  ... +++++++++++",
"+++++++++  ....     ++++++++++++",
"+++++++++  ....  +++++++++++++++",
"+++++++++  ....  +++++++++++++++",
"+++++++++  ...   +++++++++++++++",
"+++++++++        +++++++++++++++",
"++++++++++     +++++++++++++++++",
"++++++++++++++++++++++++++++++++",
"++++++++++++++++++++++++++++++++"
};
