/* XPM */
static const char *wall[] = {
/* columns rows colors chars-per-pixel */
"64 64 15 1 ",
"  c #131313",
". c #161616",
"X c #181818",
"o c #1E1E1E",
"O c #222222",
"+ c #2A2A2A",
"@ c #2D2D2D",
"# c gray19",
"$ c gray26",
"% c #444444",
"& c #5B5B5B",
"* c gray36",
"= c gray38",
"- c gray44",
"; c gray46",
/* pixels */
"................................................................",
"&**&&&*&&&&*&&&&*&&&;O..@*&&&*&&*&&*&&&&*&&*&*&&*&;.&&&&&&&&&&&&",
"$$$$$$$$$$$$$$$$$$$%&-O.@$$$$$$$$$$$$$$$$$$$$$$$$$&.@$$$$$$$$$$$",
"$$$$$$$$$$$$$$$$$$$$$&;.@%$$$$$$$$$$$$$$$$$$$$$$$$&.@$$$$$$$$$$$",
"$$$$$$$$$$$$$$$$$$$$$$*.@$$$$$$$$$$$$$$$$$$$$$$$$$&.@$$$$$$$$$$$",
"$$$$$$$$$$$$$$$$$$$$$$*.@$$$$$$$$$$$$$$$$$$$$$$$$$&.@$$$$$$$$$$$",
"$$$$$$$$$$$$$$$$$$$$$$*.@$$$$$$$$$$@@@$$$$$$$$$$$$&.@$$$$$$$$$$$",
"$$$$$$$$$$$$$@$$$$$$$$&.@$$$$$$$$@@$$$$$$$$$$$$$$$&.@$$$$$$$$$$$",
"$$$$$$$$$$$$$@$$$$$$$$*.@$$$@@@@@$$$$$$$$$$$$$$$$$&.@$$$$$$$$$$$",
"$$$$$$$$$$$$$%@@@$$$$$&.O@@@%$$$$+$$$$$$$$$$$$$$$$&.@$$$$$$$$$$$",
"$$$$$$@$$$$%@@ooo@$$@$&.O$$$$$$$$$@$$$$$$$$$$$$$$$&.@$$$$#$$$$$$",
"$$$$$$$@@$$@oO..o@$@$$*.@$$$$$$$$$@$$$$$$$$$$$$$$$&.@$$$$#$$$$$$",
"$$$$$$$$$@#oo....o#$$@O.@$$$$$$$$$$$$$$$$$$$$$$$$$&.o@@$@%$$$$$$",
"$$$$$$$$@OOoo.....o@@O..@$$$$$$$$$$$$$$$$$$$$$$%@#O..oo@$$$$$$$$",
"@@@@@@@@Oooooo.....oo...o@@@@@@@@@@@@@@@@@@@@@@@Oo.....o@@@@@@@@",
"......ooooooooO.................................................",
"......X&&&%$@@oooo@*&&&$*&&&&&&&&&-o...&&&&&&&&&&*&&&&&&&&&&&&&&",
"ooooO..@%$&*%@oo##%$$$%#$%%%%%%%%%&;OO.@$$%$$$$$$$$$$$$$$$$$$$$$",
"@@@@OO.@$$$$@@@#%$$$$$@$$$$$$$$$$$$*--.@$$$$$$$$$$$$$$$$$$$$$$$$",
"@@@@@O.@$$$$$#$$@$$$$$@$$$$$$$$$$$$$&&.@$$$$$$$$$$$$$$$$$$$$$$$$",
"@@@@@O.@$$$$@$$$$$$$$#$$$$$$$$$$$$$$$*.@$$$$$$$$$$$$$$$$$$$$$$$$",
"@@@@@O.@$$$$$$$$$$$$$@$$$$$$$$$$$$$$$*.@$$$#@$$$$$$$$$$$$$$$$$$$",
"##@@@O.@$$$$$$$$$$$$@$#$$$$$$$$$$$$$$*.@$$$$$@$$$$$@@$@$$$$$$$$$",
"####@o.@$$$$$$$$$$$$@$@$$$$$$$$$$$$$$*.@$$$$$$@$$$#$$#$$$$$$$$$$",
"##@@@OX#$$$$$$$$$$$@$$$$$$$$$$$$$$@$$*.@$$$$$$@$$#$$$$@$$$$$$$$$",
"##@@@O.#$$$$$$$$$$$$$$$$$$$$$$$$$$%@$*.@$$$$$$$@$@$$$$$#$$$$$$$$",
"#@@@@O.#$$$$$$$$$$$$$$$$$$$$$$$$$$$$@$.@$$$$$$$$@$$$$$$$$$$$$$$$",
"@@@@@O.#$$$$$$$$$$$$$$$$$$$$$$$$$$$$$*.@$$$$$$$$@$$$$$$$$$$$$$$$",
"@@@@@O.@$$$$$$$$$$$$$$$$$$$$$$$$$$$$$*.@$$$$$$$@$$$$$$$$$$$$$$$$",
"@@@@@O.O@$$$$$$$$$$$$$$$$$$$$$$$$$$$$*.@@%$$$$$@%$$$$$$$$$$$$$$$",
"@@@@@O..o@@%$$$%$$$$%$$$%$$oo$%%%%%%%*.Oo@$$$$@$$$$$$$$$$$$$$$$$",
"##@@@@o..OO@@@@@@@@@@@@@@@O..o@@@@@@@@...o#@@#o@@@@@@@@@#@@@@@@@",
"####@@@O........................................................",
"**&&&&&&*&&**$&&****&-O.&&&*&&&&&&&&&&&&&&&&&&&;o.. &&&&&&&&&&&&",
"$$$$$$$$$$$$@$$$$$$$$*;.@$$$$$$$%$$$$$$$$$$$$$$&;O..@$$$$$$$$$$$",
"$$$$$$$$$$$@$$$$$$$$$$&.@$$$$$$$$$$$$$$$$$$$$$$$&;o.@$$$$$$$$$$$",
"$$$$$$$$$##$$$$$$$$$$$&.@$$$$$$$$$$$$$$$$$$$$$$$&-o.@$$$$$$$$$$$",
"$$$$$$$$@$$$$$$$$$$$$$&.@$%$$$$$$$$$$$$$$$$$$$$$$*-.@$$$$$$$$$@@",
"$$$$$$@@$%$$$$$$$$$$$$&.@$$$$$$@$$$$$$$$$$$$$$$$$$&.@$$$$$$@##oo",
"$$$$$@$$@$$$$$$$$$$$$$&.@$$$$$$@$$$$$$$$$$$$$$$$$$&.@$$$$@#ooooo",
"$$$$@$$$@$$$$$$$$$$$$$&.@$$$$$@$$$$$$$$$$$$$$$$$$$&.@$$$$$@@@Ooo",
"$$@@%%$$$@$$$$$$$$$$$$&.@$$$$$@$$$$$$$@$$$$$$$$$$$&.@$$$$$$$$@@@",
"$@$$$$$$$$$$$$$$$$$$$$&.@$$$$@%$$$$$$$$@$$$$$$$$$$&.@$$$$$$$$$$$",
"#$$$$$$$$$$$$$$$$$$$$$&.@$$$$$$$$$$$$$$$@#$$$$$$$$&.@$$$$$$$$$$$",
"$$$$$$$$$$$$$$$$$$$$$@O.@$$$$$$$$$$$$$$$$$@$$$$$$$&.@$$$$$$$$$$$",
"$$$$$$$$$$$$$$$$$$$$#O..O@$$$$$$$$$$$$$$$$$$$$$$$$o.@$$$$$$$$$$$",
"@@@@@@@@@@@@@@@@@@@@@o...o@@@@@@@@@@@@@@@@@@@@@@@@O.o@@@@@@@@@@@",
"................................................................",
"........o&&&&@*&*&&&&&&&&&&&&&&&&&&&;o..o&&&&&&&&&&&&&&&&&&&&&&&",
"OOooO...o#$$$%#$$$$$$$$$$$$$$$$$$$$$*-.o$$$$$$$$$$$$$$$$$$$$$$$$",
"**=$@O.O@%$$$$@$$$$$$$$$$$$$$$$$$$$$$*.@%$$$$$$$$$$$$$$$$$$$$$$$",
"$$%&$o.@$$$$$$$@$$$$$$$$$$$$$$$$$$$$$*.@$$$$$$$$$$$$$$$$$$$$$$$$",
"$$$$&O.@$$$$$$$@$$$$$$$$$$$$$$$$$$$$$*.#$$$$$$$$$$$$$$$$$$$$@@$$",
"$$$$&O.@$$$$$$@%$$$$$$$$$$$$#$$$$$$$$*.@$$$$$$$$$$$$$$$$$$$$$$@$",
"$$$$$*.@$$$$$$%@$$$$$$$$$$$@$$$$$$$$$*.@$$$$$$$$$$$$$$$$$$$$$$$@",
"$$$$$*.@$$$$$$@$$$$$$$$$$$$@$$$$$$$$$*.@$$$$@$$$$$$$$$$$$$$$$$$$",
"$$$$$*.@$$$@$@@$@%$$$$$$$$@$$$$$$$$$$*.#$%$$@$$$$$$$$$$$$$$$$$$$",
"$$$$$*.@$$$$#OO@%$$$$$$$$$$$$$$$$$$$$*.@$$$@$+$$$$$$$$$$$$$$$$$$",
"$$$$$*.@$$$$%@oO@$$$$$$$$$$$$$$$$$$$$*.#$$%@$$#$$$$$$$$$$$$$$$$$",
"$$$$$*.@$$$$@$#o@$$$$$$$$$$$$$$$$$$$$*.o@@@$$$$$$$$$$$$$$$$$$$$$",
"$$$$$*.@$$$$$$$@$@$$$$$$$$$$$$$$$$$$$*..o@$$$$$$$$$$$$$$$$$$$$$$",
"$$$$$&.@$$$$$$@$$$$$$$$$$$$$$$$$$$$$$*..o@$$$$$$$$$$$$$$$$$$$$$$",
"@@@@@@ o##@@#O@@@@@@@@@@@@@@@@@@@@@@@@...o#@@@@@@@@@@@@@@@@@@@@@",
"................................................................"
};
