/* XPM */
static const char *wall[] = {
/* columns rows colors chars-per-pixel */
"64 64 33 1 ",
"  c #0E1518",
". c #10171A",
"X c #10181A",
"o c #121A1C",
"O c #141B1E",
"+ c #192123",
"@ c #1A2124",
"# c #1C2326",
"$ c #1C2426",
"% c #1E2628",
"& c #21282B",
"* c #2A3234",
"= c #2D3437",
"- c #2E3538",
"; c #30383A",
": c #333A3D",
"> c #454D4F",
", c #464D50",
"< c #484F52",
"1 c #485052",
"2 c #4A5254",
"3 c #4E5558",
"4 c #656C6F",
"5 c #666D70",
"6 c #686F72",
"7 c #687072",
"8 c #6B7375",
"9 c #6E7578",
"0 c #80878A",
"q c #81888B",
"w c #838B8D",
"e c #848C8E",
"r c #868D90",
/* pixels */
"oXXXXXXXXXXXXXXXXXXXoXXXXXXXXXXXXXXXXXXXXXXXXXXXXXXoXX.XXXXXXXXX",
"56755575555655557555e%XX=8555655755655556556565565e.555555555555",
"<<<<<<<<<<<<<<<<<<<250%o;<<<<<<<<<<<<<<<<<<<<<<<<<5X-,<<<1<<<<<<",
"<<<<<<<<<<<<<<<<<<<<<5rX;2<<<<<<<<<<<<<<<<<<<<<<<<5X;1<<<<<<<<<<",
"<<<<<<<<<<<<<<<<<<<<<<6X;<<<<<<<<<<<<<<<<<<<<<<<<<5X;,<<<<<<<<<<",
"<<<<<<<<<<<<<<<<<<<<<<6X;<<<<<<<<<<<<<<<<<<<<<<<<<5X;1<<<<<<<<<<",
"<<<<<<<<<<<<<1<<<<<<<<7X;<<<<<<<<11---<<<<<<<<<<<<5X;1<<<<<<<<<<",
"<<<<<<<<<<<<<;<<<<<<<<4X;<<<<<<<<--<<<<<<<<<<<<<<<5X;1<<<<<<<<<<",
"<<<<<<<<<<<<<;<<<<<<<<6X;<<<-;;;-<<<<<<<<<<<<<<<<<5X;<<<<<<<<<<<",
"<<<<<<<<<<<<<2;;-,<<<,4X%---2111,*1<<<<<<<<<<<<<<<5X;1<<<<<<<<<<",
"<<<<<<-11<<2--$$$;<1-,5X%1<1<<<<<1;<<<<<<<<<<<<<<<5X;1<<<;<<<<<<",
"<<<<<<1-;<<;$%XX$;<-<,6X-1<<<<<<<<-<<<<<<<<<<<<<<<5X;<<<<;<<<<<<",
"<<<<<<<<<;;$$XXXX$;,,;%X-<<<<<<<<<<<<<<<<<<<<<<<<<5X$;;<-2<<<<<<",
"<<<<<<<<;&%$$oXXXo#==%.X-1<<<<<<<<<<<<<<<<<<<<<2-;%Xo#$-1<<<<<<<",
"------;-%$$$$$XXXXo$$XXo@-----------------------%$.XXXX$--------",
"ooXXX.#$$$$$$$%XXXXXXXXXX.XXXXXXXXXoXXXXXXXXXXXXXXXXXXXXXXXXXXXX",
"XXXXXXO45521;;$$$$;6555<7555555555w$XXo5555555555655555555555555",
"$$$$%Xo-2<572;$$;;31112;12222222225e%%o-1<2<<<<,<,<<<<<<<<<<<<<<",
";;;;%%o;<<<1;;-;211<<<-,<<<<<<<<<<,6wqo;<,<<<<<<<<<<<<<<<<<<<<<<",
";;;;;%o;<<<<<;,<;,<<<<-,<<<<<<<<<<<,55o;<,<<<<<<<<<<<<<<<<<<<<<<",
";;;;;%X;<<<<-<<,<<<<<;11<<<<<<<<<<<<<7X;<,<<<<<<<<<<<<<<<<<<<<<<",
";;;;;%X;<<<<,1<<<<<<<;11<<<<<<<<<<<<<6X;<<1;-<<<<<<<<<<<<<<<<<<<",
";;;;;%o;<<<<<<<<<<<<;,;,<<<<<<<<<<<<<6X;<<<<<-1<<<<--1-<<<<<<<<<",
";;;;;$X;<<<<<<<<<<<<;,;,<<<<<<<<<<<<<6X;<,<<<<-,<<;,,:<<<<<<<<<<",
";;;;;%o;<<<<<<<<<<<-,<1<<<<<<<<<<<-<<6X;<<<<<<-,<;,<<,-,<<<<<<<<",
";;;;;%X;<<<<<<<<<<<1<111<<<<<<<<<<2-<6X;<<<<<<<;<;<<<<<;<<<<<<<<",
";;;;;%o;<<<<<<<<<<<<<<<<<<<<<<<<<<<1;1o;<<<<<<<<-,<<<<<<<<<<<<<<",
";;;;;%X;<<<<<<<<<<<<<<<<<<<<<<<<<<<<<6X;<,<<<<<<-<1<<<<<<<<<<<<<",
";;;;;%X;<<<<<<<<<<<<<<<<<<<<<<<<<<<<<6o;<<<<<<<;,<<<<<<<<<<<<<<<",
";;;;;%o%-<<<<<<<<<<<<<<<<<<<<<<<<<<<<6X;;2<<<<<;2<<<<<<<<<<<<<<<",
";;;;;%XX$--2<<<2<<<<2<<<21>$$122222227X%$=,,1,=,1<<,11111111111,",
";;;;;-$X.%%;;;;;;;;;;;;;;;%XX#--;;;;;-XXX#;;;;$;-;;-;;--;--;--;-",
";;;;;;;%XooXXXXXXXXXXXXXX...XoXXXXXXXX.XXoXXXXXXXXXXXX..XoX.oX.X",
"7744444575567,5577775w%X55565555555555555555555r$X. 555555555555",
"11<<<<<<<<<1-,<<<<<<<8eo;,<<<<<<2<<<<<<<<<<<<<<5r%Xo-,<<<<<<<<<<",
"<<<<<<<<<<<-,<<<<<<<<14.;1<<<<<<<<<<<<<<<<<<<<<<5e$X;1<<<<<<<<<<",
"<<<<<<<<<;:<<<<<<<<<<15.;11<<<<<<<<<<<<<<<<<<<<<5q#X;<<<<<<<<<<<",
"<<<<<<<,-,<<<<<<<<<<<15.;12<<<<<<<<<<<<<<<<<<<<<17wX;1<<<<<<<<;;",
"<<<<<<--12<<<<<<<<<<<15.;,<<<<,;<<<<<<<<<<<<<<<<<<5X-1<<<1,;;;$$",
"<<<<<;,<-,<<<<<<<<<<<15.;,<<<<,;<<<<<<<<<<<<<<<<<<5X-,<<<;;$$$$$",
"<<<<-<<<;<<<<<<<<<<<<15.;1<<<<-<<<<<<<<<<<<<<<<<<<5X;1<<<<;;;%$$",
"<1;;22<<<-<<<<<<<<<<<15.;,<<<<-,<<<<<<;<<<<<<<<<<<5X;1<<<<<11;;;",
"1;,,<<<<<<,<<<<<<<<<<15.;1<<<-21<<<<<<<-11<<<<<<<<5X;<<<<<<<<<<<",
";1<<<<<<<<<<<<<<<<<<<15.;1<<<<<<<<<<<<<<;;,<<<<<<<5X;1<<<<<<<<<<",
"11<<<<<<<<<<<<<<<<<<<;%.;,<<<<<<<<<<<<<<<<;<<<<<<<5X-<<<<<<<<<<<",
"<<<<<<<<<<<<<<<<<<<<;%.X%-<1<<11<11<11<<1111<<11<1+X-1<<<<<<<<<<",
"---------------------$XXX$;;;;;;;;;;;;;;;;;;;;;;;;%X$----;------",
"ooXXXXXXoXXXXXXXXXXXooXXXXXXXXXXXXXXXoXXoXXXXXXXXXXXXoXXXXXXXXXX",
"XXXXXXXo@5555;7575555555555555555555e@Xo@55555555555555555555555",
"%%$$%oXX@;<<<2;<,<<<<,,,<,,,,,,,<,,,6qo$>>,,>,>>,>>,>,>,,>>>,,>>",
"779,-%o%;2<<<<;,<<<<<<<<<<<<<<<<<<<<<7X;2<<<<<<<<<<<<<<<<<<<<<<<",
"<<25<$o;<<<<<<,-<<<<<<<<<<<<<<<<<<<<<7X-<,<<<<<<<<<<<<<<<<<<<<<<",
"<<<<5%o;<<<<<<,-<<<<<<<<<<<<<<<<<<<<<7.;<<<<<<<<<<<<<<<<<<<<--<<",
"<<<<5%X;<<<<<<-2<<<<<<<<<<<<;<<<<<<<<7.;<<<<<<<<<<<<<<<<<<<<<<-,",
"<<<<<6o;<<<<<<2;,<<<<<<<<<,;<<<<<<<<<7.-1,<<1<<<<<<<<<<<<<<<<<,;",
"<<<<<6o;<<<<<<;1,<<<<<<<<<<;,<<<<<<<<7.;,,<<;,<<<<<<<<<<<<<<<<<,",
"<<<<<6o;<<<;<;;<;2<<<<<<<<;<1<<<<<<<<7.;<2<<;<<<<<<<<<<<<<<<<<<<",
"<<<<<6o;<<<<;%%-2<<<<<<<<<<<<<<<<<<<<7.-1,<;1*<<<<<<<<<<<<<<<<<<",
"<<<<<6o;<<<<2-$%;,<<<<<<<<<<<<<<<<<<<7o;1<2-,,;<<<<<<<<<<<<<<<<<",
"<<<<<6o;<<<<-1;$-,<<<<<<<<<<<<<<<<<<<7o$;;;<<<<<<<<<<<<<<<<<<<<<",
"<<<<<6o;<<<<<<,;<-<<<<<<<<<<<<<<<<<<<7Xo$;<,<<<<<<<<<<<<<<<<<<<<",
"<<<<<5o-<<<<<<-,<<11,111,11,11,11,11<6XX$-<<<<<<<<<<<<<<<<<<<<<<",
"------ $:;;;;%--;---;---;-------;-----XXX#;;;;;;;;;;;;;;;;;;;;;;",
"ooXXXXXXXXXXXoXXXXXXXXXXXXXXXXXXXXXXXXXXXXXXXXXXXXXXXXXXXXXXXXXX"
};
