/* XPM */
static const char *_[] = {
/* columns rows colors chars-per-pixel */
"64 64 66 1 ",
"  c #2E170F",
". c #271A15",
"X c #281915",
"o c #271918",
"O c #281918",
"+ c #301611",
"@ c #3C1F1D",
"# c #3C2113",
"$ c #36211E",
"% c #3A211C",
"& c #3C1F22",
"* c #372123",
"= c #3A2022",
"- c #441E19",
"; c #5C2F1E",
": c #602B1D",
"> c #411D22",
", c #5D2C26",
"< c #562E28",
"1 c #5D2C29",
"2 c #573220",
"3 c #612C25",
"4 c #602B29",
"5 c #8C4B2C",
"6 c #91472A",
"7 c #874736",
"8 c #8A4933",
"9 c #894A32",
"0 c #8A4834",
"q c #8A4835",
"w c #8C4835",
"e c #8B4738",
"r c #8B4739",
"t c #8D4638",
"y c #854A38",
"u c #844A3C",
"i c #894938",
"p c #8C4839",
"a c #90463D",
"s c #BF6F45",
"d c #BE6F4A",
"f c #BB6E4C",
"g c #BF6E4C",
"h c #BD7147",
"j c #BD7048",
"k c #BD714C",
"l c #BF704D",
"z c #BE6F51",
"x c #C06F45",
"c c #C16E48",
"v c #C06E4D",
"b c #C86B4F",
"n c #C0704B",
"m c #C36D53",
"M c #C46C50",
"N c #DE9E6E",
"B c #E79D61",
"V c #E69D65",
"C c #E69A6A",
"Z c #E79C69",
"A c #E59B6C",
"S c #E79B6C",
"D c #EA9A69",
"F c #EA9B6C",
"G c #E89D6F",
"H c #E79C71",
/* pixels */
"O...................O..............................O............",
"dcccdccscdcccddxccddD=..,mcccccdccccdccdcddcccddcdD.ncdddddddddd",
"8qqqqq8qqqqqqqqqqqqijB&O1qqqqqqqqqqqqqqqqqqqqqqqqqn.,8qqqqqqqqq8",
"qqqqqqqqqqqqqqqqqqqqqfG.1wqqqqqqqqqqqqqqqqqqqqqqqqc.1qqqqqqqqqqq",
"q8qqqqqqqqqqqqqqqqqqqqc.1qqqqqqqqqqqqqqqqqqqqqqqqqc.1qqqqqqqqqqq",
"qqqqqqqqqqqqqqqqqqqqqqc.1qqqqqqqqqqqqqqqqqqqqqqqqqc.1qqqqqqqqqqq",
"qqqqqqqqqqqqqqqqqqqqqqc.1qqqqqqqqiq111qqqqqqqqqqqqc.1qqqqqqqqqqq",
"qqqqqqqqqqqqq3qqqqqqqqj.1qqqqqqqq3,qqqqqqqqqqqqqqqc.1qqqqqqqqqqq",
"qqqqqqqqqqqqq3qqqqqqqqc.1qqq,111,uqqqqqqqqqqqqqqqqc.1qqqqqqqqqqq",
"qqqqqqqqqqqqqi11,qqqq8j.>:,,iqqqq;qqqqqqqqqqqqqqqqc.1qqqqqqqqqqq",
"qqqqqq1iiqii,1&&=1qi,7d.&qqqqqqqqq1qqqqqqqqqqqqqqqc.1qqqq4qqqqqq",
"qqqqqqq,1iq1&=..&1q1q7c.1wqqqqqqqq,qqqqqqqqqqqqqqqc.1qqqq3qqqqqq",
"qqqqqqqqq,4&&....&4qq3&.1qqqqqqqqqqqqqqqqqqqqqqqqqc.&13q,iqqqqqq",
"qqqqqqqq1>&&&O...O$<<=..1wqqqqqqqqqqqqqqqqqqqqqi,1@.O*=,yqqqqqqq",
",,111111%&&&&&....O&@..O$111111,1111111,1111111,==.....&11111111",
"OO....=&&@&&&&=....................O............................",
"......Osddpq11&&&&4cddj7gddddddddgC=..osdddddddddcdddddddddddddd",
"&&&&&.+<wqjli3&&11awwwt1wwwwwwwwwwdA=& <w7iqqqqqqqqqqqqqqqqqqqqq",
"1111&&O1qqqq,3,1iqqqqq,7qqqqq7qqqq8gZVO1qqqqqqqqqqqqqqqqqqqqqqqq",
"11111&O1qqqqq3qq,qqqqq,78qqqq77qqqq7gdO1qqqqqqqqqqqqqqqqqqqqqqqq",
"11111&.1qqqq,yqqqqqqq3qqqqqq7qqqqqqqqv.1qqqqqqqqqqqqqqqqqqqqqqqq",
"11111&.1qqqqqqqqqqqqq,qqqqqq7qqqqqqqqg.1qqq3,8qqqqqqqqqqqqqqqqqq",
"11111&O1qqqqqqqqqqqq171qqqqqqqqqqqqqqg.1qqqqq,wqqqq,,w,qqqqqqqqq",
"11111@.1qqqqqqqqqqqq1q3qqqqqqqqqqqqqqg.1q7qqqq,7qq3qq4yqqqqqqqqq",
"11111&o1qqqqqqqqqqq,7qq8qqqqqqqqqq,qqg.1qqqqqq,7q47qq737qqqqqqqq",
"11111&X1qqqqqqqqqqqiqqqqqqqqqqqqqqw,qg.1qqqqqq61q,qqq884qqqqqqqq",
"11111&O1qqqqqqqqqqqqqqqqqqqqqqqqqqqq1qO1qqqqqqqq,7qqqqqqqqqqqqqq",
"11111&.1qqqqqqqqqqqqqqqqqqqqqqqqqqqqqg.1qqqqqqqq17qqqqqqqqqqqqqq",
"11111&.1qqqqqqqqqqqqqqqqqqqqqqqqqqqqqgO1qiqqqqq,77qqqqqqqqqqqqqq",
"11111&O&,qqqqqqqqqqqqqqqqqqqqqqqqqqqqg.1,iqqqqq1iqqqqqqqqqqqqqqq",
"11111&..&<1eiiiiiiiiiiiiiq8=&qiiiiiiiv.=&,7qq7<7qqq8qqqqqqqqqqqq",
"11111,%..==111111111111111=..=,1111111...=1111&11111111141111111",
"1111111&.OO.............X....O..X........O......X..X.....O..O...",
"zljhjhjdcddcc7ddgvvvcC&.nndcddddddddddcdddddddcF&...nccccccccccd",
"qwqqqqqqqqqq,7qqqqqqqMAO17q8qq88i88q88q88qq8qqwlH-.O,7qqqqqqqqqq",
"qqqqqqqqqqq,qqqqqqqqqqh.1qqqqqqqqqqqqqqqqqqqqqqqcD*.1iqqqqqqqqqq",
"qqqqqqqqq34qqqqqqqqqqqd.1qqqqqqqqqqqqqqqqqqqqqqqdV=.1qqqqqqqqqqq",
"qqqqqqqq35qqqqqqqqqqqqd.1qiqqqqqqqqqqqqqqqqqqqqqwvA.1qqqqqqqqq11",
"qqqqqq11qiqqqqqqqqqqqqd.1qqqqq71qqqqqqqqqqqqqqqqqqs.1qqqqiq114&&",
"qqqqq3qq17qqqqqqqqqqqqs.1qqqqq71qqqqqqqqqqqqqqqqqqd.18qqq34&&&&&",
"qqqq,yqq1yqqqqqqqqqqqqd.1qqqqq,qqqqqqqqqqqqqqqqqqqc.1qqqqq111&&&",
"qq33iiqqi1qqqqqqqqqqqqd.1qqqqq,qqqqqqq3qqqqqqqqqqqd.1qqqqqqqq111",
"i177qqqqqqqqqqqqqqqqqqd.1qqqq,iqqqqqqqq,iqqqqqqqqqc.1qqqqqqqqqqq",
"4iqqqqqqqqqqqqqqqqqqqqd.1qqqqqqqqqqqqqqq11qqqqqqqqc.1qqqqqqqqqqq",
"iwqqqqqqqqqqqqqqqqqqq1&.1qqqqqqqqqqqqqqqqq3qqqqqqqd.1qqqqqqqqqqq",
"qqqqqqqqqqqqqqqqqqqq3>..&<q7qq77qqqqqqqqq7q7qqqqq7#.,q8qqqqqqqqq",
",,111,,111,,111,1111,&...=111111111111111114444441&.&1111111111,",
"OO......O...........OOO..............O..O............O..........",
".......O$dddd3vjcdddddddddddddddddddA%.O$cdddddddddddddddddddddd",
"==&&&O..$1qqqt3qqqqqqqqqqqqqqqqqqqqqgNO&858888888888888888888888",
"llbq,=O&,iqqqq1qqqqqqqqqqqqqqqqqqqqqqv.1eqq8qqqqqqqqqqqqqqqqqqqq",
"8qed8*O1qqqqqqq1qqqqqqqqqqqqqqqqqqqqqv.1q7qqqqqqqqqqqqqqqqqqqqqq",
"8qqqd&O1qqqqqqq1qqqqqqqqqqqqqqqqqqqqqc.18qqqqqqqqqqqqqqqqqqq,,qq",
"qqqqd&X1qqqqqq,iqqqqqqqqqqqq3qqqqqqqqv.1qqqqqqqqqqqqqqqqqqqqqq,q",
"qqqqqlO1qqqqqqe,qqqqqqqqqq71qqqqqqqqqv.,78qqiqqqqqqqqqqqqqqqqq8,",
"qqqqqlO1qqqqqq17qqqqqqqqqqq17qqqqqqqqc.1q7qq,7qqqqqqqqqqqqqqqqq7",
"qqqqqlX1qqq,q,181eqqqqqqqq17qqqqqqqqqv.1qeqq,7qqqqqqqqqqqqqqqqqq",
"qqqqqlX,qqqq3>@,iqqqqqqqqqq8iqqqqqqqqv.,78q,e2qqqqqqqqqqqqqqqqqq",
"qqqqqlO1qqqqi,&&17qqqqqqqqqqqqqqqqqqqcO4qii,q83qqqqqqqqqqqqqqqqq",
"qqqqqlO1qqqq,q4@1qqqqqqqqqqqqqqqqqqqqvO&114qqqqqqqqqqqqqqqqqqqqq",
"qqqqqlO1qqqqqq71q,qqqqqqqqqqqqqqqqqqqc.O&1qqqqqqqqqqqqqqqqqqqqqq",
"qqqqqlO,qqqqqq,7yqqqqqqqqqqqqqqqqqqqqg..=1q8qqqqqqqqqqqqqqqqqqqq",
",,1111.&44114&,1111,1,1,111,1,1,111,,,...=4444444444444444444444",
"OO...........O.................................................."
};
